G04 #@! TF.GenerationSoftware,KiCad,Pcbnew,(5.1.5-0-10_14)*
G04 #@! TF.CreationDate,2020-04-26T21:59:26+02:00*
G04 #@! TF.ProjectId,minimal,6d696e69-6d61-46c2-9e6b-696361645f70,rev?*
G04 #@! TF.SameCoordinates,Original*
G04 #@! TF.FileFunction,Soldermask,Bot*
G04 #@! TF.FilePolarity,Negative*
%FSLAX46Y46*%
G04 Gerber Fmt 4.6, Leading zero omitted, Abs format (unit mm)*
G04 Created by KiCad (PCBNEW (5.1.5-0-10_14)) date 2020-04-26 21:59:26*
%MOMM*%
%LPD*%
G04 APERTURE LIST*
%ADD10C,0.100000*%
G04 APERTURE END LIST*
D10*
G36*
X57403512Y-65143927D02*
G01*
X57552812Y-65173624D01*
X57716784Y-65241544D01*
X57864354Y-65340147D01*
X57989853Y-65465646D01*
X58088456Y-65613216D01*
X58156376Y-65777188D01*
X58191000Y-65951259D01*
X58191000Y-66128741D01*
X58156376Y-66302812D01*
X58088456Y-66466784D01*
X57989853Y-66614354D01*
X57864354Y-66739853D01*
X57716784Y-66838456D01*
X57552812Y-66906376D01*
X57403512Y-66936073D01*
X57378742Y-66941000D01*
X57201258Y-66941000D01*
X57176488Y-66936073D01*
X57027188Y-66906376D01*
X56863216Y-66838456D01*
X56715646Y-66739853D01*
X56590147Y-66614354D01*
X56491544Y-66466784D01*
X56423624Y-66302812D01*
X56389000Y-66128741D01*
X56389000Y-65951259D01*
X56423624Y-65777188D01*
X56491544Y-65613216D01*
X56590147Y-65465646D01*
X56715646Y-65340147D01*
X56863216Y-65241544D01*
X57027188Y-65173624D01*
X57176488Y-65143927D01*
X57201258Y-65139000D01*
X57378742Y-65139000D01*
X57403512Y-65143927D01*
G37*
G36*
X54863512Y-65143927D02*
G01*
X55012812Y-65173624D01*
X55176784Y-65241544D01*
X55324354Y-65340147D01*
X55449853Y-65465646D01*
X55548456Y-65613216D01*
X55616376Y-65777188D01*
X55651000Y-65951259D01*
X55651000Y-66128741D01*
X55616376Y-66302812D01*
X55548456Y-66466784D01*
X55449853Y-66614354D01*
X55324354Y-66739853D01*
X55176784Y-66838456D01*
X55012812Y-66906376D01*
X54863512Y-66936073D01*
X54838742Y-66941000D01*
X54661258Y-66941000D01*
X54636488Y-66936073D01*
X54487188Y-66906376D01*
X54323216Y-66838456D01*
X54175646Y-66739853D01*
X54050147Y-66614354D01*
X53951544Y-66466784D01*
X53883624Y-66302812D01*
X53849000Y-66128741D01*
X53849000Y-65951259D01*
X53883624Y-65777188D01*
X53951544Y-65613216D01*
X54050147Y-65465646D01*
X54175646Y-65340147D01*
X54323216Y-65241544D01*
X54487188Y-65173624D01*
X54636488Y-65143927D01*
X54661258Y-65139000D01*
X54838742Y-65139000D01*
X54863512Y-65143927D01*
G37*
G36*
X52323512Y-65143927D02*
G01*
X52472812Y-65173624D01*
X52636784Y-65241544D01*
X52784354Y-65340147D01*
X52909853Y-65465646D01*
X53008456Y-65613216D01*
X53076376Y-65777188D01*
X53111000Y-65951259D01*
X53111000Y-66128741D01*
X53076376Y-66302812D01*
X53008456Y-66466784D01*
X52909853Y-66614354D01*
X52784354Y-66739853D01*
X52636784Y-66838456D01*
X52472812Y-66906376D01*
X52323512Y-66936073D01*
X52298742Y-66941000D01*
X52121258Y-66941000D01*
X52096488Y-66936073D01*
X51947188Y-66906376D01*
X51783216Y-66838456D01*
X51635646Y-66739853D01*
X51510147Y-66614354D01*
X51411544Y-66466784D01*
X51343624Y-66302812D01*
X51309000Y-66128741D01*
X51309000Y-65951259D01*
X51343624Y-65777188D01*
X51411544Y-65613216D01*
X51510147Y-65465646D01*
X51635646Y-65340147D01*
X51783216Y-65241544D01*
X51947188Y-65173624D01*
X52096488Y-65143927D01*
X52121258Y-65139000D01*
X52298742Y-65139000D01*
X52323512Y-65143927D01*
G37*
G36*
X49783512Y-65143927D02*
G01*
X49932812Y-65173624D01*
X50096784Y-65241544D01*
X50244354Y-65340147D01*
X50369853Y-65465646D01*
X50468456Y-65613216D01*
X50536376Y-65777188D01*
X50571000Y-65951259D01*
X50571000Y-66128741D01*
X50536376Y-66302812D01*
X50468456Y-66466784D01*
X50369853Y-66614354D01*
X50244354Y-66739853D01*
X50096784Y-66838456D01*
X49932812Y-66906376D01*
X49783512Y-66936073D01*
X49758742Y-66941000D01*
X49581258Y-66941000D01*
X49556488Y-66936073D01*
X49407188Y-66906376D01*
X49243216Y-66838456D01*
X49095646Y-66739853D01*
X48970147Y-66614354D01*
X48871544Y-66466784D01*
X48803624Y-66302812D01*
X48769000Y-66128741D01*
X48769000Y-65951259D01*
X48803624Y-65777188D01*
X48871544Y-65613216D01*
X48970147Y-65465646D01*
X49095646Y-65340147D01*
X49243216Y-65241544D01*
X49407188Y-65173624D01*
X49556488Y-65143927D01*
X49581258Y-65139000D01*
X49758742Y-65139000D01*
X49783512Y-65143927D01*
G37*
G36*
X47243512Y-65143927D02*
G01*
X47392812Y-65173624D01*
X47556784Y-65241544D01*
X47704354Y-65340147D01*
X47829853Y-65465646D01*
X47928456Y-65613216D01*
X47996376Y-65777188D01*
X48031000Y-65951259D01*
X48031000Y-66128741D01*
X47996376Y-66302812D01*
X47928456Y-66466784D01*
X47829853Y-66614354D01*
X47704354Y-66739853D01*
X47556784Y-66838456D01*
X47392812Y-66906376D01*
X47243512Y-66936073D01*
X47218742Y-66941000D01*
X47041258Y-66941000D01*
X47016488Y-66936073D01*
X46867188Y-66906376D01*
X46703216Y-66838456D01*
X46555646Y-66739853D01*
X46430147Y-66614354D01*
X46331544Y-66466784D01*
X46263624Y-66302812D01*
X46229000Y-66128741D01*
X46229000Y-65951259D01*
X46263624Y-65777188D01*
X46331544Y-65613216D01*
X46430147Y-65465646D01*
X46555646Y-65340147D01*
X46703216Y-65241544D01*
X46867188Y-65173624D01*
X47016488Y-65143927D01*
X47041258Y-65139000D01*
X47218742Y-65139000D01*
X47243512Y-65143927D01*
G37*
G36*
X40801000Y-65401000D02*
G01*
X38999000Y-65401000D01*
X38999000Y-63599000D01*
X40801000Y-63599000D01*
X40801000Y-65401000D01*
G37*
G36*
X42553512Y-63603927D02*
G01*
X42702812Y-63633624D01*
X42866784Y-63701544D01*
X43014354Y-63800147D01*
X43139853Y-63925646D01*
X43238456Y-64073216D01*
X43306376Y-64237188D01*
X43332072Y-64366375D01*
X43338960Y-64401000D01*
X43341000Y-64411259D01*
X43341000Y-64588741D01*
X43306376Y-64762812D01*
X43238456Y-64926784D01*
X43139853Y-65074354D01*
X43014354Y-65199853D01*
X42866784Y-65298456D01*
X42702812Y-65366376D01*
X42553512Y-65396073D01*
X42528742Y-65401000D01*
X42351258Y-65401000D01*
X42326488Y-65396073D01*
X42177188Y-65366376D01*
X42013216Y-65298456D01*
X41865646Y-65199853D01*
X41740147Y-65074354D01*
X41641544Y-64926784D01*
X41573624Y-64762812D01*
X41539000Y-64588741D01*
X41539000Y-64411259D01*
X41541041Y-64401000D01*
X41547928Y-64366375D01*
X41573624Y-64237188D01*
X41641544Y-64073216D01*
X41740147Y-63925646D01*
X41865646Y-63800147D01*
X42013216Y-63701544D01*
X42177188Y-63633624D01*
X42326488Y-63603927D01*
X42351258Y-63599000D01*
X42528742Y-63599000D01*
X42553512Y-63603927D01*
G37*
G36*
X58191000Y-64401000D02*
G01*
X56389000Y-64401000D01*
X56389000Y-62599000D01*
X58191000Y-62599000D01*
X58191000Y-64401000D01*
G37*
G36*
X49783512Y-62603927D02*
G01*
X49932812Y-62633624D01*
X50096784Y-62701544D01*
X50244354Y-62800147D01*
X50369853Y-62925646D01*
X50468456Y-63073216D01*
X50536376Y-63237188D01*
X50566073Y-63386488D01*
X50571000Y-63411258D01*
X50571000Y-63588742D01*
X50566073Y-63613512D01*
X50536376Y-63762812D01*
X50468456Y-63926784D01*
X50369853Y-64074354D01*
X50244354Y-64199853D01*
X50096784Y-64298456D01*
X49932812Y-64366376D01*
X49783512Y-64396073D01*
X49758742Y-64401000D01*
X49581258Y-64401000D01*
X49556488Y-64396073D01*
X49407188Y-64366376D01*
X49243216Y-64298456D01*
X49095646Y-64199853D01*
X48970147Y-64074354D01*
X48871544Y-63926784D01*
X48803624Y-63762812D01*
X48773927Y-63613512D01*
X48769000Y-63588742D01*
X48769000Y-63411258D01*
X48773927Y-63386488D01*
X48803624Y-63237188D01*
X48871544Y-63073216D01*
X48970147Y-62925646D01*
X49095646Y-62800147D01*
X49243216Y-62701544D01*
X49407188Y-62633624D01*
X49556488Y-62603927D01*
X49581258Y-62599000D01*
X49758742Y-62599000D01*
X49783512Y-62603927D01*
G37*
G36*
X47243512Y-62603927D02*
G01*
X47392812Y-62633624D01*
X47556784Y-62701544D01*
X47704354Y-62800147D01*
X47829853Y-62925646D01*
X47928456Y-63073216D01*
X47996376Y-63237188D01*
X48026073Y-63386488D01*
X48031000Y-63411258D01*
X48031000Y-63588742D01*
X48026073Y-63613512D01*
X47996376Y-63762812D01*
X47928456Y-63926784D01*
X47829853Y-64074354D01*
X47704354Y-64199853D01*
X47556784Y-64298456D01*
X47392812Y-64366376D01*
X47243512Y-64396073D01*
X47218742Y-64401000D01*
X47041258Y-64401000D01*
X47016488Y-64396073D01*
X46867188Y-64366376D01*
X46703216Y-64298456D01*
X46555646Y-64199853D01*
X46430147Y-64074354D01*
X46331544Y-63926784D01*
X46263624Y-63762812D01*
X46233927Y-63613512D01*
X46229000Y-63588742D01*
X46229000Y-63411258D01*
X46233927Y-63386488D01*
X46263624Y-63237188D01*
X46331544Y-63073216D01*
X46430147Y-62925646D01*
X46555646Y-62800147D01*
X46703216Y-62701544D01*
X46867188Y-62633624D01*
X47016488Y-62603927D01*
X47041258Y-62599000D01*
X47218742Y-62599000D01*
X47243512Y-62603927D01*
G37*
G36*
X54863512Y-62603927D02*
G01*
X55012812Y-62633624D01*
X55176784Y-62701544D01*
X55324354Y-62800147D01*
X55449853Y-62925646D01*
X55548456Y-63073216D01*
X55616376Y-63237188D01*
X55646073Y-63386488D01*
X55651000Y-63411258D01*
X55651000Y-63588742D01*
X55646073Y-63613512D01*
X55616376Y-63762812D01*
X55548456Y-63926784D01*
X55449853Y-64074354D01*
X55324354Y-64199853D01*
X55176784Y-64298456D01*
X55012812Y-64366376D01*
X54863512Y-64396073D01*
X54838742Y-64401000D01*
X54661258Y-64401000D01*
X54636488Y-64396073D01*
X54487188Y-64366376D01*
X54323216Y-64298456D01*
X54175646Y-64199853D01*
X54050147Y-64074354D01*
X53951544Y-63926784D01*
X53883624Y-63762812D01*
X53853927Y-63613512D01*
X53849000Y-63588742D01*
X53849000Y-63411258D01*
X53853927Y-63386488D01*
X53883624Y-63237188D01*
X53951544Y-63073216D01*
X54050147Y-62925646D01*
X54175646Y-62800147D01*
X54323216Y-62701544D01*
X54487188Y-62633624D01*
X54636488Y-62603927D01*
X54661258Y-62599000D01*
X54838742Y-62599000D01*
X54863512Y-62603927D01*
G37*
G36*
X52323512Y-62603927D02*
G01*
X52472812Y-62633624D01*
X52636784Y-62701544D01*
X52784354Y-62800147D01*
X52909853Y-62925646D01*
X53008456Y-63073216D01*
X53076376Y-63237188D01*
X53106073Y-63386488D01*
X53111000Y-63411258D01*
X53111000Y-63588742D01*
X53106073Y-63613512D01*
X53076376Y-63762812D01*
X53008456Y-63926784D01*
X52909853Y-64074354D01*
X52784354Y-64199853D01*
X52636784Y-64298456D01*
X52472812Y-64366376D01*
X52323512Y-64396073D01*
X52298742Y-64401000D01*
X52121258Y-64401000D01*
X52096488Y-64396073D01*
X51947188Y-64366376D01*
X51783216Y-64298456D01*
X51635646Y-64199853D01*
X51510147Y-64074354D01*
X51411544Y-63926784D01*
X51343624Y-63762812D01*
X51313927Y-63613512D01*
X51309000Y-63588742D01*
X51309000Y-63411258D01*
X51313927Y-63386488D01*
X51343624Y-63237188D01*
X51411544Y-63073216D01*
X51510147Y-62925646D01*
X51635646Y-62800147D01*
X51783216Y-62701544D01*
X51947188Y-62633624D01*
X52096488Y-62603927D01*
X52121258Y-62599000D01*
X52298742Y-62599000D01*
X52323512Y-62603927D01*
G37*
G36*
X29501000Y-60741000D02*
G01*
X27699000Y-60741000D01*
X27699000Y-58939000D01*
X29501000Y-58939000D01*
X29501000Y-60741000D01*
G37*
G36*
X45211766Y-56551899D02*
G01*
X45343888Y-56606626D01*
X45343890Y-56606627D01*
X45462798Y-56686079D01*
X45563921Y-56787202D01*
X45563922Y-56787204D01*
X45643374Y-56906112D01*
X45698101Y-57038234D01*
X45726000Y-57178494D01*
X45726000Y-59201000D01*
X44274000Y-59201000D01*
X44274000Y-57178494D01*
X44301899Y-57038234D01*
X44356626Y-56906112D01*
X44436078Y-56787204D01*
X44436079Y-56787202D01*
X44537202Y-56686079D01*
X44656110Y-56606627D01*
X44656112Y-56606626D01*
X44788234Y-56551899D01*
X44928494Y-56524000D01*
X45071506Y-56524000D01*
X45211766Y-56551899D01*
G37*
G36*
X43211766Y-56551899D02*
G01*
X43343888Y-56606626D01*
X43343890Y-56606627D01*
X43462798Y-56686079D01*
X43563921Y-56787202D01*
X43563922Y-56787204D01*
X43643374Y-56906112D01*
X43698101Y-57038234D01*
X43726000Y-57178494D01*
X43726000Y-59201000D01*
X42274000Y-59201000D01*
X42274000Y-57178494D01*
X42301899Y-57038234D01*
X42356626Y-56906112D01*
X42436078Y-56787204D01*
X42436079Y-56787202D01*
X42537202Y-56686079D01*
X42656110Y-56606627D01*
X42656112Y-56606626D01*
X42788234Y-56551899D01*
X42928494Y-56524000D01*
X43071506Y-56524000D01*
X43211766Y-56551899D01*
G37*
G36*
X41211766Y-56551899D02*
G01*
X41343888Y-56606626D01*
X41343890Y-56606627D01*
X41462798Y-56686079D01*
X41563921Y-56787202D01*
X41563922Y-56787204D01*
X41643374Y-56906112D01*
X41698101Y-57038234D01*
X41726000Y-57178494D01*
X41726000Y-59201000D01*
X40274000Y-59201000D01*
X40274000Y-57178494D01*
X40301899Y-57038234D01*
X40356626Y-56906112D01*
X40436078Y-56787204D01*
X40436079Y-56787202D01*
X40537202Y-56686079D01*
X40656110Y-56606627D01*
X40656112Y-56606626D01*
X40788234Y-56551899D01*
X40928494Y-56524000D01*
X41071506Y-56524000D01*
X41211766Y-56551899D01*
G37*
G36*
X39211766Y-56551899D02*
G01*
X39343888Y-56606626D01*
X39343890Y-56606627D01*
X39462798Y-56686079D01*
X39563921Y-56787202D01*
X39563922Y-56787204D01*
X39643374Y-56906112D01*
X39698101Y-57038234D01*
X39726000Y-57178494D01*
X39726000Y-59201000D01*
X38274000Y-59201000D01*
X38274000Y-57178494D01*
X38301899Y-57038234D01*
X38356626Y-56906112D01*
X38436078Y-56787204D01*
X38436079Y-56787202D01*
X38537202Y-56686079D01*
X38656110Y-56606627D01*
X38656112Y-56606626D01*
X38788234Y-56551899D01*
X38928494Y-56524000D01*
X39071506Y-56524000D01*
X39211766Y-56551899D01*
G37*
G36*
X37211766Y-56551899D02*
G01*
X37343888Y-56606626D01*
X37343890Y-56606627D01*
X37462798Y-56686079D01*
X37563921Y-56787202D01*
X37563922Y-56787204D01*
X37643374Y-56906112D01*
X37698101Y-57038234D01*
X37726000Y-57178494D01*
X37726000Y-59201000D01*
X36274000Y-59201000D01*
X36274000Y-57178494D01*
X36301899Y-57038234D01*
X36356626Y-56906112D01*
X36436078Y-56787204D01*
X36436079Y-56787202D01*
X36537202Y-56686079D01*
X36656110Y-56606627D01*
X36656112Y-56606626D01*
X36788234Y-56551899D01*
X36928494Y-56524000D01*
X37071506Y-56524000D01*
X37211766Y-56551899D01*
G37*
G36*
X47211766Y-56551899D02*
G01*
X47343888Y-56606626D01*
X47343890Y-56606627D01*
X47462798Y-56686079D01*
X47563921Y-56787202D01*
X47563922Y-56787204D01*
X47643374Y-56906112D01*
X47698101Y-57038234D01*
X47726000Y-57178494D01*
X47726000Y-59201000D01*
X46274000Y-59201000D01*
X46274000Y-57178494D01*
X46301899Y-57038234D01*
X46356626Y-56906112D01*
X46436078Y-56787204D01*
X46436079Y-56787202D01*
X46537202Y-56686079D01*
X46656110Y-56606627D01*
X46656112Y-56606626D01*
X46788234Y-56551899D01*
X46928494Y-56524000D01*
X47071506Y-56524000D01*
X47211766Y-56551899D01*
G37*
G36*
X35211766Y-56551899D02*
G01*
X35343888Y-56606626D01*
X35343890Y-56606627D01*
X35462798Y-56686079D01*
X35563921Y-56787202D01*
X35563922Y-56787204D01*
X35643374Y-56906112D01*
X35698101Y-57038234D01*
X35726000Y-57178494D01*
X35726000Y-59201000D01*
X34274000Y-59201000D01*
X34274000Y-57178494D01*
X34301899Y-57038234D01*
X34356626Y-56906112D01*
X34436078Y-56787204D01*
X34436079Y-56787202D01*
X34537202Y-56686079D01*
X34656110Y-56606627D01*
X34656112Y-56606626D01*
X34788234Y-56551899D01*
X34928494Y-56524000D01*
X35071506Y-56524000D01*
X35211766Y-56551899D01*
G37*
G36*
X49211766Y-56551899D02*
G01*
X49343888Y-56606626D01*
X49343890Y-56606627D01*
X49462798Y-56686079D01*
X49563921Y-56787202D01*
X49563922Y-56787204D01*
X49643374Y-56906112D01*
X49698101Y-57038234D01*
X49726000Y-57178494D01*
X49726000Y-59201000D01*
X48274000Y-59201000D01*
X48274000Y-57178494D01*
X48301899Y-57038234D01*
X48356626Y-56906112D01*
X48436078Y-56787204D01*
X48436079Y-56787202D01*
X48537202Y-56686079D01*
X48656110Y-56606627D01*
X48656112Y-56606626D01*
X48788234Y-56551899D01*
X48928494Y-56524000D01*
X49071506Y-56524000D01*
X49211766Y-56551899D01*
G37*
G36*
X28713512Y-56403927D02*
G01*
X28862812Y-56433624D01*
X29026784Y-56501544D01*
X29174354Y-56600147D01*
X29299853Y-56725646D01*
X29398456Y-56873216D01*
X29466376Y-57037188D01*
X29501000Y-57211259D01*
X29501000Y-57388741D01*
X29466376Y-57562812D01*
X29398456Y-57726784D01*
X29299853Y-57874354D01*
X29174354Y-57999853D01*
X29026784Y-58098456D01*
X28862812Y-58166376D01*
X28713512Y-58196073D01*
X28688742Y-58201000D01*
X28511258Y-58201000D01*
X28486488Y-58196073D01*
X28337188Y-58166376D01*
X28173216Y-58098456D01*
X28025646Y-57999853D01*
X27900147Y-57874354D01*
X27801544Y-57726784D01*
X27733624Y-57562812D01*
X27699000Y-57388741D01*
X27699000Y-57211259D01*
X27733624Y-57037188D01*
X27801544Y-56873216D01*
X27900147Y-56725646D01*
X28025646Y-56600147D01*
X28173216Y-56501544D01*
X28337188Y-56433624D01*
X28486488Y-56403927D01*
X28511258Y-56399000D01*
X28688742Y-56399000D01*
X28713512Y-56403927D01*
G37*
G36*
X28713512Y-53863927D02*
G01*
X28862812Y-53893624D01*
X29026784Y-53961544D01*
X29174354Y-54060147D01*
X29299853Y-54185646D01*
X29398456Y-54333216D01*
X29466376Y-54497188D01*
X29501000Y-54671259D01*
X29501000Y-54848741D01*
X29466376Y-55022812D01*
X29398456Y-55186784D01*
X29299853Y-55334354D01*
X29174354Y-55459853D01*
X29026784Y-55558456D01*
X28862812Y-55626376D01*
X28713512Y-55656073D01*
X28688742Y-55661000D01*
X28511258Y-55661000D01*
X28486488Y-55656073D01*
X28337188Y-55626376D01*
X28173216Y-55558456D01*
X28025646Y-55459853D01*
X27900147Y-55334354D01*
X27801544Y-55186784D01*
X27733624Y-55022812D01*
X27699000Y-54848741D01*
X27699000Y-54671259D01*
X27733624Y-54497188D01*
X27801544Y-54333216D01*
X27900147Y-54185646D01*
X28025646Y-54060147D01*
X28173216Y-53961544D01*
X28337188Y-53893624D01*
X28486488Y-53863927D01*
X28511258Y-53859000D01*
X28688742Y-53859000D01*
X28713512Y-53863927D01*
G37*
G36*
X67201000Y-55641000D02*
G01*
X65399000Y-55641000D01*
X65399000Y-53839000D01*
X67201000Y-53839000D01*
X67201000Y-55641000D01*
G37*
G36*
X28713512Y-51323927D02*
G01*
X28862812Y-51353624D01*
X29026784Y-51421544D01*
X29174354Y-51520147D01*
X29299853Y-51645646D01*
X29398456Y-51793216D01*
X29466376Y-51957188D01*
X29501000Y-52131259D01*
X29501000Y-52308741D01*
X29466376Y-52482812D01*
X29398456Y-52646784D01*
X29299853Y-52794354D01*
X29174354Y-52919853D01*
X29026784Y-53018456D01*
X28862812Y-53086376D01*
X28713512Y-53116073D01*
X28688742Y-53121000D01*
X28511258Y-53121000D01*
X28486488Y-53116073D01*
X28337188Y-53086376D01*
X28173216Y-53018456D01*
X28025646Y-52919853D01*
X27900147Y-52794354D01*
X27801544Y-52646784D01*
X27733624Y-52482812D01*
X27699000Y-52308741D01*
X27699000Y-52131259D01*
X27733624Y-51957188D01*
X27801544Y-51793216D01*
X27900147Y-51645646D01*
X28025646Y-51520147D01*
X28173216Y-51421544D01*
X28337188Y-51353624D01*
X28486488Y-51323927D01*
X28511258Y-51319000D01*
X28688742Y-51319000D01*
X28713512Y-51323927D01*
G37*
G36*
X66413512Y-51303927D02*
G01*
X66562812Y-51333624D01*
X66726784Y-51401544D01*
X66874354Y-51500147D01*
X66999853Y-51625646D01*
X67098456Y-51773216D01*
X67166376Y-51937188D01*
X67201000Y-52111259D01*
X67201000Y-52288741D01*
X67166376Y-52462812D01*
X67098456Y-52626784D01*
X66999853Y-52774354D01*
X66874354Y-52899853D01*
X66726784Y-52998456D01*
X66562812Y-53066376D01*
X66413512Y-53096073D01*
X66388742Y-53101000D01*
X66211258Y-53101000D01*
X66186488Y-53096073D01*
X66037188Y-53066376D01*
X65873216Y-52998456D01*
X65725646Y-52899853D01*
X65600147Y-52774354D01*
X65501544Y-52626784D01*
X65433624Y-52462812D01*
X65399000Y-52288741D01*
X65399000Y-52111259D01*
X65433624Y-51937188D01*
X65501544Y-51773216D01*
X65600147Y-51625646D01*
X65725646Y-51500147D01*
X65873216Y-51401544D01*
X66037188Y-51333624D01*
X66186488Y-51303927D01*
X66211258Y-51299000D01*
X66388742Y-51299000D01*
X66413512Y-51303927D01*
G37*
G36*
X62501000Y-50601000D02*
G01*
X60699000Y-50601000D01*
X60699000Y-48799000D01*
X62501000Y-48799000D01*
X62501000Y-50601000D01*
G37*
G36*
X28713512Y-48783927D02*
G01*
X28862812Y-48813624D01*
X29026784Y-48881544D01*
X29174354Y-48980147D01*
X29299853Y-49105646D01*
X29398456Y-49253216D01*
X29466376Y-49417188D01*
X29501000Y-49591259D01*
X29501000Y-49768741D01*
X29466376Y-49942812D01*
X29398456Y-50106784D01*
X29299853Y-50254354D01*
X29174354Y-50379853D01*
X29026784Y-50478456D01*
X28862812Y-50546376D01*
X28713512Y-50576073D01*
X28688742Y-50581000D01*
X28511258Y-50581000D01*
X28486488Y-50576073D01*
X28337188Y-50546376D01*
X28173216Y-50478456D01*
X28025646Y-50379853D01*
X27900147Y-50254354D01*
X27801544Y-50106784D01*
X27733624Y-49942812D01*
X27699000Y-49768741D01*
X27699000Y-49591259D01*
X27733624Y-49417188D01*
X27801544Y-49253216D01*
X27900147Y-49105646D01*
X28025646Y-48980147D01*
X28173216Y-48881544D01*
X28337188Y-48813624D01*
X28486488Y-48783927D01*
X28511258Y-48779000D01*
X28688742Y-48779000D01*
X28713512Y-48783927D01*
G37*
G36*
X66413512Y-48763927D02*
G01*
X66562812Y-48793624D01*
X66726784Y-48861544D01*
X66874354Y-48960147D01*
X66999853Y-49085646D01*
X67098456Y-49233216D01*
X67166376Y-49397188D01*
X67201000Y-49571259D01*
X67201000Y-49748741D01*
X67166376Y-49922812D01*
X67098456Y-50086784D01*
X66999853Y-50234354D01*
X66874354Y-50359853D01*
X66726784Y-50458456D01*
X66562812Y-50526376D01*
X66413512Y-50556073D01*
X66388742Y-50561000D01*
X66211258Y-50561000D01*
X66186488Y-50556073D01*
X66037188Y-50526376D01*
X65873216Y-50458456D01*
X65725646Y-50359853D01*
X65600147Y-50234354D01*
X65501544Y-50086784D01*
X65433624Y-49922812D01*
X65399000Y-49748741D01*
X65399000Y-49571259D01*
X65433624Y-49397188D01*
X65501544Y-49233216D01*
X65600147Y-49085646D01*
X65725646Y-48960147D01*
X65873216Y-48861544D01*
X66037188Y-48793624D01*
X66186488Y-48763927D01*
X66211258Y-48759000D01*
X66388742Y-48759000D01*
X66413512Y-48763927D01*
G37*
G36*
X53233642Y-47859781D02*
G01*
X53375295Y-47918456D01*
X53379416Y-47920163D01*
X53510608Y-48007822D01*
X53622178Y-48119392D01*
X53709837Y-48250584D01*
X53709838Y-48250586D01*
X53770219Y-48396358D01*
X53801000Y-48551107D01*
X53801000Y-48708893D01*
X53770219Y-48863642D01*
X53721961Y-48980147D01*
X53709837Y-49009416D01*
X53622178Y-49140608D01*
X53510608Y-49252178D01*
X53379416Y-49339837D01*
X53379415Y-49339838D01*
X53379414Y-49339838D01*
X53233642Y-49400219D01*
X53078893Y-49431000D01*
X52921107Y-49431000D01*
X52766358Y-49400219D01*
X52620586Y-49339838D01*
X52620585Y-49339838D01*
X52620584Y-49339837D01*
X52489392Y-49252178D01*
X52377822Y-49140608D01*
X52290163Y-49009416D01*
X52278039Y-48980147D01*
X52229781Y-48863642D01*
X52199000Y-48708893D01*
X52199000Y-48551107D01*
X52229781Y-48396358D01*
X52290162Y-48250586D01*
X52290163Y-48250584D01*
X52377822Y-48119392D01*
X52489392Y-48007822D01*
X52620584Y-47920163D01*
X52624705Y-47918456D01*
X52766358Y-47859781D01*
X52921107Y-47829000D01*
X53078893Y-47829000D01*
X53233642Y-47859781D01*
G37*
G36*
X61713512Y-46263927D02*
G01*
X61862812Y-46293624D01*
X62026784Y-46361544D01*
X62174354Y-46460147D01*
X62299853Y-46585646D01*
X62398456Y-46733216D01*
X62466376Y-46897188D01*
X62501000Y-47071259D01*
X62501000Y-47248741D01*
X62466376Y-47422812D01*
X62398456Y-47586784D01*
X62299853Y-47734354D01*
X62174354Y-47859853D01*
X62026784Y-47958456D01*
X61862812Y-48026376D01*
X61713512Y-48056073D01*
X61688742Y-48061000D01*
X61511258Y-48061000D01*
X61486488Y-48056073D01*
X61337188Y-48026376D01*
X61173216Y-47958456D01*
X61025646Y-47859853D01*
X60900147Y-47734354D01*
X60801544Y-47586784D01*
X60733624Y-47422812D01*
X60699000Y-47248741D01*
X60699000Y-47071259D01*
X60733624Y-46897188D01*
X60801544Y-46733216D01*
X60900147Y-46585646D01*
X61025646Y-46460147D01*
X61173216Y-46361544D01*
X61337188Y-46293624D01*
X61486488Y-46263927D01*
X61511258Y-46259000D01*
X61688742Y-46259000D01*
X61713512Y-46263927D01*
G37*
G36*
X28713512Y-46243927D02*
G01*
X28862812Y-46273624D01*
X29026784Y-46341544D01*
X29174354Y-46440147D01*
X29299853Y-46565646D01*
X29398456Y-46713216D01*
X29466376Y-46877188D01*
X29501000Y-47051259D01*
X29501000Y-47228741D01*
X29466376Y-47402812D01*
X29398456Y-47566784D01*
X29299853Y-47714354D01*
X29174354Y-47839853D01*
X29026784Y-47938456D01*
X28862812Y-48006376D01*
X28713512Y-48036073D01*
X28688742Y-48041000D01*
X28511258Y-48041000D01*
X28486488Y-48036073D01*
X28337188Y-48006376D01*
X28173216Y-47938456D01*
X28025646Y-47839853D01*
X27900147Y-47714354D01*
X27801544Y-47566784D01*
X27733624Y-47402812D01*
X27699000Y-47228741D01*
X27699000Y-47051259D01*
X27733624Y-46877188D01*
X27801544Y-46713216D01*
X27900147Y-46565646D01*
X28025646Y-46440147D01*
X28173216Y-46341544D01*
X28337188Y-46273624D01*
X28486488Y-46243927D01*
X28511258Y-46239000D01*
X28688742Y-46239000D01*
X28713512Y-46243927D01*
G37*
G36*
X66413512Y-46223927D02*
G01*
X66562812Y-46253624D01*
X66726784Y-46321544D01*
X66874354Y-46420147D01*
X66999853Y-46545646D01*
X67098456Y-46693216D01*
X67166376Y-46857188D01*
X67201000Y-47031259D01*
X67201000Y-47208741D01*
X67166376Y-47382812D01*
X67098456Y-47546784D01*
X66999853Y-47694354D01*
X66874354Y-47819853D01*
X66726784Y-47918456D01*
X66562812Y-47986376D01*
X66413512Y-48016073D01*
X66388742Y-48021000D01*
X66211258Y-48021000D01*
X66186488Y-48016073D01*
X66037188Y-47986376D01*
X65873216Y-47918456D01*
X65725646Y-47819853D01*
X65600147Y-47694354D01*
X65501544Y-47546784D01*
X65433624Y-47382812D01*
X65399000Y-47208741D01*
X65399000Y-47031259D01*
X65433624Y-46857188D01*
X65501544Y-46693216D01*
X65600147Y-46545646D01*
X65725646Y-46420147D01*
X65873216Y-46321544D01*
X66037188Y-46253624D01*
X66186488Y-46223927D01*
X66211258Y-46219000D01*
X66388742Y-46219000D01*
X66413512Y-46223927D01*
G37*
G36*
X61713512Y-43723927D02*
G01*
X61862812Y-43753624D01*
X62026784Y-43821544D01*
X62174354Y-43920147D01*
X62299853Y-44045646D01*
X62398456Y-44193216D01*
X62466376Y-44357188D01*
X62501000Y-44531259D01*
X62501000Y-44708741D01*
X62466376Y-44882812D01*
X62398456Y-45046784D01*
X62299853Y-45194354D01*
X62174354Y-45319853D01*
X62026784Y-45418456D01*
X61862812Y-45486376D01*
X61713512Y-45516073D01*
X61688742Y-45521000D01*
X61511258Y-45521000D01*
X61486488Y-45516073D01*
X61337188Y-45486376D01*
X61173216Y-45418456D01*
X61025646Y-45319853D01*
X60900147Y-45194354D01*
X60801544Y-45046784D01*
X60733624Y-44882812D01*
X60699000Y-44708741D01*
X60699000Y-44531259D01*
X60733624Y-44357188D01*
X60801544Y-44193216D01*
X60900147Y-44045646D01*
X61025646Y-43920147D01*
X61173216Y-43821544D01*
X61337188Y-43753624D01*
X61486488Y-43723927D01*
X61511258Y-43719000D01*
X61688742Y-43719000D01*
X61713512Y-43723927D01*
G37*
G36*
X28713512Y-43703927D02*
G01*
X28862812Y-43733624D01*
X29026784Y-43801544D01*
X29174354Y-43900147D01*
X29299853Y-44025646D01*
X29398456Y-44173216D01*
X29466376Y-44337188D01*
X29501000Y-44511259D01*
X29501000Y-44688741D01*
X29466376Y-44862812D01*
X29398456Y-45026784D01*
X29299853Y-45174354D01*
X29174354Y-45299853D01*
X29026784Y-45398456D01*
X28862812Y-45466376D01*
X28713512Y-45496073D01*
X28688742Y-45501000D01*
X28511258Y-45501000D01*
X28486488Y-45496073D01*
X28337188Y-45466376D01*
X28173216Y-45398456D01*
X28025646Y-45299853D01*
X27900147Y-45174354D01*
X27801544Y-45026784D01*
X27733624Y-44862812D01*
X27699000Y-44688741D01*
X27699000Y-44511259D01*
X27733624Y-44337188D01*
X27801544Y-44173216D01*
X27900147Y-44025646D01*
X28025646Y-43900147D01*
X28173216Y-43801544D01*
X28337188Y-43733624D01*
X28486488Y-43703927D01*
X28511258Y-43699000D01*
X28688742Y-43699000D01*
X28713512Y-43703927D01*
G37*
G36*
X66413512Y-43683927D02*
G01*
X66562812Y-43713624D01*
X66726784Y-43781544D01*
X66874354Y-43880147D01*
X66999853Y-44005646D01*
X67098456Y-44153216D01*
X67166376Y-44317188D01*
X67201000Y-44491259D01*
X67201000Y-44668741D01*
X67166376Y-44842812D01*
X67098456Y-45006784D01*
X66999853Y-45154354D01*
X66874354Y-45279853D01*
X66726784Y-45378456D01*
X66562812Y-45446376D01*
X66413512Y-45476073D01*
X66388742Y-45481000D01*
X66211258Y-45481000D01*
X66186488Y-45476073D01*
X66037188Y-45446376D01*
X65873216Y-45378456D01*
X65725646Y-45279853D01*
X65600147Y-45154354D01*
X65501544Y-45006784D01*
X65433624Y-44842812D01*
X65399000Y-44668741D01*
X65399000Y-44491259D01*
X65433624Y-44317188D01*
X65501544Y-44153216D01*
X65600147Y-44005646D01*
X65725646Y-43880147D01*
X65873216Y-43781544D01*
X66037188Y-43713624D01*
X66186488Y-43683927D01*
X66211258Y-43679000D01*
X66388742Y-43679000D01*
X66413512Y-43683927D01*
G37*
G36*
X53233642Y-42979781D02*
G01*
X53379414Y-43040162D01*
X53379416Y-43040163D01*
X53510608Y-43127822D01*
X53622178Y-43239392D01*
X53709837Y-43370584D01*
X53709838Y-43370586D01*
X53770219Y-43516358D01*
X53801000Y-43671107D01*
X53801000Y-43828893D01*
X53770219Y-43983642D01*
X53709838Y-44129414D01*
X53709837Y-44129416D01*
X53622178Y-44260608D01*
X53510608Y-44372178D01*
X53379416Y-44459837D01*
X53379415Y-44459838D01*
X53379414Y-44459838D01*
X53233642Y-44520219D01*
X53078893Y-44551000D01*
X52921107Y-44551000D01*
X52766358Y-44520219D01*
X52620586Y-44459838D01*
X52620585Y-44459838D01*
X52620584Y-44459837D01*
X52489392Y-44372178D01*
X52377822Y-44260608D01*
X52290163Y-44129416D01*
X52290162Y-44129414D01*
X52229781Y-43983642D01*
X52199000Y-43828893D01*
X52199000Y-43671107D01*
X52229781Y-43516358D01*
X52290162Y-43370586D01*
X52290163Y-43370584D01*
X52377822Y-43239392D01*
X52489392Y-43127822D01*
X52620584Y-43040163D01*
X52620586Y-43040162D01*
X52766358Y-42979781D01*
X52921107Y-42949000D01*
X53078893Y-42949000D01*
X53233642Y-42979781D01*
G37*
G36*
X61713512Y-41183927D02*
G01*
X61862812Y-41213624D01*
X62026784Y-41281544D01*
X62174354Y-41380147D01*
X62299853Y-41505646D01*
X62398456Y-41653216D01*
X62466376Y-41817188D01*
X62501000Y-41991259D01*
X62501000Y-42168741D01*
X62466376Y-42342812D01*
X62398456Y-42506784D01*
X62299853Y-42654354D01*
X62174354Y-42779853D01*
X62026784Y-42878456D01*
X61862812Y-42946376D01*
X61713512Y-42976073D01*
X61688742Y-42981000D01*
X61511258Y-42981000D01*
X61486488Y-42976073D01*
X61337188Y-42946376D01*
X61173216Y-42878456D01*
X61025646Y-42779853D01*
X60900147Y-42654354D01*
X60801544Y-42506784D01*
X60733624Y-42342812D01*
X60699000Y-42168741D01*
X60699000Y-41991259D01*
X60733624Y-41817188D01*
X60801544Y-41653216D01*
X60900147Y-41505646D01*
X61025646Y-41380147D01*
X61173216Y-41281544D01*
X61337188Y-41213624D01*
X61486488Y-41183927D01*
X61511258Y-41179000D01*
X61688742Y-41179000D01*
X61713512Y-41183927D01*
G37*
G36*
X28713512Y-41163927D02*
G01*
X28862812Y-41193624D01*
X29026784Y-41261544D01*
X29174354Y-41360147D01*
X29299853Y-41485646D01*
X29398456Y-41633216D01*
X29466376Y-41797188D01*
X29501000Y-41971259D01*
X29501000Y-42148741D01*
X29466376Y-42322812D01*
X29398456Y-42486784D01*
X29299853Y-42634354D01*
X29174354Y-42759853D01*
X29026784Y-42858456D01*
X28862812Y-42926376D01*
X28713512Y-42956073D01*
X28688742Y-42961000D01*
X28511258Y-42961000D01*
X28486488Y-42956073D01*
X28337188Y-42926376D01*
X28173216Y-42858456D01*
X28025646Y-42759853D01*
X27900147Y-42634354D01*
X27801544Y-42486784D01*
X27733624Y-42322812D01*
X27699000Y-42148741D01*
X27699000Y-41971259D01*
X27733624Y-41797188D01*
X27801544Y-41633216D01*
X27900147Y-41485646D01*
X28025646Y-41360147D01*
X28173216Y-41261544D01*
X28337188Y-41193624D01*
X28486488Y-41163927D01*
X28511258Y-41159000D01*
X28688742Y-41159000D01*
X28713512Y-41163927D01*
G37*
G36*
X66413512Y-41143927D02*
G01*
X66562812Y-41173624D01*
X66726784Y-41241544D01*
X66874354Y-41340147D01*
X66999853Y-41465646D01*
X67098456Y-41613216D01*
X67166376Y-41777188D01*
X67201000Y-41951259D01*
X67201000Y-42128741D01*
X67166376Y-42302812D01*
X67098456Y-42466784D01*
X66999853Y-42614354D01*
X66874354Y-42739853D01*
X66726784Y-42838456D01*
X66562812Y-42906376D01*
X66413512Y-42936073D01*
X66388742Y-42941000D01*
X66211258Y-42941000D01*
X66186488Y-42936073D01*
X66037188Y-42906376D01*
X65873216Y-42838456D01*
X65725646Y-42739853D01*
X65600147Y-42614354D01*
X65501544Y-42466784D01*
X65433624Y-42302812D01*
X65399000Y-42128741D01*
X65399000Y-41951259D01*
X65433624Y-41777188D01*
X65501544Y-41613216D01*
X65600147Y-41465646D01*
X65725646Y-41340147D01*
X65873216Y-41241544D01*
X66037188Y-41173624D01*
X66186488Y-41143927D01*
X66211258Y-41139000D01*
X66388742Y-41139000D01*
X66413512Y-41143927D01*
G37*
M02*
