M48
; DRILL file {KiCad (5.1.5-0-10_14)} date 2020 April 26, Sunday 21:59:29
; FORMAT={-:-/ absolute / inch / decimal}
; #@! TF.CreationDate,2020-04-26T21:59:29+02:00
; #@! TF.GenerationSoftware,Kicad,Pcbnew,(5.1.5-0-10_14)
; #@! TF.FileFunction,Plated,1,2,PTH
FMAT,2
INCH
T1C0.0157
T2C0.0315
T3C0.0394
%
G90
G05
T1
X1.0827Y-2.5709
X1.2008Y-1.9331
X1.2126Y-1.8425
X1.2559Y-2.1417
X1.2677Y-1.7244
X1.2756Y-2.5709
X1.3583Y-2.3622
X1.3622Y-2.0118
X1.3898Y-1.7598
X1.4291Y-2.0157
X1.4724Y-2.3898
X1.4843Y-2.0709
X1.5Y-2.122
X1.6063Y-2.3858
X1.6142Y-2.1654
X1.634Y-1.6988
X1.6496Y-1.815
X1.6772Y-2.1654
X1.689Y-1.815
X1.7677Y-1.9596
X1.7717Y-1.9173
X1.7756Y-1.8268
X1.7756Y-1.874
X1.8307Y-2.0748
X1.8465Y-1.6142
X1.8504Y-1.7441
X1.8996Y-1.7815
X1.9724Y-2.2126
X2.0354Y-2.122
X2.1969Y-2.2795
X2.315Y-1.8858
X2.3268Y-1.6811
X2.3701Y-2.063
X2.5079Y-2.2795
X2.5433Y-2.4488
X2.5433Y-2.626
T2
X1.378Y-2.2539
X1.4567Y-2.2539
X1.5354Y-2.2539
X1.6142Y-2.2539
X1.6929Y-2.2539
X1.7717Y-2.2539
X1.8504Y-2.2539
X1.9291Y-2.2539
X2.0866Y-1.7224
X2.0866Y-1.9146
T3
X1.126Y-1.6559
X1.126Y-1.7559
X1.126Y-1.8559
X1.126Y-1.9559
X1.126Y-2.0559
X1.126Y-2.1559
X1.126Y-2.2559
X1.126Y-2.3559
X2.6102Y-1.6551
X2.6102Y-1.7551
X2.6102Y-1.8551
X2.6102Y-1.9551
X2.6102Y-2.0551
X2.6102Y-2.1551
X1.5709Y-2.5394
X1.6709Y-2.5394
X1.8555Y-2.5
X1.8555Y-2.6
X1.9555Y-2.5
X1.9555Y-2.6
X2.0555Y-2.5
X2.0555Y-2.6
X2.1555Y-2.5
X2.1555Y-2.6
X2.2555Y-2.5
X2.2555Y-2.6
X2.4252Y-1.6567
X2.4252Y-1.7567
X2.4252Y-1.8567
X2.4252Y-1.9567
T0
M30
