G04 #@! TF.GenerationSoftware,KiCad,Pcbnew,(5.1.5-0-10_14)*
G04 #@! TF.CreationDate,2020-04-26T21:59:26+02:00*
G04 #@! TF.ProjectId,minimal,6d696e69-6d61-46c2-9e6b-696361645f70,rev?*
G04 #@! TF.SameCoordinates,Original*
G04 #@! TF.FileFunction,Paste,Top*
G04 #@! TF.FilePolarity,Positive*
%FSLAX46Y46*%
G04 Gerber Fmt 4.6, Leading zero omitted, Abs format (unit mm)*
G04 Created by KiCad (PCBNEW (5.1.5-0-10_14)) date 2020-04-26 21:59:26*
%MOMM*%
%LPD*%
G04 APERTURE LIST*
%ADD10C,0.100000*%
%ADD11R,1.600000X0.550000*%
%ADD12R,0.550000X1.600000*%
%ADD13R,1.550000X1.300000*%
G04 APERTURE END LIST*
D10*
G36*
X62624505Y-54551204D02*
G01*
X62648773Y-54554804D01*
X62672572Y-54560765D01*
X62695671Y-54569030D01*
X62717850Y-54579520D01*
X62738893Y-54592132D01*
X62758599Y-54606747D01*
X62776777Y-54623223D01*
X62793253Y-54641401D01*
X62807868Y-54661107D01*
X62820480Y-54682150D01*
X62830970Y-54704329D01*
X62839235Y-54727428D01*
X62845196Y-54751227D01*
X62848796Y-54775495D01*
X62850000Y-54799999D01*
X62850000Y-55700001D01*
X62848796Y-55724505D01*
X62845196Y-55748773D01*
X62839235Y-55772572D01*
X62830970Y-55795671D01*
X62820480Y-55817850D01*
X62807868Y-55838893D01*
X62793253Y-55858599D01*
X62776777Y-55876777D01*
X62758599Y-55893253D01*
X62738893Y-55907868D01*
X62717850Y-55920480D01*
X62695671Y-55930970D01*
X62672572Y-55939235D01*
X62648773Y-55945196D01*
X62624505Y-55948796D01*
X62600001Y-55950000D01*
X61949999Y-55950000D01*
X61925495Y-55948796D01*
X61901227Y-55945196D01*
X61877428Y-55939235D01*
X61854329Y-55930970D01*
X61832150Y-55920480D01*
X61811107Y-55907868D01*
X61791401Y-55893253D01*
X61773223Y-55876777D01*
X61756747Y-55858599D01*
X61742132Y-55838893D01*
X61729520Y-55817850D01*
X61719030Y-55795671D01*
X61710765Y-55772572D01*
X61704804Y-55748773D01*
X61701204Y-55724505D01*
X61700000Y-55700001D01*
X61700000Y-54799999D01*
X61701204Y-54775495D01*
X61704804Y-54751227D01*
X61710765Y-54727428D01*
X61719030Y-54704329D01*
X61729520Y-54682150D01*
X61742132Y-54661107D01*
X61756747Y-54641401D01*
X61773223Y-54623223D01*
X61791401Y-54606747D01*
X61811107Y-54592132D01*
X61832150Y-54579520D01*
X61854329Y-54569030D01*
X61877428Y-54560765D01*
X61901227Y-54554804D01*
X61925495Y-54551204D01*
X61949999Y-54550000D01*
X62600001Y-54550000D01*
X62624505Y-54551204D01*
G37*
G36*
X60574505Y-54551204D02*
G01*
X60598773Y-54554804D01*
X60622572Y-54560765D01*
X60645671Y-54569030D01*
X60667850Y-54579520D01*
X60688893Y-54592132D01*
X60708599Y-54606747D01*
X60726777Y-54623223D01*
X60743253Y-54641401D01*
X60757868Y-54661107D01*
X60770480Y-54682150D01*
X60780970Y-54704329D01*
X60789235Y-54727428D01*
X60795196Y-54751227D01*
X60798796Y-54775495D01*
X60800000Y-54799999D01*
X60800000Y-55700001D01*
X60798796Y-55724505D01*
X60795196Y-55748773D01*
X60789235Y-55772572D01*
X60780970Y-55795671D01*
X60770480Y-55817850D01*
X60757868Y-55838893D01*
X60743253Y-55858599D01*
X60726777Y-55876777D01*
X60708599Y-55893253D01*
X60688893Y-55907868D01*
X60667850Y-55920480D01*
X60645671Y-55930970D01*
X60622572Y-55939235D01*
X60598773Y-55945196D01*
X60574505Y-55948796D01*
X60550001Y-55950000D01*
X59899999Y-55950000D01*
X59875495Y-55948796D01*
X59851227Y-55945196D01*
X59827428Y-55939235D01*
X59804329Y-55930970D01*
X59782150Y-55920480D01*
X59761107Y-55907868D01*
X59741401Y-55893253D01*
X59723223Y-55876777D01*
X59706747Y-55858599D01*
X59692132Y-55838893D01*
X59679520Y-55817850D01*
X59669030Y-55795671D01*
X59660765Y-55772572D01*
X59654804Y-55748773D01*
X59651204Y-55724505D01*
X59650000Y-55700001D01*
X59650000Y-54799999D01*
X59651204Y-54775495D01*
X59654804Y-54751227D01*
X59660765Y-54727428D01*
X59669030Y-54704329D01*
X59679520Y-54682150D01*
X59692132Y-54661107D01*
X59706747Y-54641401D01*
X59723223Y-54623223D01*
X59741401Y-54606747D01*
X59761107Y-54592132D01*
X59782150Y-54579520D01*
X59804329Y-54569030D01*
X59827428Y-54560765D01*
X59851227Y-54554804D01*
X59875495Y-54551204D01*
X59899999Y-54550000D01*
X60550001Y-54550000D01*
X60574505Y-54551204D01*
G37*
D11*
X38000000Y-51600000D03*
X38000000Y-50800000D03*
X38000000Y-50000000D03*
X38000000Y-49200000D03*
X38000000Y-48400000D03*
X38000000Y-47600000D03*
X38000000Y-46800000D03*
X38000000Y-46000000D03*
D12*
X39450000Y-44550000D03*
X40250000Y-44550000D03*
X41050000Y-44550000D03*
X41850000Y-44550000D03*
X42650000Y-44550000D03*
X43450000Y-44550000D03*
X44250000Y-44550000D03*
X45050000Y-44550000D03*
D11*
X46500000Y-46000000D03*
X46500000Y-46800000D03*
X46500000Y-47600000D03*
X46500000Y-48400000D03*
X46500000Y-49200000D03*
X46500000Y-50000000D03*
X46500000Y-50800000D03*
X46500000Y-51600000D03*
D12*
X45050000Y-53050000D03*
X44250000Y-53050000D03*
X43450000Y-53050000D03*
X42650000Y-53050000D03*
X41850000Y-53050000D03*
X41050000Y-53050000D03*
X40250000Y-53050000D03*
X39450000Y-53050000D03*
D13*
X60425000Y-62250000D03*
X60425000Y-66750000D03*
X68375000Y-66750000D03*
X68375000Y-62250000D03*
D10*
G36*
X58374505Y-54551204D02*
G01*
X58398773Y-54554804D01*
X58422572Y-54560765D01*
X58445671Y-54569030D01*
X58467850Y-54579520D01*
X58488893Y-54592132D01*
X58508599Y-54606747D01*
X58526777Y-54623223D01*
X58543253Y-54641401D01*
X58557868Y-54661107D01*
X58570480Y-54682150D01*
X58580970Y-54704329D01*
X58589235Y-54727428D01*
X58595196Y-54751227D01*
X58598796Y-54775495D01*
X58600000Y-54799999D01*
X58600000Y-55700001D01*
X58598796Y-55724505D01*
X58595196Y-55748773D01*
X58589235Y-55772572D01*
X58580970Y-55795671D01*
X58570480Y-55817850D01*
X58557868Y-55838893D01*
X58543253Y-55858599D01*
X58526777Y-55876777D01*
X58508599Y-55893253D01*
X58488893Y-55907868D01*
X58467850Y-55920480D01*
X58445671Y-55930970D01*
X58422572Y-55939235D01*
X58398773Y-55945196D01*
X58374505Y-55948796D01*
X58350001Y-55950000D01*
X57699999Y-55950000D01*
X57675495Y-55948796D01*
X57651227Y-55945196D01*
X57627428Y-55939235D01*
X57604329Y-55930970D01*
X57582150Y-55920480D01*
X57561107Y-55907868D01*
X57541401Y-55893253D01*
X57523223Y-55876777D01*
X57506747Y-55858599D01*
X57492132Y-55838893D01*
X57479520Y-55817850D01*
X57469030Y-55795671D01*
X57460765Y-55772572D01*
X57454804Y-55748773D01*
X57451204Y-55724505D01*
X57450000Y-55700001D01*
X57450000Y-54799999D01*
X57451204Y-54775495D01*
X57454804Y-54751227D01*
X57460765Y-54727428D01*
X57469030Y-54704329D01*
X57479520Y-54682150D01*
X57492132Y-54661107D01*
X57506747Y-54641401D01*
X57523223Y-54623223D01*
X57541401Y-54606747D01*
X57561107Y-54592132D01*
X57582150Y-54579520D01*
X57604329Y-54569030D01*
X57627428Y-54560765D01*
X57651227Y-54554804D01*
X57675495Y-54551204D01*
X57699999Y-54550000D01*
X58350001Y-54550000D01*
X58374505Y-54551204D01*
G37*
G36*
X56324505Y-54551204D02*
G01*
X56348773Y-54554804D01*
X56372572Y-54560765D01*
X56395671Y-54569030D01*
X56417850Y-54579520D01*
X56438893Y-54592132D01*
X56458599Y-54606747D01*
X56476777Y-54623223D01*
X56493253Y-54641401D01*
X56507868Y-54661107D01*
X56520480Y-54682150D01*
X56530970Y-54704329D01*
X56539235Y-54727428D01*
X56545196Y-54751227D01*
X56548796Y-54775495D01*
X56550000Y-54799999D01*
X56550000Y-55700001D01*
X56548796Y-55724505D01*
X56545196Y-55748773D01*
X56539235Y-55772572D01*
X56530970Y-55795671D01*
X56520480Y-55817850D01*
X56507868Y-55838893D01*
X56493253Y-55858599D01*
X56476777Y-55876777D01*
X56458599Y-55893253D01*
X56438893Y-55907868D01*
X56417850Y-55920480D01*
X56395671Y-55930970D01*
X56372572Y-55939235D01*
X56348773Y-55945196D01*
X56324505Y-55948796D01*
X56300001Y-55950000D01*
X55649999Y-55950000D01*
X55625495Y-55948796D01*
X55601227Y-55945196D01*
X55577428Y-55939235D01*
X55554329Y-55930970D01*
X55532150Y-55920480D01*
X55511107Y-55907868D01*
X55491401Y-55893253D01*
X55473223Y-55876777D01*
X55456747Y-55858599D01*
X55442132Y-55838893D01*
X55429520Y-55817850D01*
X55419030Y-55795671D01*
X55410765Y-55772572D01*
X55404804Y-55748773D01*
X55401204Y-55724505D01*
X55400000Y-55700001D01*
X55400000Y-54799999D01*
X55401204Y-54775495D01*
X55404804Y-54751227D01*
X55410765Y-54727428D01*
X55419030Y-54704329D01*
X55429520Y-54682150D01*
X55442132Y-54661107D01*
X55456747Y-54641401D01*
X55473223Y-54623223D01*
X55491401Y-54606747D01*
X55511107Y-54592132D01*
X55532150Y-54579520D01*
X55554329Y-54569030D01*
X55577428Y-54560765D01*
X55601227Y-54554804D01*
X55625495Y-54551204D01*
X55649999Y-54550000D01*
X56300001Y-54550000D01*
X56324505Y-54551204D01*
G37*
G36*
X36074505Y-60476204D02*
G01*
X36098773Y-60479804D01*
X36122572Y-60485765D01*
X36145671Y-60494030D01*
X36167850Y-60504520D01*
X36188893Y-60517132D01*
X36208599Y-60531747D01*
X36226777Y-60548223D01*
X36243253Y-60566401D01*
X36257868Y-60586107D01*
X36270480Y-60607150D01*
X36280970Y-60629329D01*
X36289235Y-60652428D01*
X36295196Y-60676227D01*
X36298796Y-60700495D01*
X36300000Y-60724999D01*
X36300000Y-61375001D01*
X36298796Y-61399505D01*
X36295196Y-61423773D01*
X36289235Y-61447572D01*
X36280970Y-61470671D01*
X36270480Y-61492850D01*
X36257868Y-61513893D01*
X36243253Y-61533599D01*
X36226777Y-61551777D01*
X36208599Y-61568253D01*
X36188893Y-61582868D01*
X36167850Y-61595480D01*
X36145671Y-61605970D01*
X36122572Y-61614235D01*
X36098773Y-61620196D01*
X36074505Y-61623796D01*
X36050001Y-61625000D01*
X35149999Y-61625000D01*
X35125495Y-61623796D01*
X35101227Y-61620196D01*
X35077428Y-61614235D01*
X35054329Y-61605970D01*
X35032150Y-61595480D01*
X35011107Y-61582868D01*
X34991401Y-61568253D01*
X34973223Y-61551777D01*
X34956747Y-61533599D01*
X34942132Y-61513893D01*
X34929520Y-61492850D01*
X34919030Y-61470671D01*
X34910765Y-61447572D01*
X34904804Y-61423773D01*
X34901204Y-61399505D01*
X34900000Y-61375001D01*
X34900000Y-60724999D01*
X34901204Y-60700495D01*
X34904804Y-60676227D01*
X34910765Y-60652428D01*
X34919030Y-60629329D01*
X34929520Y-60607150D01*
X34942132Y-60586107D01*
X34956747Y-60566401D01*
X34973223Y-60548223D01*
X34991401Y-60531747D01*
X35011107Y-60517132D01*
X35032150Y-60504520D01*
X35054329Y-60494030D01*
X35077428Y-60485765D01*
X35101227Y-60479804D01*
X35125495Y-60476204D01*
X35149999Y-60475000D01*
X36050001Y-60475000D01*
X36074505Y-60476204D01*
G37*
G36*
X36074505Y-62526204D02*
G01*
X36098773Y-62529804D01*
X36122572Y-62535765D01*
X36145671Y-62544030D01*
X36167850Y-62554520D01*
X36188893Y-62567132D01*
X36208599Y-62581747D01*
X36226777Y-62598223D01*
X36243253Y-62616401D01*
X36257868Y-62636107D01*
X36270480Y-62657150D01*
X36280970Y-62679329D01*
X36289235Y-62702428D01*
X36295196Y-62726227D01*
X36298796Y-62750495D01*
X36300000Y-62774999D01*
X36300000Y-63425001D01*
X36298796Y-63449505D01*
X36295196Y-63473773D01*
X36289235Y-63497572D01*
X36280970Y-63520671D01*
X36270480Y-63542850D01*
X36257868Y-63563893D01*
X36243253Y-63583599D01*
X36226777Y-63601777D01*
X36208599Y-63618253D01*
X36188893Y-63632868D01*
X36167850Y-63645480D01*
X36145671Y-63655970D01*
X36122572Y-63664235D01*
X36098773Y-63670196D01*
X36074505Y-63673796D01*
X36050001Y-63675000D01*
X35149999Y-63675000D01*
X35125495Y-63673796D01*
X35101227Y-63670196D01*
X35077428Y-63664235D01*
X35054329Y-63655970D01*
X35032150Y-63645480D01*
X35011107Y-63632868D01*
X34991401Y-63618253D01*
X34973223Y-63601777D01*
X34956747Y-63583599D01*
X34942132Y-63563893D01*
X34929520Y-63542850D01*
X34919030Y-63520671D01*
X34910765Y-63497572D01*
X34904804Y-63473773D01*
X34901204Y-63449505D01*
X34900000Y-63425001D01*
X34900000Y-62774999D01*
X34901204Y-62750495D01*
X34904804Y-62726227D01*
X34910765Y-62702428D01*
X34919030Y-62679329D01*
X34929520Y-62657150D01*
X34942132Y-62636107D01*
X34956747Y-62616401D01*
X34973223Y-62598223D01*
X34991401Y-62581747D01*
X35011107Y-62567132D01*
X35032150Y-62554520D01*
X35054329Y-62544030D01*
X35077428Y-62535765D01*
X35101227Y-62529804D01*
X35125495Y-62526204D01*
X35149999Y-62525000D01*
X36050001Y-62525000D01*
X36074505Y-62526204D01*
G37*
G36*
X32474505Y-60326204D02*
G01*
X32498773Y-60329804D01*
X32522572Y-60335765D01*
X32545671Y-60344030D01*
X32567850Y-60354520D01*
X32588893Y-60367132D01*
X32608599Y-60381747D01*
X32626777Y-60398223D01*
X32643253Y-60416401D01*
X32657868Y-60436107D01*
X32670480Y-60457150D01*
X32680970Y-60479329D01*
X32689235Y-60502428D01*
X32695196Y-60526227D01*
X32698796Y-60550495D01*
X32700000Y-60574999D01*
X32700000Y-61225001D01*
X32698796Y-61249505D01*
X32695196Y-61273773D01*
X32689235Y-61297572D01*
X32680970Y-61320671D01*
X32670480Y-61342850D01*
X32657868Y-61363893D01*
X32643253Y-61383599D01*
X32626777Y-61401777D01*
X32608599Y-61418253D01*
X32588893Y-61432868D01*
X32567850Y-61445480D01*
X32545671Y-61455970D01*
X32522572Y-61464235D01*
X32498773Y-61470196D01*
X32474505Y-61473796D01*
X32450001Y-61475000D01*
X31549999Y-61475000D01*
X31525495Y-61473796D01*
X31501227Y-61470196D01*
X31477428Y-61464235D01*
X31454329Y-61455970D01*
X31432150Y-61445480D01*
X31411107Y-61432868D01*
X31391401Y-61418253D01*
X31373223Y-61401777D01*
X31356747Y-61383599D01*
X31342132Y-61363893D01*
X31329520Y-61342850D01*
X31319030Y-61320671D01*
X31310765Y-61297572D01*
X31304804Y-61273773D01*
X31301204Y-61249505D01*
X31300000Y-61225001D01*
X31300000Y-60574999D01*
X31301204Y-60550495D01*
X31304804Y-60526227D01*
X31310765Y-60502428D01*
X31319030Y-60479329D01*
X31329520Y-60457150D01*
X31342132Y-60436107D01*
X31356747Y-60416401D01*
X31373223Y-60398223D01*
X31391401Y-60381747D01*
X31411107Y-60367132D01*
X31432150Y-60354520D01*
X31454329Y-60344030D01*
X31477428Y-60335765D01*
X31501227Y-60329804D01*
X31525495Y-60326204D01*
X31549999Y-60325000D01*
X32450001Y-60325000D01*
X32474505Y-60326204D01*
G37*
G36*
X32474505Y-62376204D02*
G01*
X32498773Y-62379804D01*
X32522572Y-62385765D01*
X32545671Y-62394030D01*
X32567850Y-62404520D01*
X32588893Y-62417132D01*
X32608599Y-62431747D01*
X32626777Y-62448223D01*
X32643253Y-62466401D01*
X32657868Y-62486107D01*
X32670480Y-62507150D01*
X32680970Y-62529329D01*
X32689235Y-62552428D01*
X32695196Y-62576227D01*
X32698796Y-62600495D01*
X32700000Y-62624999D01*
X32700000Y-63275001D01*
X32698796Y-63299505D01*
X32695196Y-63323773D01*
X32689235Y-63347572D01*
X32680970Y-63370671D01*
X32670480Y-63392850D01*
X32657868Y-63413893D01*
X32643253Y-63433599D01*
X32626777Y-63451777D01*
X32608599Y-63468253D01*
X32588893Y-63482868D01*
X32567850Y-63495480D01*
X32545671Y-63505970D01*
X32522572Y-63514235D01*
X32498773Y-63520196D01*
X32474505Y-63523796D01*
X32450001Y-63525000D01*
X31549999Y-63525000D01*
X31525495Y-63523796D01*
X31501227Y-63520196D01*
X31477428Y-63514235D01*
X31454329Y-63505970D01*
X31432150Y-63495480D01*
X31411107Y-63482868D01*
X31391401Y-63468253D01*
X31373223Y-63451777D01*
X31356747Y-63433599D01*
X31342132Y-63413893D01*
X31329520Y-63392850D01*
X31319030Y-63370671D01*
X31310765Y-63347572D01*
X31304804Y-63323773D01*
X31301204Y-63299505D01*
X31300000Y-63275001D01*
X31300000Y-62624999D01*
X31301204Y-62600495D01*
X31304804Y-62576227D01*
X31310765Y-62552428D01*
X31319030Y-62529329D01*
X31329520Y-62507150D01*
X31342132Y-62486107D01*
X31356747Y-62466401D01*
X31373223Y-62448223D01*
X31391401Y-62431747D01*
X31411107Y-62417132D01*
X31432150Y-62404520D01*
X31454329Y-62394030D01*
X31477428Y-62385765D01*
X31501227Y-62379804D01*
X31525495Y-62376204D01*
X31549999Y-62375000D01*
X32450001Y-62375000D01*
X32474505Y-62376204D01*
G37*
G36*
X36074505Y-64601204D02*
G01*
X36098773Y-64604804D01*
X36122572Y-64610765D01*
X36145671Y-64619030D01*
X36167850Y-64629520D01*
X36188893Y-64642132D01*
X36208599Y-64656747D01*
X36226777Y-64673223D01*
X36243253Y-64691401D01*
X36257868Y-64711107D01*
X36270480Y-64732150D01*
X36280970Y-64754329D01*
X36289235Y-64777428D01*
X36295196Y-64801227D01*
X36298796Y-64825495D01*
X36300000Y-64849999D01*
X36300000Y-65750001D01*
X36298796Y-65774505D01*
X36295196Y-65798773D01*
X36289235Y-65822572D01*
X36280970Y-65845671D01*
X36270480Y-65867850D01*
X36257868Y-65888893D01*
X36243253Y-65908599D01*
X36226777Y-65926777D01*
X36208599Y-65943253D01*
X36188893Y-65957868D01*
X36167850Y-65970480D01*
X36145671Y-65980970D01*
X36122572Y-65989235D01*
X36098773Y-65995196D01*
X36074505Y-65998796D01*
X36050001Y-66000000D01*
X35399999Y-66000000D01*
X35375495Y-65998796D01*
X35351227Y-65995196D01*
X35327428Y-65989235D01*
X35304329Y-65980970D01*
X35282150Y-65970480D01*
X35261107Y-65957868D01*
X35241401Y-65943253D01*
X35223223Y-65926777D01*
X35206747Y-65908599D01*
X35192132Y-65888893D01*
X35179520Y-65867850D01*
X35169030Y-65845671D01*
X35160765Y-65822572D01*
X35154804Y-65798773D01*
X35151204Y-65774505D01*
X35150000Y-65750001D01*
X35150000Y-64849999D01*
X35151204Y-64825495D01*
X35154804Y-64801227D01*
X35160765Y-64777428D01*
X35169030Y-64754329D01*
X35179520Y-64732150D01*
X35192132Y-64711107D01*
X35206747Y-64691401D01*
X35223223Y-64673223D01*
X35241401Y-64656747D01*
X35261107Y-64642132D01*
X35282150Y-64629520D01*
X35304329Y-64619030D01*
X35327428Y-64610765D01*
X35351227Y-64604804D01*
X35375495Y-64601204D01*
X35399999Y-64600000D01*
X36050001Y-64600000D01*
X36074505Y-64601204D01*
G37*
G36*
X34024505Y-64601204D02*
G01*
X34048773Y-64604804D01*
X34072572Y-64610765D01*
X34095671Y-64619030D01*
X34117850Y-64629520D01*
X34138893Y-64642132D01*
X34158599Y-64656747D01*
X34176777Y-64673223D01*
X34193253Y-64691401D01*
X34207868Y-64711107D01*
X34220480Y-64732150D01*
X34230970Y-64754329D01*
X34239235Y-64777428D01*
X34245196Y-64801227D01*
X34248796Y-64825495D01*
X34250000Y-64849999D01*
X34250000Y-65750001D01*
X34248796Y-65774505D01*
X34245196Y-65798773D01*
X34239235Y-65822572D01*
X34230970Y-65845671D01*
X34220480Y-65867850D01*
X34207868Y-65888893D01*
X34193253Y-65908599D01*
X34176777Y-65926777D01*
X34158599Y-65943253D01*
X34138893Y-65957868D01*
X34117850Y-65970480D01*
X34095671Y-65980970D01*
X34072572Y-65989235D01*
X34048773Y-65995196D01*
X34024505Y-65998796D01*
X34000001Y-66000000D01*
X33349999Y-66000000D01*
X33325495Y-65998796D01*
X33301227Y-65995196D01*
X33277428Y-65989235D01*
X33254329Y-65980970D01*
X33232150Y-65970480D01*
X33211107Y-65957868D01*
X33191401Y-65943253D01*
X33173223Y-65926777D01*
X33156747Y-65908599D01*
X33142132Y-65888893D01*
X33129520Y-65867850D01*
X33119030Y-65845671D01*
X33110765Y-65822572D01*
X33104804Y-65798773D01*
X33101204Y-65774505D01*
X33100000Y-65750001D01*
X33100000Y-64849999D01*
X33101204Y-64825495D01*
X33104804Y-64801227D01*
X33110765Y-64777428D01*
X33119030Y-64754329D01*
X33129520Y-64732150D01*
X33142132Y-64711107D01*
X33156747Y-64691401D01*
X33173223Y-64673223D01*
X33191401Y-64656747D01*
X33211107Y-64642132D01*
X33232150Y-64629520D01*
X33254329Y-64619030D01*
X33277428Y-64610765D01*
X33301227Y-64604804D01*
X33325495Y-64601204D01*
X33349999Y-64600000D01*
X34000001Y-64600000D01*
X34024505Y-64601204D01*
G37*
G36*
X31349505Y-64601204D02*
G01*
X31373773Y-64604804D01*
X31397572Y-64610765D01*
X31420671Y-64619030D01*
X31442850Y-64629520D01*
X31463893Y-64642132D01*
X31483599Y-64656747D01*
X31501777Y-64673223D01*
X31518253Y-64691401D01*
X31532868Y-64711107D01*
X31545480Y-64732150D01*
X31555970Y-64754329D01*
X31564235Y-64777428D01*
X31570196Y-64801227D01*
X31573796Y-64825495D01*
X31575000Y-64849999D01*
X31575000Y-65750001D01*
X31573796Y-65774505D01*
X31570196Y-65798773D01*
X31564235Y-65822572D01*
X31555970Y-65845671D01*
X31545480Y-65867850D01*
X31532868Y-65888893D01*
X31518253Y-65908599D01*
X31501777Y-65926777D01*
X31483599Y-65943253D01*
X31463893Y-65957868D01*
X31442850Y-65970480D01*
X31420671Y-65980970D01*
X31397572Y-65989235D01*
X31373773Y-65995196D01*
X31349505Y-65998796D01*
X31325001Y-66000000D01*
X30674999Y-66000000D01*
X30650495Y-65998796D01*
X30626227Y-65995196D01*
X30602428Y-65989235D01*
X30579329Y-65980970D01*
X30557150Y-65970480D01*
X30536107Y-65957868D01*
X30516401Y-65943253D01*
X30498223Y-65926777D01*
X30481747Y-65908599D01*
X30467132Y-65888893D01*
X30454520Y-65867850D01*
X30444030Y-65845671D01*
X30435765Y-65822572D01*
X30429804Y-65798773D01*
X30426204Y-65774505D01*
X30425000Y-65750001D01*
X30425000Y-64849999D01*
X30426204Y-64825495D01*
X30429804Y-64801227D01*
X30435765Y-64777428D01*
X30444030Y-64754329D01*
X30454520Y-64732150D01*
X30467132Y-64711107D01*
X30481747Y-64691401D01*
X30498223Y-64673223D01*
X30516401Y-64656747D01*
X30536107Y-64642132D01*
X30557150Y-64629520D01*
X30579329Y-64619030D01*
X30602428Y-64610765D01*
X30626227Y-64604804D01*
X30650495Y-64601204D01*
X30674999Y-64600000D01*
X31325001Y-64600000D01*
X31349505Y-64601204D01*
G37*
G36*
X29299505Y-64601204D02*
G01*
X29323773Y-64604804D01*
X29347572Y-64610765D01*
X29370671Y-64619030D01*
X29392850Y-64629520D01*
X29413893Y-64642132D01*
X29433599Y-64656747D01*
X29451777Y-64673223D01*
X29468253Y-64691401D01*
X29482868Y-64711107D01*
X29495480Y-64732150D01*
X29505970Y-64754329D01*
X29514235Y-64777428D01*
X29520196Y-64801227D01*
X29523796Y-64825495D01*
X29525000Y-64849999D01*
X29525000Y-65750001D01*
X29523796Y-65774505D01*
X29520196Y-65798773D01*
X29514235Y-65822572D01*
X29505970Y-65845671D01*
X29495480Y-65867850D01*
X29482868Y-65888893D01*
X29468253Y-65908599D01*
X29451777Y-65926777D01*
X29433599Y-65943253D01*
X29413893Y-65957868D01*
X29392850Y-65970480D01*
X29370671Y-65980970D01*
X29347572Y-65989235D01*
X29323773Y-65995196D01*
X29299505Y-65998796D01*
X29275001Y-66000000D01*
X28624999Y-66000000D01*
X28600495Y-65998796D01*
X28576227Y-65995196D01*
X28552428Y-65989235D01*
X28529329Y-65980970D01*
X28507150Y-65970480D01*
X28486107Y-65957868D01*
X28466401Y-65943253D01*
X28448223Y-65926777D01*
X28431747Y-65908599D01*
X28417132Y-65888893D01*
X28404520Y-65867850D01*
X28394030Y-65845671D01*
X28385765Y-65822572D01*
X28379804Y-65798773D01*
X28376204Y-65774505D01*
X28375000Y-65750001D01*
X28375000Y-64849999D01*
X28376204Y-64825495D01*
X28379804Y-64801227D01*
X28385765Y-64777428D01*
X28394030Y-64754329D01*
X28404520Y-64732150D01*
X28417132Y-64711107D01*
X28431747Y-64691401D01*
X28448223Y-64673223D01*
X28466401Y-64656747D01*
X28486107Y-64642132D01*
X28507150Y-64629520D01*
X28529329Y-64619030D01*
X28552428Y-64610765D01*
X28576227Y-64604804D01*
X28600495Y-64601204D01*
X28624999Y-64600000D01*
X29275001Y-64600000D01*
X29299505Y-64601204D01*
G37*
G36*
X52974505Y-57326204D02*
G01*
X52998773Y-57329804D01*
X53022572Y-57335765D01*
X53045671Y-57344030D01*
X53067850Y-57354520D01*
X53088893Y-57367132D01*
X53108599Y-57381747D01*
X53126777Y-57398223D01*
X53143253Y-57416401D01*
X53157868Y-57436107D01*
X53170480Y-57457150D01*
X53180970Y-57479329D01*
X53189235Y-57502428D01*
X53195196Y-57526227D01*
X53198796Y-57550495D01*
X53200000Y-57574999D01*
X53200000Y-58225001D01*
X53198796Y-58249505D01*
X53195196Y-58273773D01*
X53189235Y-58297572D01*
X53180970Y-58320671D01*
X53170480Y-58342850D01*
X53157868Y-58363893D01*
X53143253Y-58383599D01*
X53126777Y-58401777D01*
X53108599Y-58418253D01*
X53088893Y-58432868D01*
X53067850Y-58445480D01*
X53045671Y-58455970D01*
X53022572Y-58464235D01*
X52998773Y-58470196D01*
X52974505Y-58473796D01*
X52950001Y-58475000D01*
X52049999Y-58475000D01*
X52025495Y-58473796D01*
X52001227Y-58470196D01*
X51977428Y-58464235D01*
X51954329Y-58455970D01*
X51932150Y-58445480D01*
X51911107Y-58432868D01*
X51891401Y-58418253D01*
X51873223Y-58401777D01*
X51856747Y-58383599D01*
X51842132Y-58363893D01*
X51829520Y-58342850D01*
X51819030Y-58320671D01*
X51810765Y-58297572D01*
X51804804Y-58273773D01*
X51801204Y-58249505D01*
X51800000Y-58225001D01*
X51800000Y-57574999D01*
X51801204Y-57550495D01*
X51804804Y-57526227D01*
X51810765Y-57502428D01*
X51819030Y-57479329D01*
X51829520Y-57457150D01*
X51842132Y-57436107D01*
X51856747Y-57416401D01*
X51873223Y-57398223D01*
X51891401Y-57381747D01*
X51911107Y-57367132D01*
X51932150Y-57354520D01*
X51954329Y-57344030D01*
X51977428Y-57335765D01*
X52001227Y-57329804D01*
X52025495Y-57326204D01*
X52049999Y-57325000D01*
X52950001Y-57325000D01*
X52974505Y-57326204D01*
G37*
G36*
X52974505Y-55276204D02*
G01*
X52998773Y-55279804D01*
X53022572Y-55285765D01*
X53045671Y-55294030D01*
X53067850Y-55304520D01*
X53088893Y-55317132D01*
X53108599Y-55331747D01*
X53126777Y-55348223D01*
X53143253Y-55366401D01*
X53157868Y-55386107D01*
X53170480Y-55407150D01*
X53180970Y-55429329D01*
X53189235Y-55452428D01*
X53195196Y-55476227D01*
X53198796Y-55500495D01*
X53200000Y-55524999D01*
X53200000Y-56175001D01*
X53198796Y-56199505D01*
X53195196Y-56223773D01*
X53189235Y-56247572D01*
X53180970Y-56270671D01*
X53170480Y-56292850D01*
X53157868Y-56313893D01*
X53143253Y-56333599D01*
X53126777Y-56351777D01*
X53108599Y-56368253D01*
X53088893Y-56382868D01*
X53067850Y-56395480D01*
X53045671Y-56405970D01*
X53022572Y-56414235D01*
X52998773Y-56420196D01*
X52974505Y-56423796D01*
X52950001Y-56425000D01*
X52049999Y-56425000D01*
X52025495Y-56423796D01*
X52001227Y-56420196D01*
X51977428Y-56414235D01*
X51954329Y-56405970D01*
X51932150Y-56395480D01*
X51911107Y-56382868D01*
X51891401Y-56368253D01*
X51873223Y-56351777D01*
X51856747Y-56333599D01*
X51842132Y-56313893D01*
X51829520Y-56292850D01*
X51819030Y-56270671D01*
X51810765Y-56247572D01*
X51804804Y-56223773D01*
X51801204Y-56199505D01*
X51800000Y-56175001D01*
X51800000Y-55524999D01*
X51801204Y-55500495D01*
X51804804Y-55476227D01*
X51810765Y-55452428D01*
X51819030Y-55429329D01*
X51829520Y-55407150D01*
X51842132Y-55386107D01*
X51856747Y-55366401D01*
X51873223Y-55348223D01*
X51891401Y-55331747D01*
X51911107Y-55317132D01*
X51932150Y-55304520D01*
X51954329Y-55294030D01*
X51977428Y-55285765D01*
X52001227Y-55279804D01*
X52025495Y-55276204D01*
X52049999Y-55275000D01*
X52950001Y-55275000D01*
X52974505Y-55276204D01*
G37*
G36*
X35649505Y-42301204D02*
G01*
X35673773Y-42304804D01*
X35697572Y-42310765D01*
X35720671Y-42319030D01*
X35742850Y-42329520D01*
X35763893Y-42342132D01*
X35783599Y-42356747D01*
X35801777Y-42373223D01*
X35818253Y-42391401D01*
X35832868Y-42411107D01*
X35845480Y-42432150D01*
X35855970Y-42454329D01*
X35864235Y-42477428D01*
X35870196Y-42501227D01*
X35873796Y-42525495D01*
X35875000Y-42549999D01*
X35875000Y-43450001D01*
X35873796Y-43474505D01*
X35870196Y-43498773D01*
X35864235Y-43522572D01*
X35855970Y-43545671D01*
X35845480Y-43567850D01*
X35832868Y-43588893D01*
X35818253Y-43608599D01*
X35801777Y-43626777D01*
X35783599Y-43643253D01*
X35763893Y-43657868D01*
X35742850Y-43670480D01*
X35720671Y-43680970D01*
X35697572Y-43689235D01*
X35673773Y-43695196D01*
X35649505Y-43698796D01*
X35625001Y-43700000D01*
X34974999Y-43700000D01*
X34950495Y-43698796D01*
X34926227Y-43695196D01*
X34902428Y-43689235D01*
X34879329Y-43680970D01*
X34857150Y-43670480D01*
X34836107Y-43657868D01*
X34816401Y-43643253D01*
X34798223Y-43626777D01*
X34781747Y-43608599D01*
X34767132Y-43588893D01*
X34754520Y-43567850D01*
X34744030Y-43545671D01*
X34735765Y-43522572D01*
X34729804Y-43498773D01*
X34726204Y-43474505D01*
X34725000Y-43450001D01*
X34725000Y-42549999D01*
X34726204Y-42525495D01*
X34729804Y-42501227D01*
X34735765Y-42477428D01*
X34744030Y-42454329D01*
X34754520Y-42432150D01*
X34767132Y-42411107D01*
X34781747Y-42391401D01*
X34798223Y-42373223D01*
X34816401Y-42356747D01*
X34836107Y-42342132D01*
X34857150Y-42329520D01*
X34879329Y-42319030D01*
X34902428Y-42310765D01*
X34926227Y-42304804D01*
X34950495Y-42301204D01*
X34974999Y-42300000D01*
X35625001Y-42300000D01*
X35649505Y-42301204D01*
G37*
G36*
X33599910Y-42301202D02*
G01*
X33624135Y-42304795D01*
X33647891Y-42310746D01*
X33670949Y-42318996D01*
X33693087Y-42329467D01*
X33714093Y-42342057D01*
X33733763Y-42356645D01*
X33751908Y-42373092D01*
X33768355Y-42391237D01*
X33782943Y-42410907D01*
X33795533Y-42431913D01*
X33806004Y-42454051D01*
X33814254Y-42477109D01*
X33820205Y-42500865D01*
X33823798Y-42525090D01*
X33825000Y-42549550D01*
X33825000Y-43450450D01*
X33823798Y-43474910D01*
X33820205Y-43499135D01*
X33814254Y-43522891D01*
X33806004Y-43545949D01*
X33795533Y-43568087D01*
X33782943Y-43589093D01*
X33768355Y-43608763D01*
X33751908Y-43626908D01*
X33733763Y-43643355D01*
X33714093Y-43657943D01*
X33693087Y-43670533D01*
X33670949Y-43681004D01*
X33647891Y-43689254D01*
X33624135Y-43695205D01*
X33599910Y-43698798D01*
X33575450Y-43700000D01*
X32924550Y-43700000D01*
X32900090Y-43698798D01*
X32875865Y-43695205D01*
X32852109Y-43689254D01*
X32829051Y-43681004D01*
X32806913Y-43670533D01*
X32785907Y-43657943D01*
X32766237Y-43643355D01*
X32748092Y-43626908D01*
X32731645Y-43608763D01*
X32717057Y-43589093D01*
X32704467Y-43568087D01*
X32693996Y-43545949D01*
X32685746Y-43522891D01*
X32679795Y-43499135D01*
X32676202Y-43474910D01*
X32675000Y-43450450D01*
X32675000Y-42549550D01*
X32676202Y-42525090D01*
X32679795Y-42500865D01*
X32685746Y-42477109D01*
X32693996Y-42454051D01*
X32704467Y-42431913D01*
X32717057Y-42410907D01*
X32731645Y-42391237D01*
X32748092Y-42373092D01*
X32766237Y-42356645D01*
X32785907Y-42342057D01*
X32806913Y-42329467D01*
X32829051Y-42318996D01*
X32852109Y-42310746D01*
X32875865Y-42304795D01*
X32900090Y-42301202D01*
X32924550Y-42300000D01*
X33575450Y-42300000D01*
X33599910Y-42301202D01*
G37*
G36*
X57099505Y-43401204D02*
G01*
X57123773Y-43404804D01*
X57147572Y-43410765D01*
X57170671Y-43419030D01*
X57192850Y-43429520D01*
X57213893Y-43442132D01*
X57233599Y-43456747D01*
X57251777Y-43473223D01*
X57268253Y-43491401D01*
X57282868Y-43511107D01*
X57295480Y-43532150D01*
X57305970Y-43554329D01*
X57314235Y-43577428D01*
X57320196Y-43601227D01*
X57323796Y-43625495D01*
X57325000Y-43649999D01*
X57325000Y-44550001D01*
X57323796Y-44574505D01*
X57320196Y-44598773D01*
X57314235Y-44622572D01*
X57305970Y-44645671D01*
X57295480Y-44667850D01*
X57282868Y-44688893D01*
X57268253Y-44708599D01*
X57251777Y-44726777D01*
X57233599Y-44743253D01*
X57213893Y-44757868D01*
X57192850Y-44770480D01*
X57170671Y-44780970D01*
X57147572Y-44789235D01*
X57123773Y-44795196D01*
X57099505Y-44798796D01*
X57075001Y-44800000D01*
X56424999Y-44800000D01*
X56400495Y-44798796D01*
X56376227Y-44795196D01*
X56352428Y-44789235D01*
X56329329Y-44780970D01*
X56307150Y-44770480D01*
X56286107Y-44757868D01*
X56266401Y-44743253D01*
X56248223Y-44726777D01*
X56231747Y-44708599D01*
X56217132Y-44688893D01*
X56204520Y-44667850D01*
X56194030Y-44645671D01*
X56185765Y-44622572D01*
X56179804Y-44598773D01*
X56176204Y-44574505D01*
X56175000Y-44550001D01*
X56175000Y-43649999D01*
X56176204Y-43625495D01*
X56179804Y-43601227D01*
X56185765Y-43577428D01*
X56194030Y-43554329D01*
X56204520Y-43532150D01*
X56217132Y-43511107D01*
X56231747Y-43491401D01*
X56248223Y-43473223D01*
X56266401Y-43456747D01*
X56286107Y-43442132D01*
X56307150Y-43429520D01*
X56329329Y-43419030D01*
X56352428Y-43410765D01*
X56376227Y-43404804D01*
X56400495Y-43401204D01*
X56424999Y-43400000D01*
X57075001Y-43400000D01*
X57099505Y-43401204D01*
G37*
G36*
X59149910Y-43401202D02*
G01*
X59174135Y-43404795D01*
X59197891Y-43410746D01*
X59220949Y-43418996D01*
X59243087Y-43429467D01*
X59264093Y-43442057D01*
X59283763Y-43456645D01*
X59301908Y-43473092D01*
X59318355Y-43491237D01*
X59332943Y-43510907D01*
X59345533Y-43531913D01*
X59356004Y-43554051D01*
X59364254Y-43577109D01*
X59370205Y-43600865D01*
X59373798Y-43625090D01*
X59375000Y-43649550D01*
X59375000Y-44550450D01*
X59373798Y-44574910D01*
X59370205Y-44599135D01*
X59364254Y-44622891D01*
X59356004Y-44645949D01*
X59345533Y-44668087D01*
X59332943Y-44689093D01*
X59318355Y-44708763D01*
X59301908Y-44726908D01*
X59283763Y-44743355D01*
X59264093Y-44757943D01*
X59243087Y-44770533D01*
X59220949Y-44781004D01*
X59197891Y-44789254D01*
X59174135Y-44795205D01*
X59149910Y-44798798D01*
X59125450Y-44800000D01*
X58474550Y-44800000D01*
X58450090Y-44798798D01*
X58425865Y-44795205D01*
X58402109Y-44789254D01*
X58379051Y-44781004D01*
X58356913Y-44770533D01*
X58335907Y-44757943D01*
X58316237Y-44743355D01*
X58298092Y-44726908D01*
X58281645Y-44708763D01*
X58267057Y-44689093D01*
X58254467Y-44668087D01*
X58243996Y-44645949D01*
X58235746Y-44622891D01*
X58229795Y-44599135D01*
X58226202Y-44574910D01*
X58225000Y-44550450D01*
X58225000Y-43649550D01*
X58226202Y-43625090D01*
X58229795Y-43600865D01*
X58235746Y-43577109D01*
X58243996Y-43554051D01*
X58254467Y-43531913D01*
X58267057Y-43510907D01*
X58281645Y-43491237D01*
X58298092Y-43473092D01*
X58316237Y-43456645D01*
X58335907Y-43442057D01*
X58356913Y-43429467D01*
X58379051Y-43418996D01*
X58402109Y-43410746D01*
X58425865Y-43404795D01*
X58450090Y-43401202D01*
X58474550Y-43400000D01*
X59125450Y-43400000D01*
X59149910Y-43401202D01*
G37*
G36*
X57074505Y-45801204D02*
G01*
X57098773Y-45804804D01*
X57122572Y-45810765D01*
X57145671Y-45819030D01*
X57167850Y-45829520D01*
X57188893Y-45842132D01*
X57208599Y-45856747D01*
X57226777Y-45873223D01*
X57243253Y-45891401D01*
X57257868Y-45911107D01*
X57270480Y-45932150D01*
X57280970Y-45954329D01*
X57289235Y-45977428D01*
X57295196Y-46001227D01*
X57298796Y-46025495D01*
X57300000Y-46049999D01*
X57300000Y-46950001D01*
X57298796Y-46974505D01*
X57295196Y-46998773D01*
X57289235Y-47022572D01*
X57280970Y-47045671D01*
X57270480Y-47067850D01*
X57257868Y-47088893D01*
X57243253Y-47108599D01*
X57226777Y-47126777D01*
X57208599Y-47143253D01*
X57188893Y-47157868D01*
X57167850Y-47170480D01*
X57145671Y-47180970D01*
X57122572Y-47189235D01*
X57098773Y-47195196D01*
X57074505Y-47198796D01*
X57050001Y-47200000D01*
X56399999Y-47200000D01*
X56375495Y-47198796D01*
X56351227Y-47195196D01*
X56327428Y-47189235D01*
X56304329Y-47180970D01*
X56282150Y-47170480D01*
X56261107Y-47157868D01*
X56241401Y-47143253D01*
X56223223Y-47126777D01*
X56206747Y-47108599D01*
X56192132Y-47088893D01*
X56179520Y-47067850D01*
X56169030Y-47045671D01*
X56160765Y-47022572D01*
X56154804Y-46998773D01*
X56151204Y-46974505D01*
X56150000Y-46950001D01*
X56150000Y-46049999D01*
X56151204Y-46025495D01*
X56154804Y-46001227D01*
X56160765Y-45977428D01*
X56169030Y-45954329D01*
X56179520Y-45932150D01*
X56192132Y-45911107D01*
X56206747Y-45891401D01*
X56223223Y-45873223D01*
X56241401Y-45856747D01*
X56261107Y-45842132D01*
X56282150Y-45829520D01*
X56304329Y-45819030D01*
X56327428Y-45810765D01*
X56351227Y-45804804D01*
X56375495Y-45801204D01*
X56399999Y-45800000D01*
X57050001Y-45800000D01*
X57074505Y-45801204D01*
G37*
G36*
X59124910Y-45801202D02*
G01*
X59149135Y-45804795D01*
X59172891Y-45810746D01*
X59195949Y-45818996D01*
X59218087Y-45829467D01*
X59239093Y-45842057D01*
X59258763Y-45856645D01*
X59276908Y-45873092D01*
X59293355Y-45891237D01*
X59307943Y-45910907D01*
X59320533Y-45931913D01*
X59331004Y-45954051D01*
X59339254Y-45977109D01*
X59345205Y-46000865D01*
X59348798Y-46025090D01*
X59350000Y-46049550D01*
X59350000Y-46950450D01*
X59348798Y-46974910D01*
X59345205Y-46999135D01*
X59339254Y-47022891D01*
X59331004Y-47045949D01*
X59320533Y-47068087D01*
X59307943Y-47089093D01*
X59293355Y-47108763D01*
X59276908Y-47126908D01*
X59258763Y-47143355D01*
X59239093Y-47157943D01*
X59218087Y-47170533D01*
X59195949Y-47181004D01*
X59172891Y-47189254D01*
X59149135Y-47195205D01*
X59124910Y-47198798D01*
X59100450Y-47200000D01*
X58449550Y-47200000D01*
X58425090Y-47198798D01*
X58400865Y-47195205D01*
X58377109Y-47189254D01*
X58354051Y-47181004D01*
X58331913Y-47170533D01*
X58310907Y-47157943D01*
X58291237Y-47143355D01*
X58273092Y-47126908D01*
X58256645Y-47108763D01*
X58242057Y-47089093D01*
X58229467Y-47068087D01*
X58218996Y-47045949D01*
X58210746Y-47022891D01*
X58204795Y-46999135D01*
X58201202Y-46974910D01*
X58200000Y-46950450D01*
X58200000Y-46049550D01*
X58201202Y-46025090D01*
X58204795Y-46000865D01*
X58210746Y-45977109D01*
X58218996Y-45954051D01*
X58229467Y-45931913D01*
X58242057Y-45910907D01*
X58256645Y-45891237D01*
X58273092Y-45873092D01*
X58291237Y-45856645D01*
X58310907Y-45842057D01*
X58331913Y-45829467D01*
X58354051Y-45818996D01*
X58377109Y-45810746D01*
X58400865Y-45804795D01*
X58425090Y-45801202D01*
X58449550Y-45800000D01*
X59100450Y-45800000D01*
X59124910Y-45801202D01*
G37*
M02*
