G04 #@! TF.GenerationSoftware,KiCad,Pcbnew,(5.1.5-0-10_14)*
G04 #@! TF.CreationDate,2020-04-26T21:59:26+02:00*
G04 #@! TF.ProjectId,minimal,6d696e69-6d61-46c2-9e6b-696361645f70,rev?*
G04 #@! TF.SameCoordinates,Original*
G04 #@! TF.FileFunction,Copper,L2,Bot*
G04 #@! TF.FilePolarity,Positive*
%FSLAX46Y46*%
G04 Gerber Fmt 4.6, Leading zero omitted, Abs format (unit mm)*
G04 Created by KiCad (PCBNEW (5.1.5-0-10_14)) date 2020-04-26 21:59:26*
%MOMM*%
%LPD*%
G04 APERTURE LIST*
%ADD10O,1.700000X1.700000*%
%ADD11R,1.700000X1.700000*%
%ADD12C,1.500000*%
%ADD13R,1.350000X1.800000*%
%ADD14C,1.350000*%
%ADD15C,0.800000*%
%ADD16C,0.250000*%
%ADD17C,0.254000*%
G04 APERTURE END LIST*
D10*
X47130000Y-66040000D03*
X47130000Y-63500000D03*
X49670000Y-66040000D03*
X49670000Y-63500000D03*
X52210000Y-66040000D03*
X52210000Y-63500000D03*
X54750000Y-66040000D03*
X54750000Y-63500000D03*
X57290000Y-66040000D03*
D11*
X57290000Y-63500000D03*
D10*
X42440000Y-64500000D03*
D11*
X39900000Y-64500000D03*
D10*
X61600000Y-42080000D03*
X61600000Y-44620000D03*
X61600000Y-47160000D03*
D11*
X61600000Y-49700000D03*
D12*
X53000000Y-48630000D03*
X53000000Y-43750000D03*
D13*
X37000000Y-58250000D03*
X39000000Y-58250000D03*
X41000000Y-58250000D03*
X43000000Y-58250000D03*
X45000000Y-58250000D03*
X47000000Y-58250000D03*
X49000000Y-58250000D03*
D14*
X37000000Y-57250000D03*
X39000000Y-57250000D03*
X41000000Y-57250000D03*
X43000000Y-57250000D03*
X45000000Y-57250000D03*
X47000000Y-57250000D03*
X49000000Y-57250000D03*
D13*
X35000000Y-58250000D03*
D14*
X35000000Y-57250000D03*
D10*
X28600000Y-42060000D03*
X28600000Y-44600000D03*
X28600000Y-47140000D03*
X28600000Y-49680000D03*
X28600000Y-52220000D03*
X28600000Y-54760000D03*
X28600000Y-57300000D03*
D11*
X28600000Y-59840000D03*
D10*
X66300000Y-42040000D03*
X66300000Y-44580000D03*
X66300000Y-47120000D03*
X66300000Y-49660000D03*
X66300000Y-52200000D03*
D11*
X66300000Y-54740000D03*
D15*
X30500000Y-49100000D03*
X32400000Y-65300000D03*
X27500000Y-65300000D03*
X64600000Y-66700000D03*
X31900000Y-54400000D03*
X41000000Y-55000000D03*
X55800000Y-57900000D03*
X59100000Y-42700000D03*
X63700000Y-57900000D03*
X58800000Y-47900000D03*
X60200000Y-52400000D03*
X41502934Y-43150012D03*
X40800000Y-60600000D03*
X46900000Y-41000000D03*
X51700000Y-53900000D03*
X38100000Y-53900000D03*
X46500000Y-52700000D03*
X42600000Y-55000000D03*
X32200000Y-43800000D03*
X35300000Y-44700000D03*
X30800000Y-46800000D03*
X34600000Y-51100000D03*
X37400000Y-60700000D03*
X36300000Y-51200000D03*
X50100000Y-56199994D03*
X41900000Y-46100000D03*
X42900000Y-46100000D03*
X48250000Y-45250000D03*
X47000000Y-44300000D03*
X45100000Y-46400000D03*
X34500000Y-60000000D03*
X44900000Y-49774990D03*
X45000000Y-48699998D03*
X64600000Y-62200000D03*
X37700000Y-52600000D03*
X45100000Y-47600000D03*
D16*
X47000000Y-57250000D02*
X47000000Y-58250000D01*
X35900001Y-51599999D02*
X36300000Y-51200000D01*
X35900001Y-51999999D02*
X35900001Y-51599999D01*
X33549988Y-54350012D02*
X35900001Y-51999999D01*
X33549988Y-60949988D02*
X33549988Y-54350012D01*
X51034999Y-64675001D02*
X46575001Y-64675001D01*
X34700000Y-62100000D02*
X33549988Y-60949988D01*
X44000000Y-62100000D02*
X34700000Y-62100000D01*
X46575001Y-64675001D02*
X44000000Y-62100000D01*
X52210000Y-63500000D02*
X51034999Y-64675001D01*
X49000000Y-57250000D02*
X49000000Y-58250000D01*
X49000000Y-57250000D02*
X50050006Y-56199994D01*
X50050006Y-56199994D02*
X50100000Y-56199994D01*
X45300835Y-42133480D02*
X41900000Y-45534315D01*
X41900000Y-45534315D02*
X41900000Y-46100000D01*
X66300000Y-49660000D02*
X62460000Y-53500000D01*
X62460000Y-53500000D02*
X54300000Y-53500000D01*
X54300000Y-53500000D02*
X50900000Y-50100000D01*
X50900000Y-50100000D02*
X50900000Y-43955313D01*
X50900000Y-43955313D02*
X49078167Y-42133480D01*
X49078167Y-42133480D02*
X45300835Y-42133480D01*
X42900000Y-45534315D02*
X42900000Y-46100000D01*
X45662554Y-42591624D02*
X42900000Y-45354178D01*
X50408377Y-44111919D02*
X48888082Y-42591624D01*
X50408377Y-50271967D02*
X50408377Y-44111919D01*
X54136410Y-54000000D02*
X50408377Y-50271967D01*
X42900000Y-45354178D02*
X42900000Y-45534315D01*
X64600000Y-52200000D02*
X62800000Y-54000000D01*
X48888082Y-42591624D02*
X45662554Y-42591624D01*
X62800000Y-54000000D02*
X54136410Y-54000000D01*
X66300000Y-52200000D02*
X64600000Y-52200000D01*
X45230000Y-61600000D02*
X47130000Y-63500000D01*
X44100000Y-61600000D02*
X45230000Y-61600000D01*
X41000000Y-58500000D02*
X44100000Y-61600000D01*
X41000000Y-57250000D02*
X41000000Y-58500000D01*
X42450012Y-55799988D02*
X41674999Y-56575001D01*
X45100012Y-55799988D02*
X42450012Y-55799988D01*
X41674999Y-56575001D02*
X41000000Y-57250000D01*
X48250000Y-52650000D02*
X45100012Y-55799988D01*
X48250000Y-45250000D02*
X48250000Y-52650000D01*
X43000000Y-58250000D02*
X43000000Y-57250000D01*
X47244999Y-61074999D02*
X49670000Y-63500000D01*
X44274999Y-61074999D02*
X47244999Y-61074999D01*
X43000000Y-59800000D02*
X44274999Y-61074999D01*
X43000000Y-58250000D02*
X43000000Y-59800000D01*
X43000000Y-56900000D02*
X43000000Y-57250000D01*
X45350001Y-56249999D02*
X43650001Y-56249999D01*
X48373002Y-44300000D02*
X49000000Y-44926998D01*
X49000000Y-52600000D02*
X45350001Y-56249999D01*
X43650001Y-56249999D02*
X43000000Y-56900000D01*
X49000000Y-44926998D02*
X49000000Y-52600000D01*
X47000000Y-44300000D02*
X48373002Y-44300000D01*
X45000000Y-57250000D02*
X45000000Y-58250000D01*
X45624989Y-60624989D02*
X56764989Y-60624989D01*
X45000000Y-60000000D02*
X45624989Y-60624989D01*
X45000000Y-58250000D02*
X45000000Y-60000000D01*
X57290000Y-61150000D02*
X57290000Y-63500000D01*
X56764989Y-60624989D02*
X57290000Y-61150000D01*
X49450011Y-44550011D02*
X48400000Y-43500000D01*
X45951999Y-43574999D02*
X45100000Y-44426998D01*
X45000000Y-57250000D02*
X49450011Y-52799989D01*
X48400000Y-43500000D02*
X45951999Y-43574999D01*
X45100000Y-44426998D02*
X45100000Y-45834315D01*
X45100000Y-45834315D02*
X45100000Y-46400000D01*
X49450011Y-52799989D02*
X49450011Y-44550011D01*
X33999999Y-59410001D02*
X34064999Y-59475001D01*
X33999999Y-59499999D02*
X34500000Y-60000000D01*
X33999999Y-59410001D02*
X33999999Y-59499999D01*
X33999999Y-54573005D02*
X38798014Y-49774990D01*
X33999999Y-59410001D02*
X33999999Y-54573005D01*
X38798014Y-49774990D02*
X44334315Y-49774990D01*
X44334315Y-49774990D02*
X44900000Y-49774990D01*
X64034315Y-62200000D02*
X64600000Y-62200000D01*
X60200000Y-62200000D02*
X62100000Y-62200000D01*
X58174979Y-60174979D02*
X60200000Y-62200000D01*
X44112338Y-47812336D02*
X44112338Y-44778250D01*
X51000000Y-58800000D02*
X52374979Y-60174979D01*
X51000000Y-55473002D02*
X51000000Y-58800000D01*
X48688175Y-43044493D02*
X49908356Y-44264674D01*
X45846095Y-43044493D02*
X48688175Y-43044493D01*
X49908356Y-54381358D02*
X51000000Y-55473002D01*
X44112338Y-44778250D02*
X45846095Y-43044493D01*
X45000000Y-48699998D02*
X44112338Y-47812336D01*
X49908356Y-44264674D02*
X49908356Y-54381358D01*
X62100000Y-62200000D02*
X64034315Y-62200000D01*
X52374979Y-60174979D02*
X58174979Y-60174979D01*
X61700000Y-62200000D02*
X62100000Y-62200000D01*
X37000000Y-57250000D02*
X37000000Y-58250000D01*
X35000000Y-54900000D02*
X37300000Y-52600000D01*
X37300000Y-52600000D02*
X37700000Y-52600000D01*
X37000000Y-57250000D02*
X35000000Y-55250000D01*
X35000000Y-55250000D02*
X35000000Y-54900000D01*
X35000000Y-57250000D02*
X35000000Y-58250000D01*
X34500000Y-55795406D02*
X35000000Y-56295406D01*
X34500000Y-54709415D02*
X34500000Y-55795406D01*
X45800000Y-50100000D02*
X45400000Y-50500000D01*
X45800000Y-48300000D02*
X45800000Y-50100000D01*
X45100000Y-47600000D02*
X45800000Y-48300000D01*
X45400000Y-50500000D02*
X38709415Y-50500000D01*
X35000000Y-56295406D02*
X35000000Y-57250000D01*
X38709415Y-50500000D02*
X34500000Y-54709415D01*
X39000000Y-57250000D02*
X39000000Y-58250000D01*
D17*
G36*
X69041178Y-67340000D02*
G01*
X58017342Y-67340000D01*
X58236632Y-67193475D01*
X58443475Y-66986632D01*
X58605990Y-66743411D01*
X58717932Y-66473158D01*
X58775000Y-66186260D01*
X58775000Y-65893740D01*
X58717932Y-65606842D01*
X58605990Y-65336589D01*
X58443475Y-65093368D01*
X58311620Y-64961513D01*
X58384180Y-64939502D01*
X58494494Y-64880537D01*
X58591185Y-64801185D01*
X58670537Y-64704494D01*
X58729502Y-64594180D01*
X58765812Y-64474482D01*
X58778072Y-64350000D01*
X58778072Y-62650000D01*
X58765812Y-62525518D01*
X58729502Y-62405820D01*
X58670537Y-62295506D01*
X58591185Y-62198815D01*
X58494494Y-62119463D01*
X58384180Y-62060498D01*
X58264482Y-62024188D01*
X58140000Y-62011928D01*
X58050000Y-62011928D01*
X58050000Y-61187325D01*
X58053676Y-61150000D01*
X58051325Y-61126126D01*
X59636201Y-62711003D01*
X59659999Y-62740001D01*
X59775724Y-62834974D01*
X59907753Y-62905546D01*
X60051014Y-62949003D01*
X60162667Y-62960000D01*
X60162676Y-62960000D01*
X60199999Y-62963676D01*
X60237322Y-62960000D01*
X63896289Y-62960000D01*
X63940226Y-63003937D01*
X64109744Y-63117205D01*
X64298102Y-63195226D01*
X64498061Y-63235000D01*
X64701939Y-63235000D01*
X64901898Y-63195226D01*
X65090256Y-63117205D01*
X65259774Y-63003937D01*
X65403937Y-62859774D01*
X65517205Y-62690256D01*
X65595226Y-62501898D01*
X65635000Y-62301939D01*
X65635000Y-62098061D01*
X65595226Y-61898102D01*
X65517205Y-61709744D01*
X65403937Y-61540226D01*
X65259774Y-61396063D01*
X65090256Y-61282795D01*
X64901898Y-61204774D01*
X64701939Y-61165000D01*
X64498061Y-61165000D01*
X64298102Y-61204774D01*
X64109744Y-61282795D01*
X63940226Y-61396063D01*
X63896289Y-61440000D01*
X60514802Y-61440000D01*
X58738783Y-59663982D01*
X58714980Y-59634978D01*
X58599255Y-59540005D01*
X58467226Y-59469433D01*
X58323965Y-59425976D01*
X58212312Y-59414979D01*
X58212301Y-59414979D01*
X58174979Y-59411303D01*
X58137657Y-59414979D01*
X52689781Y-59414979D01*
X51760000Y-58485199D01*
X51760000Y-55510327D01*
X51763676Y-55473002D01*
X51760000Y-55435677D01*
X51760000Y-55435669D01*
X51749003Y-55324016D01*
X51705546Y-55180755D01*
X51634974Y-55048726D01*
X51540001Y-54933001D01*
X51511004Y-54909204D01*
X50668356Y-54066557D01*
X50668356Y-51606747D01*
X53572611Y-54511003D01*
X53596409Y-54540001D01*
X53712134Y-54634974D01*
X53844163Y-54705546D01*
X53987424Y-54749003D01*
X54099077Y-54760000D01*
X54099087Y-54760000D01*
X54136410Y-54763676D01*
X54173733Y-54760000D01*
X62762678Y-54760000D01*
X62800000Y-54763676D01*
X62837322Y-54760000D01*
X62837333Y-54760000D01*
X62948986Y-54749003D01*
X63092247Y-54705546D01*
X63224276Y-54634974D01*
X63340001Y-54540001D01*
X63363803Y-54510998D01*
X64914803Y-52960000D01*
X65021822Y-52960000D01*
X65146525Y-53146632D01*
X65278380Y-53278487D01*
X65205820Y-53300498D01*
X65095506Y-53359463D01*
X64998815Y-53438815D01*
X64919463Y-53535506D01*
X64860498Y-53645820D01*
X64824188Y-53765518D01*
X64811928Y-53890000D01*
X64811928Y-55590000D01*
X64824188Y-55714482D01*
X64860498Y-55834180D01*
X64919463Y-55944494D01*
X64998815Y-56041185D01*
X65095506Y-56120537D01*
X65205820Y-56179502D01*
X65325518Y-56215812D01*
X65450000Y-56228072D01*
X67150000Y-56228072D01*
X67274482Y-56215812D01*
X67394180Y-56179502D01*
X67504494Y-56120537D01*
X67601185Y-56041185D01*
X67680537Y-55944494D01*
X67739502Y-55834180D01*
X67775812Y-55714482D01*
X67788072Y-55590000D01*
X67788072Y-53890000D01*
X67775812Y-53765518D01*
X67739502Y-53645820D01*
X67680537Y-53535506D01*
X67601185Y-53438815D01*
X67504494Y-53359463D01*
X67394180Y-53300498D01*
X67321620Y-53278487D01*
X67453475Y-53146632D01*
X67615990Y-52903411D01*
X67727932Y-52633158D01*
X67785000Y-52346260D01*
X67785000Y-52053740D01*
X67727932Y-51766842D01*
X67615990Y-51496589D01*
X67453475Y-51253368D01*
X67246632Y-51046525D01*
X67072240Y-50930000D01*
X67246632Y-50813475D01*
X67453475Y-50606632D01*
X67615990Y-50363411D01*
X67727932Y-50093158D01*
X67785000Y-49806260D01*
X67785000Y-49513740D01*
X67727932Y-49226842D01*
X67615990Y-48956589D01*
X67453475Y-48713368D01*
X67246632Y-48506525D01*
X67072240Y-48390000D01*
X67246632Y-48273475D01*
X67453475Y-48066632D01*
X67615990Y-47823411D01*
X67727932Y-47553158D01*
X67785000Y-47266260D01*
X67785000Y-46973740D01*
X67727932Y-46686842D01*
X67615990Y-46416589D01*
X67453475Y-46173368D01*
X67246632Y-45966525D01*
X67072240Y-45850000D01*
X67246632Y-45733475D01*
X67453475Y-45526632D01*
X67615990Y-45283411D01*
X67727932Y-45013158D01*
X67785000Y-44726260D01*
X67785000Y-44433740D01*
X67727932Y-44146842D01*
X67615990Y-43876589D01*
X67453475Y-43633368D01*
X67246632Y-43426525D01*
X67003411Y-43264010D01*
X66733158Y-43152068D01*
X66446260Y-43095000D01*
X66153740Y-43095000D01*
X65866842Y-43152068D01*
X65596589Y-43264010D01*
X65353368Y-43426525D01*
X65146525Y-43633368D01*
X64984010Y-43876589D01*
X64872068Y-44146842D01*
X64815000Y-44433740D01*
X64815000Y-44726260D01*
X64872068Y-45013158D01*
X64984010Y-45283411D01*
X65146525Y-45526632D01*
X65353368Y-45733475D01*
X65527760Y-45850000D01*
X65353368Y-45966525D01*
X65146525Y-46173368D01*
X64984010Y-46416589D01*
X64872068Y-46686842D01*
X64815000Y-46973740D01*
X64815000Y-47266260D01*
X64872068Y-47553158D01*
X64984010Y-47823411D01*
X65146525Y-48066632D01*
X65353368Y-48273475D01*
X65527760Y-48390000D01*
X65353368Y-48506525D01*
X65146525Y-48713368D01*
X64984010Y-48956589D01*
X64872068Y-49226842D01*
X64815000Y-49513740D01*
X64815000Y-49806260D01*
X64858790Y-50026408D01*
X62145199Y-52740000D01*
X54614802Y-52740000D01*
X52424802Y-50550000D01*
X60111928Y-50550000D01*
X60124188Y-50674482D01*
X60160498Y-50794180D01*
X60219463Y-50904494D01*
X60298815Y-51001185D01*
X60395506Y-51080537D01*
X60505820Y-51139502D01*
X60625518Y-51175812D01*
X60750000Y-51188072D01*
X61314250Y-51185000D01*
X61473000Y-51026250D01*
X61473000Y-49827000D01*
X61727000Y-49827000D01*
X61727000Y-51026250D01*
X61885750Y-51185000D01*
X62450000Y-51188072D01*
X62574482Y-51175812D01*
X62694180Y-51139502D01*
X62804494Y-51080537D01*
X62901185Y-51001185D01*
X62980537Y-50904494D01*
X63039502Y-50794180D01*
X63075812Y-50674482D01*
X63088072Y-50550000D01*
X63085000Y-49985750D01*
X62926250Y-49827000D01*
X61727000Y-49827000D01*
X61473000Y-49827000D01*
X60273750Y-49827000D01*
X60115000Y-49985750D01*
X60111928Y-50550000D01*
X52424802Y-50550000D01*
X51660000Y-49785199D01*
X51660000Y-48992639D01*
X51668225Y-49033989D01*
X51772629Y-49286043D01*
X51924201Y-49512886D01*
X52117114Y-49705799D01*
X52343957Y-49857371D01*
X52596011Y-49961775D01*
X52863589Y-50015000D01*
X53136411Y-50015000D01*
X53403989Y-49961775D01*
X53656043Y-49857371D01*
X53882886Y-49705799D01*
X54075799Y-49512886D01*
X54227371Y-49286043D01*
X54331775Y-49033989D01*
X54368372Y-48850000D01*
X60111928Y-48850000D01*
X60115000Y-49414250D01*
X60273750Y-49573000D01*
X61473000Y-49573000D01*
X61473000Y-49553000D01*
X61727000Y-49553000D01*
X61727000Y-49573000D01*
X62926250Y-49573000D01*
X63085000Y-49414250D01*
X63088072Y-48850000D01*
X63075812Y-48725518D01*
X63039502Y-48605820D01*
X62980537Y-48495506D01*
X62901185Y-48398815D01*
X62804494Y-48319463D01*
X62694180Y-48260498D01*
X62621620Y-48238487D01*
X62753475Y-48106632D01*
X62915990Y-47863411D01*
X63027932Y-47593158D01*
X63085000Y-47306260D01*
X63085000Y-47013740D01*
X63027932Y-46726842D01*
X62915990Y-46456589D01*
X62753475Y-46213368D01*
X62546632Y-46006525D01*
X62372240Y-45890000D01*
X62546632Y-45773475D01*
X62753475Y-45566632D01*
X62915990Y-45323411D01*
X63027932Y-45053158D01*
X63085000Y-44766260D01*
X63085000Y-44473740D01*
X63027932Y-44186842D01*
X62915990Y-43916589D01*
X62753475Y-43673368D01*
X62546632Y-43466525D01*
X62303411Y-43304010D01*
X62033158Y-43192068D01*
X61746260Y-43135000D01*
X61453740Y-43135000D01*
X61166842Y-43192068D01*
X60896589Y-43304010D01*
X60653368Y-43466525D01*
X60446525Y-43673368D01*
X60284010Y-43916589D01*
X60172068Y-44186842D01*
X60115000Y-44473740D01*
X60115000Y-44766260D01*
X60172068Y-45053158D01*
X60284010Y-45323411D01*
X60446525Y-45566632D01*
X60653368Y-45773475D01*
X60827760Y-45890000D01*
X60653368Y-46006525D01*
X60446525Y-46213368D01*
X60284010Y-46456589D01*
X60172068Y-46726842D01*
X60115000Y-47013740D01*
X60115000Y-47306260D01*
X60172068Y-47593158D01*
X60284010Y-47863411D01*
X60446525Y-48106632D01*
X60578380Y-48238487D01*
X60505820Y-48260498D01*
X60395506Y-48319463D01*
X60298815Y-48398815D01*
X60219463Y-48495506D01*
X60160498Y-48605820D01*
X60124188Y-48725518D01*
X60111928Y-48850000D01*
X54368372Y-48850000D01*
X54385000Y-48766411D01*
X54385000Y-48493589D01*
X54331775Y-48226011D01*
X54227371Y-47973957D01*
X54075799Y-47747114D01*
X53882886Y-47554201D01*
X53656043Y-47402629D01*
X53403989Y-47298225D01*
X53136411Y-47245000D01*
X52863589Y-47245000D01*
X52596011Y-47298225D01*
X52343957Y-47402629D01*
X52117114Y-47554201D01*
X51924201Y-47747114D01*
X51772629Y-47973957D01*
X51668225Y-48226011D01*
X51660000Y-48267361D01*
X51660000Y-44112639D01*
X51668225Y-44153989D01*
X51772629Y-44406043D01*
X51924201Y-44632886D01*
X52117114Y-44825799D01*
X52343957Y-44977371D01*
X52596011Y-45081775D01*
X52863589Y-45135000D01*
X53136411Y-45135000D01*
X53403989Y-45081775D01*
X53656043Y-44977371D01*
X53882886Y-44825799D01*
X54075799Y-44632886D01*
X54227371Y-44406043D01*
X54331775Y-44153989D01*
X54385000Y-43886411D01*
X54385000Y-43613589D01*
X54331775Y-43346011D01*
X54227371Y-43093957D01*
X54075799Y-42867114D01*
X53882886Y-42674201D01*
X53656043Y-42522629D01*
X53403989Y-42418225D01*
X53136411Y-42365000D01*
X52863589Y-42365000D01*
X52596011Y-42418225D01*
X52343957Y-42522629D01*
X52117114Y-42674201D01*
X51924201Y-42867114D01*
X51772629Y-43093957D01*
X51668225Y-43346011D01*
X51615000Y-43613589D01*
X51615000Y-43694232D01*
X51605546Y-43663066D01*
X51572326Y-43600916D01*
X51534974Y-43531036D01*
X51463799Y-43444310D01*
X51440001Y-43415312D01*
X51411003Y-43391514D01*
X49641971Y-41622483D01*
X49618168Y-41593479D01*
X49502443Y-41498506D01*
X49370414Y-41427934D01*
X49227153Y-41384477D01*
X49115500Y-41373480D01*
X49115489Y-41373480D01*
X49078167Y-41369804D01*
X49040845Y-41373480D01*
X45338157Y-41373480D01*
X45300835Y-41369804D01*
X45263512Y-41373480D01*
X45263502Y-41373480D01*
X45151849Y-41384477D01*
X45008588Y-41427934D01*
X44876558Y-41498506D01*
X44792918Y-41567148D01*
X44760834Y-41593479D01*
X44737036Y-41622477D01*
X41389003Y-44970511D01*
X41359999Y-44994314D01*
X41306092Y-45060000D01*
X41265026Y-45110039D01*
X41217293Y-45199341D01*
X41194454Y-45242069D01*
X41151014Y-45385275D01*
X41096063Y-45440226D01*
X40982795Y-45609744D01*
X40904774Y-45798102D01*
X40865000Y-45998061D01*
X40865000Y-46201939D01*
X40904774Y-46401898D01*
X40982795Y-46590256D01*
X41096063Y-46759774D01*
X41240226Y-46903937D01*
X41409744Y-47017205D01*
X41598102Y-47095226D01*
X41798061Y-47135000D01*
X42001939Y-47135000D01*
X42201898Y-47095226D01*
X42390256Y-47017205D01*
X42400000Y-47010694D01*
X42409744Y-47017205D01*
X42598102Y-47095226D01*
X42798061Y-47135000D01*
X43001939Y-47135000D01*
X43201898Y-47095226D01*
X43352338Y-47032911D01*
X43352338Y-47775013D01*
X43348662Y-47812336D01*
X43352338Y-47849658D01*
X43352338Y-47849668D01*
X43363335Y-47961321D01*
X43382432Y-48024276D01*
X43406792Y-48104582D01*
X43477364Y-48236612D01*
X43490049Y-48252068D01*
X43572337Y-48352337D01*
X43601340Y-48376139D01*
X43965000Y-48739799D01*
X43965000Y-48801937D01*
X44004774Y-49001896D01*
X44010198Y-49014990D01*
X38835337Y-49014990D01*
X38798014Y-49011314D01*
X38760691Y-49014990D01*
X38760681Y-49014990D01*
X38649028Y-49025987D01*
X38524782Y-49063676D01*
X38505767Y-49069444D01*
X38373737Y-49140016D01*
X38312523Y-49190254D01*
X38258013Y-49234989D01*
X38234215Y-49263987D01*
X37030957Y-50467246D01*
X36959774Y-50396063D01*
X36790256Y-50282795D01*
X36601898Y-50204774D01*
X36401939Y-50165000D01*
X36198061Y-50165000D01*
X35998102Y-50204774D01*
X35809744Y-50282795D01*
X35640226Y-50396063D01*
X35496063Y-50540226D01*
X35382795Y-50709744D01*
X35304774Y-50898102D01*
X35265000Y-51098061D01*
X35265000Y-51175774D01*
X35194455Y-51307752D01*
X35150998Y-51451013D01*
X35140001Y-51562666D01*
X35140001Y-51562677D01*
X35136325Y-51599999D01*
X35140001Y-51637321D01*
X35140001Y-51685197D01*
X33038986Y-53786213D01*
X33009988Y-53810011D01*
X32986190Y-53839009D01*
X32986189Y-53839010D01*
X32915014Y-53925736D01*
X32844442Y-54057766D01*
X32839384Y-54074441D01*
X32800986Y-54201026D01*
X32792701Y-54285140D01*
X32786312Y-54350012D01*
X32789989Y-54387344D01*
X32789988Y-60912665D01*
X32786312Y-60949988D01*
X32789988Y-60987310D01*
X32789988Y-60987320D01*
X32800985Y-61098973D01*
X32838906Y-61223984D01*
X32844442Y-61242234D01*
X32915014Y-61374264D01*
X32954859Y-61422814D01*
X33009987Y-61489989D01*
X33038991Y-61513792D01*
X34136200Y-62611002D01*
X34159999Y-62640001D01*
X34275724Y-62734974D01*
X34407753Y-62805546D01*
X34551014Y-62849003D01*
X34660373Y-62859774D01*
X34700000Y-62863677D01*
X34737333Y-62860000D01*
X43685199Y-62860000D01*
X45958061Y-65132863D01*
X45934822Y-65158645D01*
X45785843Y-65408748D01*
X45688519Y-65683109D01*
X45809186Y-65913000D01*
X47003000Y-65913000D01*
X47003000Y-65893000D01*
X47257000Y-65893000D01*
X47257000Y-65913000D01*
X49543000Y-65913000D01*
X49543000Y-65893000D01*
X49797000Y-65893000D01*
X49797000Y-65913000D01*
X52083000Y-65913000D01*
X52083000Y-65893000D01*
X52337000Y-65893000D01*
X52337000Y-65913000D01*
X54623000Y-65913000D01*
X54623000Y-65893000D01*
X54877000Y-65893000D01*
X54877000Y-65913000D01*
X54897000Y-65913000D01*
X54897000Y-66167000D01*
X54877000Y-66167000D01*
X54877000Y-66187000D01*
X54623000Y-66187000D01*
X54623000Y-66167000D01*
X52337000Y-66167000D01*
X52337000Y-66187000D01*
X52083000Y-66187000D01*
X52083000Y-66167000D01*
X49797000Y-66167000D01*
X49797000Y-66187000D01*
X49543000Y-66187000D01*
X49543000Y-66167000D01*
X47257000Y-66167000D01*
X47257000Y-66187000D01*
X47003000Y-66187000D01*
X47003000Y-66167000D01*
X45809186Y-66167000D01*
X45688519Y-66396891D01*
X45785843Y-66671252D01*
X45934822Y-66921355D01*
X46129731Y-67137588D01*
X46363080Y-67311641D01*
X46422619Y-67340000D01*
X27410000Y-67340000D01*
X27410000Y-63650000D01*
X38411928Y-63650000D01*
X38411928Y-65350000D01*
X38424188Y-65474482D01*
X38460498Y-65594180D01*
X38519463Y-65704494D01*
X38598815Y-65801185D01*
X38695506Y-65880537D01*
X38805820Y-65939502D01*
X38925518Y-65975812D01*
X39050000Y-65988072D01*
X40750000Y-65988072D01*
X40874482Y-65975812D01*
X40994180Y-65939502D01*
X41104494Y-65880537D01*
X41201185Y-65801185D01*
X41280537Y-65704494D01*
X41339502Y-65594180D01*
X41363966Y-65513534D01*
X41439731Y-65597588D01*
X41673080Y-65771641D01*
X41935901Y-65896825D01*
X42083110Y-65941476D01*
X42313000Y-65820155D01*
X42313000Y-64627000D01*
X42567000Y-64627000D01*
X42567000Y-65820155D01*
X42796890Y-65941476D01*
X42944099Y-65896825D01*
X43206920Y-65771641D01*
X43440269Y-65597588D01*
X43635178Y-65381355D01*
X43784157Y-65131252D01*
X43881481Y-64856891D01*
X43760814Y-64627000D01*
X42567000Y-64627000D01*
X42313000Y-64627000D01*
X42293000Y-64627000D01*
X42293000Y-64373000D01*
X42313000Y-64373000D01*
X42313000Y-63179845D01*
X42567000Y-63179845D01*
X42567000Y-64373000D01*
X43760814Y-64373000D01*
X43881481Y-64143109D01*
X43784157Y-63868748D01*
X43635178Y-63618645D01*
X43440269Y-63402412D01*
X43206920Y-63228359D01*
X42944099Y-63103175D01*
X42796890Y-63058524D01*
X42567000Y-63179845D01*
X42313000Y-63179845D01*
X42083110Y-63058524D01*
X41935901Y-63103175D01*
X41673080Y-63228359D01*
X41439731Y-63402412D01*
X41363966Y-63486466D01*
X41339502Y-63405820D01*
X41280537Y-63295506D01*
X41201185Y-63198815D01*
X41104494Y-63119463D01*
X40994180Y-63060498D01*
X40874482Y-63024188D01*
X40750000Y-63011928D01*
X39050000Y-63011928D01*
X38925518Y-63024188D01*
X38805820Y-63060498D01*
X38695506Y-63119463D01*
X38598815Y-63198815D01*
X38519463Y-63295506D01*
X38460498Y-63405820D01*
X38424188Y-63525518D01*
X38411928Y-63650000D01*
X27410000Y-63650000D01*
X27410000Y-61228284D01*
X27505820Y-61279502D01*
X27625518Y-61315812D01*
X27750000Y-61328072D01*
X29450000Y-61328072D01*
X29574482Y-61315812D01*
X29694180Y-61279502D01*
X29804494Y-61220537D01*
X29901185Y-61141185D01*
X29980537Y-61044494D01*
X30039502Y-60934180D01*
X30075812Y-60814482D01*
X30088072Y-60690000D01*
X30088072Y-58990000D01*
X30075812Y-58865518D01*
X30039502Y-58745820D01*
X29980537Y-58635506D01*
X29901185Y-58538815D01*
X29804494Y-58459463D01*
X29694180Y-58400498D01*
X29621620Y-58378487D01*
X29753475Y-58246632D01*
X29915990Y-58003411D01*
X30027932Y-57733158D01*
X30085000Y-57446260D01*
X30085000Y-57153740D01*
X30027932Y-56866842D01*
X29915990Y-56596589D01*
X29753475Y-56353368D01*
X29546632Y-56146525D01*
X29372240Y-56030000D01*
X29546632Y-55913475D01*
X29753475Y-55706632D01*
X29915990Y-55463411D01*
X30027932Y-55193158D01*
X30085000Y-54906260D01*
X30085000Y-54613740D01*
X30027932Y-54326842D01*
X29915990Y-54056589D01*
X29753475Y-53813368D01*
X29546632Y-53606525D01*
X29372240Y-53490000D01*
X29546632Y-53373475D01*
X29753475Y-53166632D01*
X29915990Y-52923411D01*
X30027932Y-52653158D01*
X30085000Y-52366260D01*
X30085000Y-52073740D01*
X30027932Y-51786842D01*
X29915990Y-51516589D01*
X29753475Y-51273368D01*
X29546632Y-51066525D01*
X29372240Y-50950000D01*
X29546632Y-50833475D01*
X29753475Y-50626632D01*
X29915990Y-50383411D01*
X30027932Y-50113158D01*
X30085000Y-49826260D01*
X30085000Y-49533740D01*
X30027932Y-49246842D01*
X29915990Y-48976589D01*
X29753475Y-48733368D01*
X29546632Y-48526525D01*
X29372240Y-48410000D01*
X29546632Y-48293475D01*
X29753475Y-48086632D01*
X29915990Y-47843411D01*
X30027932Y-47573158D01*
X30085000Y-47286260D01*
X30085000Y-46993740D01*
X30027932Y-46706842D01*
X29915990Y-46436589D01*
X29753475Y-46193368D01*
X29546632Y-45986525D01*
X29372240Y-45870000D01*
X29546632Y-45753475D01*
X29753475Y-45546632D01*
X29915990Y-45303411D01*
X30027932Y-45033158D01*
X30085000Y-44746260D01*
X30085000Y-44453740D01*
X30027932Y-44166842D01*
X29915990Y-43896589D01*
X29753475Y-43653368D01*
X29546632Y-43446525D01*
X29372240Y-43330000D01*
X29546632Y-43213475D01*
X29753475Y-43006632D01*
X29915990Y-42763411D01*
X30027932Y-42493158D01*
X30085000Y-42206260D01*
X30085000Y-41913740D01*
X30027932Y-41626842D01*
X29915990Y-41356589D01*
X29753475Y-41113368D01*
X29546632Y-40906525D01*
X29303411Y-40744010D01*
X29100592Y-40660000D01*
X69088820Y-40660000D01*
X69041178Y-67340000D01*
G37*
X69041178Y-67340000D02*
X58017342Y-67340000D01*
X58236632Y-67193475D01*
X58443475Y-66986632D01*
X58605990Y-66743411D01*
X58717932Y-66473158D01*
X58775000Y-66186260D01*
X58775000Y-65893740D01*
X58717932Y-65606842D01*
X58605990Y-65336589D01*
X58443475Y-65093368D01*
X58311620Y-64961513D01*
X58384180Y-64939502D01*
X58494494Y-64880537D01*
X58591185Y-64801185D01*
X58670537Y-64704494D01*
X58729502Y-64594180D01*
X58765812Y-64474482D01*
X58778072Y-64350000D01*
X58778072Y-62650000D01*
X58765812Y-62525518D01*
X58729502Y-62405820D01*
X58670537Y-62295506D01*
X58591185Y-62198815D01*
X58494494Y-62119463D01*
X58384180Y-62060498D01*
X58264482Y-62024188D01*
X58140000Y-62011928D01*
X58050000Y-62011928D01*
X58050000Y-61187325D01*
X58053676Y-61150000D01*
X58051325Y-61126126D01*
X59636201Y-62711003D01*
X59659999Y-62740001D01*
X59775724Y-62834974D01*
X59907753Y-62905546D01*
X60051014Y-62949003D01*
X60162667Y-62960000D01*
X60162676Y-62960000D01*
X60199999Y-62963676D01*
X60237322Y-62960000D01*
X63896289Y-62960000D01*
X63940226Y-63003937D01*
X64109744Y-63117205D01*
X64298102Y-63195226D01*
X64498061Y-63235000D01*
X64701939Y-63235000D01*
X64901898Y-63195226D01*
X65090256Y-63117205D01*
X65259774Y-63003937D01*
X65403937Y-62859774D01*
X65517205Y-62690256D01*
X65595226Y-62501898D01*
X65635000Y-62301939D01*
X65635000Y-62098061D01*
X65595226Y-61898102D01*
X65517205Y-61709744D01*
X65403937Y-61540226D01*
X65259774Y-61396063D01*
X65090256Y-61282795D01*
X64901898Y-61204774D01*
X64701939Y-61165000D01*
X64498061Y-61165000D01*
X64298102Y-61204774D01*
X64109744Y-61282795D01*
X63940226Y-61396063D01*
X63896289Y-61440000D01*
X60514802Y-61440000D01*
X58738783Y-59663982D01*
X58714980Y-59634978D01*
X58599255Y-59540005D01*
X58467226Y-59469433D01*
X58323965Y-59425976D01*
X58212312Y-59414979D01*
X58212301Y-59414979D01*
X58174979Y-59411303D01*
X58137657Y-59414979D01*
X52689781Y-59414979D01*
X51760000Y-58485199D01*
X51760000Y-55510327D01*
X51763676Y-55473002D01*
X51760000Y-55435677D01*
X51760000Y-55435669D01*
X51749003Y-55324016D01*
X51705546Y-55180755D01*
X51634974Y-55048726D01*
X51540001Y-54933001D01*
X51511004Y-54909204D01*
X50668356Y-54066557D01*
X50668356Y-51606747D01*
X53572611Y-54511003D01*
X53596409Y-54540001D01*
X53712134Y-54634974D01*
X53844163Y-54705546D01*
X53987424Y-54749003D01*
X54099077Y-54760000D01*
X54099087Y-54760000D01*
X54136410Y-54763676D01*
X54173733Y-54760000D01*
X62762678Y-54760000D01*
X62800000Y-54763676D01*
X62837322Y-54760000D01*
X62837333Y-54760000D01*
X62948986Y-54749003D01*
X63092247Y-54705546D01*
X63224276Y-54634974D01*
X63340001Y-54540001D01*
X63363803Y-54510998D01*
X64914803Y-52960000D01*
X65021822Y-52960000D01*
X65146525Y-53146632D01*
X65278380Y-53278487D01*
X65205820Y-53300498D01*
X65095506Y-53359463D01*
X64998815Y-53438815D01*
X64919463Y-53535506D01*
X64860498Y-53645820D01*
X64824188Y-53765518D01*
X64811928Y-53890000D01*
X64811928Y-55590000D01*
X64824188Y-55714482D01*
X64860498Y-55834180D01*
X64919463Y-55944494D01*
X64998815Y-56041185D01*
X65095506Y-56120537D01*
X65205820Y-56179502D01*
X65325518Y-56215812D01*
X65450000Y-56228072D01*
X67150000Y-56228072D01*
X67274482Y-56215812D01*
X67394180Y-56179502D01*
X67504494Y-56120537D01*
X67601185Y-56041185D01*
X67680537Y-55944494D01*
X67739502Y-55834180D01*
X67775812Y-55714482D01*
X67788072Y-55590000D01*
X67788072Y-53890000D01*
X67775812Y-53765518D01*
X67739502Y-53645820D01*
X67680537Y-53535506D01*
X67601185Y-53438815D01*
X67504494Y-53359463D01*
X67394180Y-53300498D01*
X67321620Y-53278487D01*
X67453475Y-53146632D01*
X67615990Y-52903411D01*
X67727932Y-52633158D01*
X67785000Y-52346260D01*
X67785000Y-52053740D01*
X67727932Y-51766842D01*
X67615990Y-51496589D01*
X67453475Y-51253368D01*
X67246632Y-51046525D01*
X67072240Y-50930000D01*
X67246632Y-50813475D01*
X67453475Y-50606632D01*
X67615990Y-50363411D01*
X67727932Y-50093158D01*
X67785000Y-49806260D01*
X67785000Y-49513740D01*
X67727932Y-49226842D01*
X67615990Y-48956589D01*
X67453475Y-48713368D01*
X67246632Y-48506525D01*
X67072240Y-48390000D01*
X67246632Y-48273475D01*
X67453475Y-48066632D01*
X67615990Y-47823411D01*
X67727932Y-47553158D01*
X67785000Y-47266260D01*
X67785000Y-46973740D01*
X67727932Y-46686842D01*
X67615990Y-46416589D01*
X67453475Y-46173368D01*
X67246632Y-45966525D01*
X67072240Y-45850000D01*
X67246632Y-45733475D01*
X67453475Y-45526632D01*
X67615990Y-45283411D01*
X67727932Y-45013158D01*
X67785000Y-44726260D01*
X67785000Y-44433740D01*
X67727932Y-44146842D01*
X67615990Y-43876589D01*
X67453475Y-43633368D01*
X67246632Y-43426525D01*
X67003411Y-43264010D01*
X66733158Y-43152068D01*
X66446260Y-43095000D01*
X66153740Y-43095000D01*
X65866842Y-43152068D01*
X65596589Y-43264010D01*
X65353368Y-43426525D01*
X65146525Y-43633368D01*
X64984010Y-43876589D01*
X64872068Y-44146842D01*
X64815000Y-44433740D01*
X64815000Y-44726260D01*
X64872068Y-45013158D01*
X64984010Y-45283411D01*
X65146525Y-45526632D01*
X65353368Y-45733475D01*
X65527760Y-45850000D01*
X65353368Y-45966525D01*
X65146525Y-46173368D01*
X64984010Y-46416589D01*
X64872068Y-46686842D01*
X64815000Y-46973740D01*
X64815000Y-47266260D01*
X64872068Y-47553158D01*
X64984010Y-47823411D01*
X65146525Y-48066632D01*
X65353368Y-48273475D01*
X65527760Y-48390000D01*
X65353368Y-48506525D01*
X65146525Y-48713368D01*
X64984010Y-48956589D01*
X64872068Y-49226842D01*
X64815000Y-49513740D01*
X64815000Y-49806260D01*
X64858790Y-50026408D01*
X62145199Y-52740000D01*
X54614802Y-52740000D01*
X52424802Y-50550000D01*
X60111928Y-50550000D01*
X60124188Y-50674482D01*
X60160498Y-50794180D01*
X60219463Y-50904494D01*
X60298815Y-51001185D01*
X60395506Y-51080537D01*
X60505820Y-51139502D01*
X60625518Y-51175812D01*
X60750000Y-51188072D01*
X61314250Y-51185000D01*
X61473000Y-51026250D01*
X61473000Y-49827000D01*
X61727000Y-49827000D01*
X61727000Y-51026250D01*
X61885750Y-51185000D01*
X62450000Y-51188072D01*
X62574482Y-51175812D01*
X62694180Y-51139502D01*
X62804494Y-51080537D01*
X62901185Y-51001185D01*
X62980537Y-50904494D01*
X63039502Y-50794180D01*
X63075812Y-50674482D01*
X63088072Y-50550000D01*
X63085000Y-49985750D01*
X62926250Y-49827000D01*
X61727000Y-49827000D01*
X61473000Y-49827000D01*
X60273750Y-49827000D01*
X60115000Y-49985750D01*
X60111928Y-50550000D01*
X52424802Y-50550000D01*
X51660000Y-49785199D01*
X51660000Y-48992639D01*
X51668225Y-49033989D01*
X51772629Y-49286043D01*
X51924201Y-49512886D01*
X52117114Y-49705799D01*
X52343957Y-49857371D01*
X52596011Y-49961775D01*
X52863589Y-50015000D01*
X53136411Y-50015000D01*
X53403989Y-49961775D01*
X53656043Y-49857371D01*
X53882886Y-49705799D01*
X54075799Y-49512886D01*
X54227371Y-49286043D01*
X54331775Y-49033989D01*
X54368372Y-48850000D01*
X60111928Y-48850000D01*
X60115000Y-49414250D01*
X60273750Y-49573000D01*
X61473000Y-49573000D01*
X61473000Y-49553000D01*
X61727000Y-49553000D01*
X61727000Y-49573000D01*
X62926250Y-49573000D01*
X63085000Y-49414250D01*
X63088072Y-48850000D01*
X63075812Y-48725518D01*
X63039502Y-48605820D01*
X62980537Y-48495506D01*
X62901185Y-48398815D01*
X62804494Y-48319463D01*
X62694180Y-48260498D01*
X62621620Y-48238487D01*
X62753475Y-48106632D01*
X62915990Y-47863411D01*
X63027932Y-47593158D01*
X63085000Y-47306260D01*
X63085000Y-47013740D01*
X63027932Y-46726842D01*
X62915990Y-46456589D01*
X62753475Y-46213368D01*
X62546632Y-46006525D01*
X62372240Y-45890000D01*
X62546632Y-45773475D01*
X62753475Y-45566632D01*
X62915990Y-45323411D01*
X63027932Y-45053158D01*
X63085000Y-44766260D01*
X63085000Y-44473740D01*
X63027932Y-44186842D01*
X62915990Y-43916589D01*
X62753475Y-43673368D01*
X62546632Y-43466525D01*
X62303411Y-43304010D01*
X62033158Y-43192068D01*
X61746260Y-43135000D01*
X61453740Y-43135000D01*
X61166842Y-43192068D01*
X60896589Y-43304010D01*
X60653368Y-43466525D01*
X60446525Y-43673368D01*
X60284010Y-43916589D01*
X60172068Y-44186842D01*
X60115000Y-44473740D01*
X60115000Y-44766260D01*
X60172068Y-45053158D01*
X60284010Y-45323411D01*
X60446525Y-45566632D01*
X60653368Y-45773475D01*
X60827760Y-45890000D01*
X60653368Y-46006525D01*
X60446525Y-46213368D01*
X60284010Y-46456589D01*
X60172068Y-46726842D01*
X60115000Y-47013740D01*
X60115000Y-47306260D01*
X60172068Y-47593158D01*
X60284010Y-47863411D01*
X60446525Y-48106632D01*
X60578380Y-48238487D01*
X60505820Y-48260498D01*
X60395506Y-48319463D01*
X60298815Y-48398815D01*
X60219463Y-48495506D01*
X60160498Y-48605820D01*
X60124188Y-48725518D01*
X60111928Y-48850000D01*
X54368372Y-48850000D01*
X54385000Y-48766411D01*
X54385000Y-48493589D01*
X54331775Y-48226011D01*
X54227371Y-47973957D01*
X54075799Y-47747114D01*
X53882886Y-47554201D01*
X53656043Y-47402629D01*
X53403989Y-47298225D01*
X53136411Y-47245000D01*
X52863589Y-47245000D01*
X52596011Y-47298225D01*
X52343957Y-47402629D01*
X52117114Y-47554201D01*
X51924201Y-47747114D01*
X51772629Y-47973957D01*
X51668225Y-48226011D01*
X51660000Y-48267361D01*
X51660000Y-44112639D01*
X51668225Y-44153989D01*
X51772629Y-44406043D01*
X51924201Y-44632886D01*
X52117114Y-44825799D01*
X52343957Y-44977371D01*
X52596011Y-45081775D01*
X52863589Y-45135000D01*
X53136411Y-45135000D01*
X53403989Y-45081775D01*
X53656043Y-44977371D01*
X53882886Y-44825799D01*
X54075799Y-44632886D01*
X54227371Y-44406043D01*
X54331775Y-44153989D01*
X54385000Y-43886411D01*
X54385000Y-43613589D01*
X54331775Y-43346011D01*
X54227371Y-43093957D01*
X54075799Y-42867114D01*
X53882886Y-42674201D01*
X53656043Y-42522629D01*
X53403989Y-42418225D01*
X53136411Y-42365000D01*
X52863589Y-42365000D01*
X52596011Y-42418225D01*
X52343957Y-42522629D01*
X52117114Y-42674201D01*
X51924201Y-42867114D01*
X51772629Y-43093957D01*
X51668225Y-43346011D01*
X51615000Y-43613589D01*
X51615000Y-43694232D01*
X51605546Y-43663066D01*
X51572326Y-43600916D01*
X51534974Y-43531036D01*
X51463799Y-43444310D01*
X51440001Y-43415312D01*
X51411003Y-43391514D01*
X49641971Y-41622483D01*
X49618168Y-41593479D01*
X49502443Y-41498506D01*
X49370414Y-41427934D01*
X49227153Y-41384477D01*
X49115500Y-41373480D01*
X49115489Y-41373480D01*
X49078167Y-41369804D01*
X49040845Y-41373480D01*
X45338157Y-41373480D01*
X45300835Y-41369804D01*
X45263512Y-41373480D01*
X45263502Y-41373480D01*
X45151849Y-41384477D01*
X45008588Y-41427934D01*
X44876558Y-41498506D01*
X44792918Y-41567148D01*
X44760834Y-41593479D01*
X44737036Y-41622477D01*
X41389003Y-44970511D01*
X41359999Y-44994314D01*
X41306092Y-45060000D01*
X41265026Y-45110039D01*
X41217293Y-45199341D01*
X41194454Y-45242069D01*
X41151014Y-45385275D01*
X41096063Y-45440226D01*
X40982795Y-45609744D01*
X40904774Y-45798102D01*
X40865000Y-45998061D01*
X40865000Y-46201939D01*
X40904774Y-46401898D01*
X40982795Y-46590256D01*
X41096063Y-46759774D01*
X41240226Y-46903937D01*
X41409744Y-47017205D01*
X41598102Y-47095226D01*
X41798061Y-47135000D01*
X42001939Y-47135000D01*
X42201898Y-47095226D01*
X42390256Y-47017205D01*
X42400000Y-47010694D01*
X42409744Y-47017205D01*
X42598102Y-47095226D01*
X42798061Y-47135000D01*
X43001939Y-47135000D01*
X43201898Y-47095226D01*
X43352338Y-47032911D01*
X43352338Y-47775013D01*
X43348662Y-47812336D01*
X43352338Y-47849658D01*
X43352338Y-47849668D01*
X43363335Y-47961321D01*
X43382432Y-48024276D01*
X43406792Y-48104582D01*
X43477364Y-48236612D01*
X43490049Y-48252068D01*
X43572337Y-48352337D01*
X43601340Y-48376139D01*
X43965000Y-48739799D01*
X43965000Y-48801937D01*
X44004774Y-49001896D01*
X44010198Y-49014990D01*
X38835337Y-49014990D01*
X38798014Y-49011314D01*
X38760691Y-49014990D01*
X38760681Y-49014990D01*
X38649028Y-49025987D01*
X38524782Y-49063676D01*
X38505767Y-49069444D01*
X38373737Y-49140016D01*
X38312523Y-49190254D01*
X38258013Y-49234989D01*
X38234215Y-49263987D01*
X37030957Y-50467246D01*
X36959774Y-50396063D01*
X36790256Y-50282795D01*
X36601898Y-50204774D01*
X36401939Y-50165000D01*
X36198061Y-50165000D01*
X35998102Y-50204774D01*
X35809744Y-50282795D01*
X35640226Y-50396063D01*
X35496063Y-50540226D01*
X35382795Y-50709744D01*
X35304774Y-50898102D01*
X35265000Y-51098061D01*
X35265000Y-51175774D01*
X35194455Y-51307752D01*
X35150998Y-51451013D01*
X35140001Y-51562666D01*
X35140001Y-51562677D01*
X35136325Y-51599999D01*
X35140001Y-51637321D01*
X35140001Y-51685197D01*
X33038986Y-53786213D01*
X33009988Y-53810011D01*
X32986190Y-53839009D01*
X32986189Y-53839010D01*
X32915014Y-53925736D01*
X32844442Y-54057766D01*
X32839384Y-54074441D01*
X32800986Y-54201026D01*
X32792701Y-54285140D01*
X32786312Y-54350012D01*
X32789989Y-54387344D01*
X32789988Y-60912665D01*
X32786312Y-60949988D01*
X32789988Y-60987310D01*
X32789988Y-60987320D01*
X32800985Y-61098973D01*
X32838906Y-61223984D01*
X32844442Y-61242234D01*
X32915014Y-61374264D01*
X32954859Y-61422814D01*
X33009987Y-61489989D01*
X33038991Y-61513792D01*
X34136200Y-62611002D01*
X34159999Y-62640001D01*
X34275724Y-62734974D01*
X34407753Y-62805546D01*
X34551014Y-62849003D01*
X34660373Y-62859774D01*
X34700000Y-62863677D01*
X34737333Y-62860000D01*
X43685199Y-62860000D01*
X45958061Y-65132863D01*
X45934822Y-65158645D01*
X45785843Y-65408748D01*
X45688519Y-65683109D01*
X45809186Y-65913000D01*
X47003000Y-65913000D01*
X47003000Y-65893000D01*
X47257000Y-65893000D01*
X47257000Y-65913000D01*
X49543000Y-65913000D01*
X49543000Y-65893000D01*
X49797000Y-65893000D01*
X49797000Y-65913000D01*
X52083000Y-65913000D01*
X52083000Y-65893000D01*
X52337000Y-65893000D01*
X52337000Y-65913000D01*
X54623000Y-65913000D01*
X54623000Y-65893000D01*
X54877000Y-65893000D01*
X54877000Y-65913000D01*
X54897000Y-65913000D01*
X54897000Y-66167000D01*
X54877000Y-66167000D01*
X54877000Y-66187000D01*
X54623000Y-66187000D01*
X54623000Y-66167000D01*
X52337000Y-66167000D01*
X52337000Y-66187000D01*
X52083000Y-66187000D01*
X52083000Y-66167000D01*
X49797000Y-66167000D01*
X49797000Y-66187000D01*
X49543000Y-66187000D01*
X49543000Y-66167000D01*
X47257000Y-66167000D01*
X47257000Y-66187000D01*
X47003000Y-66187000D01*
X47003000Y-66167000D01*
X45809186Y-66167000D01*
X45688519Y-66396891D01*
X45785843Y-66671252D01*
X45934822Y-66921355D01*
X46129731Y-67137588D01*
X46363080Y-67311641D01*
X46422619Y-67340000D01*
X27410000Y-67340000D01*
X27410000Y-63650000D01*
X38411928Y-63650000D01*
X38411928Y-65350000D01*
X38424188Y-65474482D01*
X38460498Y-65594180D01*
X38519463Y-65704494D01*
X38598815Y-65801185D01*
X38695506Y-65880537D01*
X38805820Y-65939502D01*
X38925518Y-65975812D01*
X39050000Y-65988072D01*
X40750000Y-65988072D01*
X40874482Y-65975812D01*
X40994180Y-65939502D01*
X41104494Y-65880537D01*
X41201185Y-65801185D01*
X41280537Y-65704494D01*
X41339502Y-65594180D01*
X41363966Y-65513534D01*
X41439731Y-65597588D01*
X41673080Y-65771641D01*
X41935901Y-65896825D01*
X42083110Y-65941476D01*
X42313000Y-65820155D01*
X42313000Y-64627000D01*
X42567000Y-64627000D01*
X42567000Y-65820155D01*
X42796890Y-65941476D01*
X42944099Y-65896825D01*
X43206920Y-65771641D01*
X43440269Y-65597588D01*
X43635178Y-65381355D01*
X43784157Y-65131252D01*
X43881481Y-64856891D01*
X43760814Y-64627000D01*
X42567000Y-64627000D01*
X42313000Y-64627000D01*
X42293000Y-64627000D01*
X42293000Y-64373000D01*
X42313000Y-64373000D01*
X42313000Y-63179845D01*
X42567000Y-63179845D01*
X42567000Y-64373000D01*
X43760814Y-64373000D01*
X43881481Y-64143109D01*
X43784157Y-63868748D01*
X43635178Y-63618645D01*
X43440269Y-63402412D01*
X43206920Y-63228359D01*
X42944099Y-63103175D01*
X42796890Y-63058524D01*
X42567000Y-63179845D01*
X42313000Y-63179845D01*
X42083110Y-63058524D01*
X41935901Y-63103175D01*
X41673080Y-63228359D01*
X41439731Y-63402412D01*
X41363966Y-63486466D01*
X41339502Y-63405820D01*
X41280537Y-63295506D01*
X41201185Y-63198815D01*
X41104494Y-63119463D01*
X40994180Y-63060498D01*
X40874482Y-63024188D01*
X40750000Y-63011928D01*
X39050000Y-63011928D01*
X38925518Y-63024188D01*
X38805820Y-63060498D01*
X38695506Y-63119463D01*
X38598815Y-63198815D01*
X38519463Y-63295506D01*
X38460498Y-63405820D01*
X38424188Y-63525518D01*
X38411928Y-63650000D01*
X27410000Y-63650000D01*
X27410000Y-61228284D01*
X27505820Y-61279502D01*
X27625518Y-61315812D01*
X27750000Y-61328072D01*
X29450000Y-61328072D01*
X29574482Y-61315812D01*
X29694180Y-61279502D01*
X29804494Y-61220537D01*
X29901185Y-61141185D01*
X29980537Y-61044494D01*
X30039502Y-60934180D01*
X30075812Y-60814482D01*
X30088072Y-60690000D01*
X30088072Y-58990000D01*
X30075812Y-58865518D01*
X30039502Y-58745820D01*
X29980537Y-58635506D01*
X29901185Y-58538815D01*
X29804494Y-58459463D01*
X29694180Y-58400498D01*
X29621620Y-58378487D01*
X29753475Y-58246632D01*
X29915990Y-58003411D01*
X30027932Y-57733158D01*
X30085000Y-57446260D01*
X30085000Y-57153740D01*
X30027932Y-56866842D01*
X29915990Y-56596589D01*
X29753475Y-56353368D01*
X29546632Y-56146525D01*
X29372240Y-56030000D01*
X29546632Y-55913475D01*
X29753475Y-55706632D01*
X29915990Y-55463411D01*
X30027932Y-55193158D01*
X30085000Y-54906260D01*
X30085000Y-54613740D01*
X30027932Y-54326842D01*
X29915990Y-54056589D01*
X29753475Y-53813368D01*
X29546632Y-53606525D01*
X29372240Y-53490000D01*
X29546632Y-53373475D01*
X29753475Y-53166632D01*
X29915990Y-52923411D01*
X30027932Y-52653158D01*
X30085000Y-52366260D01*
X30085000Y-52073740D01*
X30027932Y-51786842D01*
X29915990Y-51516589D01*
X29753475Y-51273368D01*
X29546632Y-51066525D01*
X29372240Y-50950000D01*
X29546632Y-50833475D01*
X29753475Y-50626632D01*
X29915990Y-50383411D01*
X30027932Y-50113158D01*
X30085000Y-49826260D01*
X30085000Y-49533740D01*
X30027932Y-49246842D01*
X29915990Y-48976589D01*
X29753475Y-48733368D01*
X29546632Y-48526525D01*
X29372240Y-48410000D01*
X29546632Y-48293475D01*
X29753475Y-48086632D01*
X29915990Y-47843411D01*
X30027932Y-47573158D01*
X30085000Y-47286260D01*
X30085000Y-46993740D01*
X30027932Y-46706842D01*
X29915990Y-46436589D01*
X29753475Y-46193368D01*
X29546632Y-45986525D01*
X29372240Y-45870000D01*
X29546632Y-45753475D01*
X29753475Y-45546632D01*
X29915990Y-45303411D01*
X30027932Y-45033158D01*
X30085000Y-44746260D01*
X30085000Y-44453740D01*
X30027932Y-44166842D01*
X29915990Y-43896589D01*
X29753475Y-43653368D01*
X29546632Y-43446525D01*
X29372240Y-43330000D01*
X29546632Y-43213475D01*
X29753475Y-43006632D01*
X29915990Y-42763411D01*
X30027932Y-42493158D01*
X30085000Y-42206260D01*
X30085000Y-41913740D01*
X30027932Y-41626842D01*
X29915990Y-41356589D01*
X29753475Y-41113368D01*
X29546632Y-40906525D01*
X29303411Y-40744010D01*
X29100592Y-40660000D01*
X69088820Y-40660000D01*
X69041178Y-67340000D01*
G36*
X40080820Y-59739502D02*
G01*
X40200518Y-59775812D01*
X40325000Y-59788072D01*
X41213271Y-59788072D01*
X42765198Y-61340000D01*
X35014802Y-61340000D01*
X34691906Y-61017105D01*
X34801898Y-60995226D01*
X34990256Y-60917205D01*
X35159774Y-60803937D01*
X35303937Y-60659774D01*
X35417205Y-60490256D01*
X35495226Y-60301898D01*
X35535000Y-60101939D01*
X35535000Y-59898061D01*
X35513122Y-59788072D01*
X35675000Y-59788072D01*
X35799482Y-59775812D01*
X35919180Y-59739502D01*
X36000000Y-59696302D01*
X36080820Y-59739502D01*
X36200518Y-59775812D01*
X36325000Y-59788072D01*
X37675000Y-59788072D01*
X37799482Y-59775812D01*
X37919180Y-59739502D01*
X38000000Y-59696302D01*
X38080820Y-59739502D01*
X38200518Y-59775812D01*
X38325000Y-59788072D01*
X39675000Y-59788072D01*
X39799482Y-59775812D01*
X39919180Y-59739502D01*
X40000000Y-59696302D01*
X40080820Y-59739502D01*
G37*
X40080820Y-59739502D02*
X40200518Y-59775812D01*
X40325000Y-59788072D01*
X41213271Y-59788072D01*
X42765198Y-61340000D01*
X35014802Y-61340000D01*
X34691906Y-61017105D01*
X34801898Y-60995226D01*
X34990256Y-60917205D01*
X35159774Y-60803937D01*
X35303937Y-60659774D01*
X35417205Y-60490256D01*
X35495226Y-60301898D01*
X35535000Y-60101939D01*
X35535000Y-59898061D01*
X35513122Y-59788072D01*
X35675000Y-59788072D01*
X35799482Y-59775812D01*
X35919180Y-59739502D01*
X36000000Y-59696302D01*
X36080820Y-59739502D01*
X36200518Y-59775812D01*
X36325000Y-59788072D01*
X37675000Y-59788072D01*
X37799482Y-59775812D01*
X37919180Y-59739502D01*
X38000000Y-59696302D01*
X38080820Y-59739502D01*
X38200518Y-59775812D01*
X38325000Y-59788072D01*
X39675000Y-59788072D01*
X39799482Y-59775812D01*
X39919180Y-59739502D01*
X40000000Y-59696302D01*
X40080820Y-59739502D01*
G36*
X46004774Y-44601898D02*
G01*
X46082795Y-44790256D01*
X46196063Y-44959774D01*
X46340226Y-45103937D01*
X46509744Y-45217205D01*
X46698102Y-45295226D01*
X46898061Y-45335000D01*
X47101939Y-45335000D01*
X47215000Y-45312511D01*
X47215000Y-45351939D01*
X47254774Y-45551898D01*
X47332795Y-45740256D01*
X47446063Y-45909774D01*
X47490000Y-45953711D01*
X47490001Y-52335197D01*
X44785211Y-55039988D01*
X42487335Y-55039988D01*
X42450012Y-55036312D01*
X42412689Y-55039988D01*
X42412679Y-55039988D01*
X42301026Y-55050985D01*
X42182615Y-55086904D01*
X42157765Y-55094442D01*
X42025735Y-55165014D01*
X41973383Y-55207979D01*
X41910011Y-55259987D01*
X41886213Y-55288986D01*
X41217583Y-55957615D01*
X41129024Y-55940000D01*
X40870976Y-55940000D01*
X40617887Y-55990342D01*
X40379482Y-56089093D01*
X40164923Y-56232456D01*
X40000000Y-56397379D01*
X39835077Y-56232456D01*
X39620518Y-56089093D01*
X39382113Y-55990342D01*
X39129024Y-55940000D01*
X38870976Y-55940000D01*
X38617887Y-55990342D01*
X38379482Y-56089093D01*
X38164923Y-56232456D01*
X38000000Y-56397379D01*
X37835077Y-56232456D01*
X37620518Y-56089093D01*
X37382113Y-55990342D01*
X37129024Y-55940000D01*
X36870976Y-55940000D01*
X36782417Y-55957615D01*
X35899801Y-55075000D01*
X37385002Y-53589800D01*
X37398102Y-53595226D01*
X37598061Y-53635000D01*
X37801939Y-53635000D01*
X38001898Y-53595226D01*
X38190256Y-53517205D01*
X38359774Y-53403937D01*
X38503937Y-53259774D01*
X38617205Y-53090256D01*
X38695226Y-52901898D01*
X38735000Y-52701939D01*
X38735000Y-52498061D01*
X38695226Y-52298102D01*
X38617205Y-52109744D01*
X38503937Y-51940226D01*
X38423964Y-51860253D01*
X39024217Y-51260000D01*
X45362678Y-51260000D01*
X45400000Y-51263676D01*
X45437322Y-51260000D01*
X45437333Y-51260000D01*
X45548986Y-51249003D01*
X45692247Y-51205546D01*
X45824276Y-51134974D01*
X45940001Y-51040001D01*
X45963803Y-51010998D01*
X46311002Y-50663800D01*
X46340001Y-50640001D01*
X46434974Y-50524276D01*
X46505546Y-50392247D01*
X46549003Y-50248986D01*
X46560000Y-50137333D01*
X46560000Y-50137324D01*
X46563676Y-50100001D01*
X46560000Y-50062678D01*
X46560000Y-48337322D01*
X46563676Y-48299999D01*
X46560000Y-48262676D01*
X46560000Y-48262667D01*
X46549003Y-48151014D01*
X46505546Y-48007753D01*
X46434974Y-47875724D01*
X46413591Y-47849669D01*
X46363799Y-47788996D01*
X46363795Y-47788992D01*
X46340001Y-47759999D01*
X46311009Y-47736206D01*
X46135000Y-47560198D01*
X46135000Y-47498061D01*
X46095226Y-47298102D01*
X46017205Y-47109744D01*
X45943877Y-47000000D01*
X46017205Y-46890256D01*
X46095226Y-46701898D01*
X46135000Y-46501939D01*
X46135000Y-46298061D01*
X46095226Y-46098102D01*
X46017205Y-45909744D01*
X45903937Y-45740226D01*
X45860000Y-45696289D01*
X45860000Y-44741799D01*
X46003966Y-44597834D01*
X46004774Y-44601898D01*
G37*
X46004774Y-44601898D02*
X46082795Y-44790256D01*
X46196063Y-44959774D01*
X46340226Y-45103937D01*
X46509744Y-45217205D01*
X46698102Y-45295226D01*
X46898061Y-45335000D01*
X47101939Y-45335000D01*
X47215000Y-45312511D01*
X47215000Y-45351939D01*
X47254774Y-45551898D01*
X47332795Y-45740256D01*
X47446063Y-45909774D01*
X47490000Y-45953711D01*
X47490001Y-52335197D01*
X44785211Y-55039988D01*
X42487335Y-55039988D01*
X42450012Y-55036312D01*
X42412689Y-55039988D01*
X42412679Y-55039988D01*
X42301026Y-55050985D01*
X42182615Y-55086904D01*
X42157765Y-55094442D01*
X42025735Y-55165014D01*
X41973383Y-55207979D01*
X41910011Y-55259987D01*
X41886213Y-55288986D01*
X41217583Y-55957615D01*
X41129024Y-55940000D01*
X40870976Y-55940000D01*
X40617887Y-55990342D01*
X40379482Y-56089093D01*
X40164923Y-56232456D01*
X40000000Y-56397379D01*
X39835077Y-56232456D01*
X39620518Y-56089093D01*
X39382113Y-55990342D01*
X39129024Y-55940000D01*
X38870976Y-55940000D01*
X38617887Y-55990342D01*
X38379482Y-56089093D01*
X38164923Y-56232456D01*
X38000000Y-56397379D01*
X37835077Y-56232456D01*
X37620518Y-56089093D01*
X37382113Y-55990342D01*
X37129024Y-55940000D01*
X36870976Y-55940000D01*
X36782417Y-55957615D01*
X35899801Y-55075000D01*
X37385002Y-53589800D01*
X37398102Y-53595226D01*
X37598061Y-53635000D01*
X37801939Y-53635000D01*
X38001898Y-53595226D01*
X38190256Y-53517205D01*
X38359774Y-53403937D01*
X38503937Y-53259774D01*
X38617205Y-53090256D01*
X38695226Y-52901898D01*
X38735000Y-52701939D01*
X38735000Y-52498061D01*
X38695226Y-52298102D01*
X38617205Y-52109744D01*
X38503937Y-51940226D01*
X38423964Y-51860253D01*
X39024217Y-51260000D01*
X45362678Y-51260000D01*
X45400000Y-51263676D01*
X45437322Y-51260000D01*
X45437333Y-51260000D01*
X45548986Y-51249003D01*
X45692247Y-51205546D01*
X45824276Y-51134974D01*
X45940001Y-51040001D01*
X45963803Y-51010998D01*
X46311002Y-50663800D01*
X46340001Y-50640001D01*
X46434974Y-50524276D01*
X46505546Y-50392247D01*
X46549003Y-50248986D01*
X46560000Y-50137333D01*
X46560000Y-50137324D01*
X46563676Y-50100001D01*
X46560000Y-50062678D01*
X46560000Y-48337322D01*
X46563676Y-48299999D01*
X46560000Y-48262676D01*
X46560000Y-48262667D01*
X46549003Y-48151014D01*
X46505546Y-48007753D01*
X46434974Y-47875724D01*
X46413591Y-47849669D01*
X46363799Y-47788996D01*
X46363795Y-47788992D01*
X46340001Y-47759999D01*
X46311009Y-47736206D01*
X46135000Y-47560198D01*
X46135000Y-47498061D01*
X46095226Y-47298102D01*
X46017205Y-47109744D01*
X45943877Y-47000000D01*
X46017205Y-46890256D01*
X46095226Y-46701898D01*
X46135000Y-46501939D01*
X46135000Y-46298061D01*
X46095226Y-46098102D01*
X46017205Y-45909744D01*
X45903937Y-45740226D01*
X45860000Y-45696289D01*
X45860000Y-44741799D01*
X46003966Y-44597834D01*
X46004774Y-44601898D01*
M02*
