G04 #@! TF.GenerationSoftware,KiCad,Pcbnew,(5.1.5-0-10_14)*
G04 #@! TF.CreationDate,2020-04-26T21:59:26+02:00*
G04 #@! TF.ProjectId,minimal,6d696e69-6d61-46c2-9e6b-696361645f70,rev?*
G04 #@! TF.SameCoordinates,Original*
G04 #@! TF.FileFunction,Legend,Top*
G04 #@! TF.FilePolarity,Positive*
%FSLAX46Y46*%
G04 Gerber Fmt 4.6, Leading zero omitted, Abs format (unit mm)*
G04 Created by KiCad (PCBNEW (5.1.5-0-10_14)) date 2020-04-26 21:59:26*
%MOMM*%
%LPD*%
G04 APERTURE LIST*
%ADD10C,0.150000*%
%ADD11C,0.120000*%
G04 APERTURE END LIST*
D10*
X63261904Y-45438095D02*
X63261904Y-44942857D01*
X63566666Y-45209523D01*
X63566666Y-45095238D01*
X63604761Y-45019047D01*
X63642857Y-44980952D01*
X63719047Y-44942857D01*
X63909523Y-44942857D01*
X63985714Y-44980952D01*
X64023809Y-45019047D01*
X64061904Y-45095238D01*
X64061904Y-45323809D01*
X64023809Y-45400000D01*
X63985714Y-45438095D01*
X63985714Y-44600000D02*
X64023809Y-44561904D01*
X64061904Y-44600000D01*
X64023809Y-44638095D01*
X63985714Y-44600000D01*
X64061904Y-44600000D01*
X63261904Y-44295238D02*
X63261904Y-43800000D01*
X63566666Y-44066666D01*
X63566666Y-43952380D01*
X63604761Y-43876190D01*
X63642857Y-43838095D01*
X63719047Y-43800000D01*
X63909523Y-43800000D01*
X63985714Y-43838095D01*
X64023809Y-43876190D01*
X64061904Y-43952380D01*
X64061904Y-44180952D01*
X64023809Y-44257142D01*
X63985714Y-44295238D01*
X63261904Y-48038095D02*
X63261904Y-47542857D01*
X63566666Y-47809523D01*
X63566666Y-47695238D01*
X63604761Y-47619047D01*
X63642857Y-47580952D01*
X63719047Y-47542857D01*
X63909523Y-47542857D01*
X63985714Y-47580952D01*
X64023809Y-47619047D01*
X64061904Y-47695238D01*
X64061904Y-47923809D01*
X64023809Y-48000000D01*
X63985714Y-48038095D01*
X63985714Y-47200000D02*
X64023809Y-47161904D01*
X64061904Y-47200000D01*
X64023809Y-47238095D01*
X63985714Y-47200000D01*
X64061904Y-47200000D01*
X63261904Y-46895238D02*
X63261904Y-46400000D01*
X63566666Y-46666666D01*
X63566666Y-46552380D01*
X63604761Y-46476190D01*
X63642857Y-46438095D01*
X63719047Y-46400000D01*
X63909523Y-46400000D01*
X63985714Y-46438095D01*
X64023809Y-46476190D01*
X64061904Y-46552380D01*
X64061904Y-46780952D01*
X64023809Y-46857142D01*
X63985714Y-46895238D01*
X63300000Y-50409523D02*
X63261904Y-50485714D01*
X63261904Y-50600000D01*
X63300000Y-50714285D01*
X63376190Y-50790476D01*
X63452380Y-50828571D01*
X63604761Y-50866666D01*
X63719047Y-50866666D01*
X63871428Y-50828571D01*
X63947619Y-50790476D01*
X64023809Y-50714285D01*
X64061904Y-50600000D01*
X64061904Y-50523809D01*
X64023809Y-50409523D01*
X63985714Y-50371428D01*
X63719047Y-50371428D01*
X63719047Y-50523809D01*
X64061904Y-50028571D02*
X63261904Y-50028571D01*
X64061904Y-49571428D01*
X63261904Y-49571428D01*
X64061904Y-49190476D02*
X63261904Y-49190476D01*
X63261904Y-49000000D01*
X63300000Y-48885714D01*
X63376190Y-48809523D01*
X63452380Y-48771428D01*
X63604761Y-48733333D01*
X63719047Y-48733333D01*
X63871428Y-48771428D01*
X63947619Y-48809523D01*
X64023809Y-48885714D01*
X64061904Y-49000000D01*
X64061904Y-49190476D01*
X63300000Y-42709523D02*
X63261904Y-42785714D01*
X63261904Y-42900000D01*
X63300000Y-43014285D01*
X63376190Y-43090476D01*
X63452380Y-43128571D01*
X63604761Y-43166666D01*
X63719047Y-43166666D01*
X63871428Y-43128571D01*
X63947619Y-43090476D01*
X64023809Y-43014285D01*
X64061904Y-42900000D01*
X64061904Y-42823809D01*
X64023809Y-42709523D01*
X63985714Y-42671428D01*
X63719047Y-42671428D01*
X63719047Y-42823809D01*
X64061904Y-42328571D02*
X63261904Y-42328571D01*
X64061904Y-41871428D01*
X63261904Y-41871428D01*
X64061904Y-41490476D02*
X63261904Y-41490476D01*
X63261904Y-41300000D01*
X63300000Y-41185714D01*
X63376190Y-41109523D01*
X63452380Y-41071428D01*
X63604761Y-41033333D01*
X63719047Y-41033333D01*
X63871428Y-41071428D01*
X63947619Y-41109523D01*
X64023809Y-41185714D01*
X64061904Y-41300000D01*
X64061904Y-41490476D01*
X68300000Y-42709523D02*
X68261904Y-42785714D01*
X68261904Y-42900000D01*
X68300000Y-43014285D01*
X68376190Y-43090476D01*
X68452380Y-43128571D01*
X68604761Y-43166666D01*
X68719047Y-43166666D01*
X68871428Y-43128571D01*
X68947619Y-43090476D01*
X69023809Y-43014285D01*
X69061904Y-42900000D01*
X69061904Y-42823809D01*
X69023809Y-42709523D01*
X68985714Y-42671428D01*
X68719047Y-42671428D01*
X68719047Y-42823809D01*
X69061904Y-42328571D02*
X68261904Y-42328571D01*
X69061904Y-41871428D01*
X68261904Y-41871428D01*
X69061904Y-41490476D02*
X68261904Y-41490476D01*
X68261904Y-41300000D01*
X68300000Y-41185714D01*
X68376190Y-41109523D01*
X68452380Y-41071428D01*
X68604761Y-41033333D01*
X68719047Y-41033333D01*
X68871428Y-41071428D01*
X68947619Y-41109523D01*
X69023809Y-41185714D01*
X69061904Y-41300000D01*
X69061904Y-41490476D01*
X68261904Y-47938095D02*
X68261904Y-47442857D01*
X68566666Y-47709523D01*
X68566666Y-47595238D01*
X68604761Y-47519047D01*
X68642857Y-47480952D01*
X68719047Y-47442857D01*
X68909523Y-47442857D01*
X68985714Y-47480952D01*
X69023809Y-47519047D01*
X69061904Y-47595238D01*
X69061904Y-47823809D01*
X69023809Y-47900000D01*
X68985714Y-47938095D01*
X68985714Y-47100000D02*
X69023809Y-47061904D01*
X69061904Y-47100000D01*
X69023809Y-47138095D01*
X68985714Y-47100000D01*
X69061904Y-47100000D01*
X68261904Y-46795238D02*
X68261904Y-46300000D01*
X68566666Y-46566666D01*
X68566666Y-46452380D01*
X68604761Y-46376190D01*
X68642857Y-46338095D01*
X68719047Y-46300000D01*
X68909523Y-46300000D01*
X68985714Y-46338095D01*
X69023809Y-46376190D01*
X69061904Y-46452380D01*
X69061904Y-46680952D01*
X69023809Y-46757142D01*
X68985714Y-46795238D01*
X54097633Y-59085714D02*
X53996443Y-59895238D01*
X53936919Y-59990476D01*
X53883348Y-60038095D01*
X53782157Y-60085714D01*
X53639300Y-60085714D01*
X53550014Y-60038095D01*
X54020252Y-59704761D02*
X53919062Y-59752380D01*
X53728586Y-59752380D01*
X53639300Y-59704761D01*
X53597633Y-59657142D01*
X53561919Y-59561904D01*
X53597633Y-59276190D01*
X53657157Y-59180952D01*
X53710729Y-59133333D01*
X53811919Y-59085714D01*
X54002395Y-59085714D01*
X54091681Y-59133333D01*
X54490491Y-59752380D02*
X54573824Y-59085714D01*
X54615491Y-58752380D02*
X54561919Y-58800000D01*
X54603586Y-58847619D01*
X54657157Y-58800000D01*
X54615491Y-58752380D01*
X54603586Y-58847619D01*
X54907157Y-59085714D02*
X55288110Y-59085714D01*
X55091681Y-58752380D02*
X54984538Y-59609523D01*
X55020252Y-59704761D01*
X55109538Y-59752380D01*
X55204776Y-59752380D01*
X55538110Y-59752380D02*
X55663110Y-58752380D01*
X55966681Y-59752380D02*
X56032157Y-59228571D01*
X55996443Y-59133333D01*
X55907157Y-59085714D01*
X55764300Y-59085714D01*
X55663110Y-59133333D01*
X55609538Y-59180952D01*
X56954776Y-59085714D02*
X56871443Y-59752380D01*
X56526205Y-59085714D02*
X56460729Y-59609523D01*
X56496443Y-59704761D01*
X56585729Y-59752380D01*
X56728586Y-59752380D01*
X56829776Y-59704761D01*
X56883348Y-59657142D01*
X57347633Y-59752380D02*
X57472633Y-58752380D01*
X57425014Y-59133333D02*
X57526205Y-59085714D01*
X57716681Y-59085714D01*
X57805967Y-59133333D01*
X57847633Y-59180952D01*
X57883348Y-59276190D01*
X57847633Y-59561904D01*
X57788110Y-59657142D01*
X57734538Y-59704761D01*
X57633348Y-59752380D01*
X57442872Y-59752380D01*
X57353586Y-59704761D01*
X58264300Y-59657142D02*
X58305967Y-59704761D01*
X58252395Y-59752380D01*
X58210729Y-59704761D01*
X58264300Y-59657142D01*
X58252395Y-59752380D01*
X59163110Y-59704761D02*
X59061919Y-59752380D01*
X58871443Y-59752380D01*
X58782157Y-59704761D01*
X58740491Y-59657142D01*
X58704776Y-59561904D01*
X58740491Y-59276190D01*
X58800014Y-59180952D01*
X58853586Y-59133333D01*
X58954776Y-59085714D01*
X59145252Y-59085714D01*
X59234538Y-59133333D01*
X59728586Y-59752380D02*
X59639300Y-59704761D01*
X59597633Y-59657142D01*
X59561919Y-59561904D01*
X59597633Y-59276190D01*
X59657157Y-59180952D01*
X59710729Y-59133333D01*
X59811919Y-59085714D01*
X59954776Y-59085714D01*
X60044062Y-59133333D01*
X60085729Y-59180952D01*
X60121443Y-59276190D01*
X60085729Y-59561904D01*
X60026205Y-59657142D01*
X59972633Y-59704761D01*
X59871443Y-59752380D01*
X59728586Y-59752380D01*
X60490491Y-59752380D02*
X60573824Y-59085714D01*
X60561919Y-59180952D02*
X60615491Y-59133333D01*
X60716681Y-59085714D01*
X60859538Y-59085714D01*
X60948824Y-59133333D01*
X60984538Y-59228571D01*
X60919062Y-59752380D01*
X60984538Y-59228571D02*
X61044062Y-59133333D01*
X61145252Y-59085714D01*
X61288110Y-59085714D01*
X61377395Y-59133333D01*
X61413110Y-59228571D01*
X61347633Y-59752380D01*
X62669062Y-58704761D02*
X61651205Y-59990476D01*
X63014300Y-59752380D02*
X62925014Y-59704761D01*
X62883348Y-59657142D01*
X62847633Y-59561904D01*
X62883348Y-59276190D01*
X62942872Y-59180952D01*
X62996443Y-59133333D01*
X63097633Y-59085714D01*
X63240491Y-59085714D01*
X63329776Y-59133333D01*
X63371443Y-59180952D01*
X63407157Y-59276190D01*
X63371443Y-59561904D01*
X63311919Y-59657142D01*
X63258348Y-59704761D01*
X63157157Y-59752380D01*
X63014300Y-59752380D01*
X63919062Y-59752380D02*
X63829776Y-59704761D01*
X63794062Y-59609523D01*
X63901205Y-58752380D01*
X64442872Y-59752380D02*
X64353586Y-59704761D01*
X64317872Y-59609523D01*
X64425014Y-58752380D01*
X64823824Y-59752380D02*
X64907157Y-59085714D01*
X64948824Y-58752380D02*
X64895252Y-58800000D01*
X64936919Y-58847619D01*
X64990491Y-58800000D01*
X64948824Y-58752380D01*
X64936919Y-58847619D01*
X65300014Y-59752380D02*
X65383348Y-59085714D01*
X65425014Y-58752380D02*
X65371443Y-58800000D01*
X65413110Y-58847619D01*
X65466681Y-58800000D01*
X65425014Y-58752380D01*
X65413110Y-58847619D01*
X65776205Y-59752380D02*
X65859538Y-59085714D01*
X65901205Y-58752380D02*
X65847633Y-58800000D01*
X65889300Y-58847619D01*
X65942872Y-58800000D01*
X65901205Y-58752380D01*
X65889300Y-58847619D01*
X66240491Y-59085714D02*
X66395252Y-59752380D01*
X66716681Y-59085714D01*
X67401205Y-59704761D02*
X67300014Y-59752380D01*
X67109538Y-59752380D01*
X67020252Y-59704761D01*
X66984538Y-59609523D01*
X67032157Y-59228571D01*
X67091681Y-59133333D01*
X67192872Y-59085714D01*
X67383348Y-59085714D01*
X67472633Y-59133333D01*
X67508348Y-59228571D01*
X67496443Y-59323809D01*
X67008348Y-59419047D01*
X67871443Y-59752380D02*
X67954776Y-59085714D01*
X67930967Y-59276190D02*
X67990491Y-59180952D01*
X68044062Y-59133333D01*
X68145252Y-59085714D01*
X68240491Y-59085714D01*
X30209523Y-59666666D02*
X30685714Y-59666666D01*
X30114285Y-59952380D02*
X30447619Y-58952380D01*
X30780952Y-59952380D01*
X31304761Y-58952380D02*
X31400000Y-58952380D01*
X31495238Y-59000000D01*
X31542857Y-59047619D01*
X31590476Y-59142857D01*
X31638095Y-59333333D01*
X31638095Y-59571428D01*
X31590476Y-59761904D01*
X31542857Y-59857142D01*
X31495238Y-59904761D01*
X31400000Y-59952380D01*
X31304761Y-59952380D01*
X31209523Y-59904761D01*
X31161904Y-59857142D01*
X31114285Y-59761904D01*
X31066666Y-59571428D01*
X31066666Y-59333333D01*
X31114285Y-59142857D01*
X31161904Y-59047619D01*
X31209523Y-59000000D01*
X31304761Y-58952380D01*
X32495238Y-59285714D02*
X32495238Y-59952380D01*
X32257142Y-58904761D02*
X32019047Y-59619047D01*
X32638095Y-59619047D01*
X30209523Y-57366666D02*
X30685714Y-57366666D01*
X30114285Y-57652380D02*
X30447619Y-56652380D01*
X30780952Y-57652380D01*
X31304761Y-56652380D02*
X31400000Y-56652380D01*
X31495238Y-56700000D01*
X31542857Y-56747619D01*
X31590476Y-56842857D01*
X31638095Y-57033333D01*
X31638095Y-57271428D01*
X31590476Y-57461904D01*
X31542857Y-57557142D01*
X31495238Y-57604761D01*
X31400000Y-57652380D01*
X31304761Y-57652380D01*
X31209523Y-57604761D01*
X31161904Y-57557142D01*
X31114285Y-57461904D01*
X31066666Y-57271428D01*
X31066666Y-57033333D01*
X31114285Y-56842857D01*
X31161904Y-56747619D01*
X31209523Y-56700000D01*
X31304761Y-56652380D01*
X31971428Y-56652380D02*
X32590476Y-56652380D01*
X32257142Y-57033333D01*
X32400000Y-57033333D01*
X32495238Y-57080952D01*
X32542857Y-57128571D01*
X32590476Y-57223809D01*
X32590476Y-57461904D01*
X32542857Y-57557142D01*
X32495238Y-57604761D01*
X32400000Y-57652380D01*
X32114285Y-57652380D01*
X32019047Y-57604761D01*
X31971428Y-57557142D01*
X30209523Y-54866666D02*
X30685714Y-54866666D01*
X30114285Y-55152380D02*
X30447619Y-54152380D01*
X30780952Y-55152380D01*
X31304761Y-54152380D02*
X31400000Y-54152380D01*
X31495238Y-54200000D01*
X31542857Y-54247619D01*
X31590476Y-54342857D01*
X31638095Y-54533333D01*
X31638095Y-54771428D01*
X31590476Y-54961904D01*
X31542857Y-55057142D01*
X31495238Y-55104761D01*
X31400000Y-55152380D01*
X31304761Y-55152380D01*
X31209523Y-55104761D01*
X31161904Y-55057142D01*
X31114285Y-54961904D01*
X31066666Y-54771428D01*
X31066666Y-54533333D01*
X31114285Y-54342857D01*
X31161904Y-54247619D01*
X31209523Y-54200000D01*
X31304761Y-54152380D01*
X32019047Y-54247619D02*
X32066666Y-54200000D01*
X32161904Y-54152380D01*
X32400000Y-54152380D01*
X32495238Y-54200000D01*
X32542857Y-54247619D01*
X32590476Y-54342857D01*
X32590476Y-54438095D01*
X32542857Y-54580952D01*
X31971428Y-55152380D01*
X32590476Y-55152380D01*
X30209523Y-52366666D02*
X30685714Y-52366666D01*
X30114285Y-52652380D02*
X30447619Y-51652380D01*
X30780952Y-52652380D01*
X31304761Y-51652380D02*
X31400000Y-51652380D01*
X31495238Y-51700000D01*
X31542857Y-51747619D01*
X31590476Y-51842857D01*
X31638095Y-52033333D01*
X31638095Y-52271428D01*
X31590476Y-52461904D01*
X31542857Y-52557142D01*
X31495238Y-52604761D01*
X31400000Y-52652380D01*
X31304761Y-52652380D01*
X31209523Y-52604761D01*
X31161904Y-52557142D01*
X31114285Y-52461904D01*
X31066666Y-52271428D01*
X31066666Y-52033333D01*
X31114285Y-51842857D01*
X31161904Y-51747619D01*
X31209523Y-51700000D01*
X31304761Y-51652380D01*
X32590476Y-52652380D02*
X32019047Y-52652380D01*
X32304761Y-52652380D02*
X32304761Y-51652380D01*
X32209523Y-51795238D01*
X32114285Y-51890476D01*
X32019047Y-51938095D01*
X30209523Y-49866666D02*
X30685714Y-49866666D01*
X30114285Y-50152380D02*
X30447619Y-49152380D01*
X30780952Y-50152380D01*
X31304761Y-49152380D02*
X31400000Y-49152380D01*
X31495238Y-49200000D01*
X31542857Y-49247619D01*
X31590476Y-49342857D01*
X31638095Y-49533333D01*
X31638095Y-49771428D01*
X31590476Y-49961904D01*
X31542857Y-50057142D01*
X31495238Y-50104761D01*
X31400000Y-50152380D01*
X31304761Y-50152380D01*
X31209523Y-50104761D01*
X31161904Y-50057142D01*
X31114285Y-49961904D01*
X31066666Y-49771428D01*
X31066666Y-49533333D01*
X31114285Y-49342857D01*
X31161904Y-49247619D01*
X31209523Y-49200000D01*
X31304761Y-49152380D01*
X32257142Y-49152380D02*
X32352380Y-49152380D01*
X32447619Y-49200000D01*
X32495238Y-49247619D01*
X32542857Y-49342857D01*
X32590476Y-49533333D01*
X32590476Y-49771428D01*
X32542857Y-49961904D01*
X32495238Y-50057142D01*
X32447619Y-50104761D01*
X32352380Y-50152380D01*
X32257142Y-50152380D01*
X32161904Y-50104761D01*
X32114285Y-50057142D01*
X32066666Y-49961904D01*
X32019047Y-49771428D01*
X32019047Y-49533333D01*
X32066666Y-49342857D01*
X32114285Y-49247619D01*
X32161904Y-49200000D01*
X32257142Y-49152380D01*
X30185714Y-47652380D02*
X30185714Y-46652380D01*
X30423809Y-46652380D01*
X30566666Y-46700000D01*
X30661904Y-46795238D01*
X30709523Y-46890476D01*
X30757142Y-47080952D01*
X30757142Y-47223809D01*
X30709523Y-47414285D01*
X30661904Y-47509523D01*
X30566666Y-47604761D01*
X30423809Y-47652380D01*
X30185714Y-47652380D01*
X31376190Y-46652380D02*
X31471428Y-46652380D01*
X31566666Y-46700000D01*
X31614285Y-46747619D01*
X31661904Y-46842857D01*
X31709523Y-47033333D01*
X31709523Y-47271428D01*
X31661904Y-47461904D01*
X31614285Y-47557142D01*
X31566666Y-47604761D01*
X31471428Y-47652380D01*
X31376190Y-47652380D01*
X31280952Y-47604761D01*
X31233333Y-47557142D01*
X31185714Y-47461904D01*
X31138095Y-47271428D01*
X31138095Y-47033333D01*
X31185714Y-46842857D01*
X31233333Y-46747619D01*
X31280952Y-46700000D01*
X31376190Y-46652380D01*
X32185714Y-47652380D02*
X32376190Y-47652380D01*
X32471428Y-47604761D01*
X32519047Y-47557142D01*
X32614285Y-47414285D01*
X32661904Y-47223809D01*
X32661904Y-46842857D01*
X32614285Y-46747619D01*
X32566666Y-46700000D01*
X32471428Y-46652380D01*
X32280952Y-46652380D01*
X32185714Y-46700000D01*
X32138095Y-46747619D01*
X32090476Y-46842857D01*
X32090476Y-47080952D01*
X32138095Y-47176190D01*
X32185714Y-47223809D01*
X32280952Y-47271428D01*
X32471428Y-47271428D01*
X32566666Y-47223809D01*
X32614285Y-47176190D01*
X32661904Y-47080952D01*
X30185714Y-45052380D02*
X30185714Y-44052380D01*
X30423809Y-44052380D01*
X30566666Y-44100000D01*
X30661904Y-44195238D01*
X30709523Y-44290476D01*
X30757142Y-44480952D01*
X30757142Y-44623809D01*
X30709523Y-44814285D01*
X30661904Y-44909523D01*
X30566666Y-45004761D01*
X30423809Y-45052380D01*
X30185714Y-45052380D01*
X31376190Y-44052380D02*
X31471428Y-44052380D01*
X31566666Y-44100000D01*
X31614285Y-44147619D01*
X31661904Y-44242857D01*
X31709523Y-44433333D01*
X31709523Y-44671428D01*
X31661904Y-44861904D01*
X31614285Y-44957142D01*
X31566666Y-45004761D01*
X31471428Y-45052380D01*
X31376190Y-45052380D01*
X31280952Y-45004761D01*
X31233333Y-44957142D01*
X31185714Y-44861904D01*
X31138095Y-44671428D01*
X31138095Y-44433333D01*
X31185714Y-44242857D01*
X31233333Y-44147619D01*
X31280952Y-44100000D01*
X31376190Y-44052380D01*
X32042857Y-44052380D02*
X32709523Y-44052380D01*
X32280952Y-45052380D01*
X30185714Y-42552380D02*
X30185714Y-41552380D01*
X30423809Y-41552380D01*
X30566666Y-41600000D01*
X30661904Y-41695238D01*
X30709523Y-41790476D01*
X30757142Y-41980952D01*
X30757142Y-42123809D01*
X30709523Y-42314285D01*
X30661904Y-42409523D01*
X30566666Y-42504761D01*
X30423809Y-42552380D01*
X30185714Y-42552380D01*
X31376190Y-41552380D02*
X31471428Y-41552380D01*
X31566666Y-41600000D01*
X31614285Y-41647619D01*
X31661904Y-41742857D01*
X31709523Y-41933333D01*
X31709523Y-42171428D01*
X31661904Y-42361904D01*
X31614285Y-42457142D01*
X31566666Y-42504761D01*
X31471428Y-42552380D01*
X31376190Y-42552380D01*
X31280952Y-42504761D01*
X31233333Y-42457142D01*
X31185714Y-42361904D01*
X31138095Y-42171428D01*
X31138095Y-41933333D01*
X31185714Y-41742857D01*
X31233333Y-41647619D01*
X31280952Y-41600000D01*
X31376190Y-41552380D01*
X32566666Y-41552380D02*
X32376190Y-41552380D01*
X32280952Y-41600000D01*
X32233333Y-41647619D01*
X32138095Y-41790476D01*
X32090476Y-41980952D01*
X32090476Y-42361904D01*
X32138095Y-42457142D01*
X32185714Y-42504761D01*
X32280952Y-42552380D01*
X32471428Y-42552380D01*
X32566666Y-42504761D01*
X32614285Y-42457142D01*
X32661904Y-42361904D01*
X32661904Y-42123809D01*
X32614285Y-42028571D01*
X32566666Y-41980952D01*
X32471428Y-41933333D01*
X32280952Y-41933333D01*
X32185714Y-41980952D01*
X32138095Y-42028571D01*
X32090476Y-42123809D01*
X42219047Y-67071428D02*
X42980952Y-67071428D01*
X38852380Y-66552380D02*
X39471428Y-66552380D01*
X39138095Y-66933333D01*
X39280952Y-66933333D01*
X39376190Y-66980952D01*
X39423809Y-67028571D01*
X39471428Y-67123809D01*
X39471428Y-67361904D01*
X39423809Y-67457142D01*
X39376190Y-67504761D01*
X39280952Y-67552380D01*
X38995238Y-67552380D01*
X38900000Y-67504761D01*
X38852380Y-67457142D01*
X39900000Y-67457142D02*
X39947619Y-67504761D01*
X39900000Y-67552380D01*
X39852380Y-67504761D01*
X39900000Y-67457142D01*
X39900000Y-67552380D01*
X40280952Y-66552380D02*
X40900000Y-66552380D01*
X40566666Y-66933333D01*
X40709523Y-66933333D01*
X40804761Y-66980952D01*
X40852380Y-67028571D01*
X40900000Y-67123809D01*
X40900000Y-67361904D01*
X40852380Y-67457142D01*
X40804761Y-67504761D01*
X40709523Y-67552380D01*
X40423809Y-67552380D01*
X40328571Y-67504761D01*
X40280952Y-67457142D01*
D11*
X58620000Y-62170000D02*
X58620000Y-63500000D01*
X57290000Y-62170000D02*
X58620000Y-62170000D01*
X58620000Y-64770000D02*
X58620000Y-67370000D01*
X56020000Y-64770000D02*
X58620000Y-64770000D01*
X56020000Y-62170000D02*
X56020000Y-64770000D01*
X58620000Y-67370000D02*
X45800000Y-67370000D01*
X56020000Y-62170000D02*
X45800000Y-62170000D01*
X45800000Y-62170000D02*
X45800000Y-67370000D01*
X38570000Y-65830000D02*
X38570000Y-64500000D01*
X39900000Y-65830000D02*
X38570000Y-65830000D01*
X41170000Y-65830000D02*
X41170000Y-63170000D01*
X41170000Y-63170000D02*
X43770000Y-63170000D01*
X41170000Y-65830000D02*
X43770000Y-65830000D01*
X43770000Y-65830000D02*
X43770000Y-63170000D01*
X60988748Y-55960000D02*
X61511252Y-55960000D01*
X60988748Y-54540000D02*
X61511252Y-54540000D01*
D10*
X38850000Y-52425000D02*
X38850000Y-53850000D01*
X38625000Y-45175000D02*
X38625000Y-45500000D01*
X45875000Y-45175000D02*
X45875000Y-45500000D01*
X45875000Y-52425000D02*
X45875000Y-52100000D01*
X38625000Y-52425000D02*
X38625000Y-52100000D01*
X45875000Y-52425000D02*
X45550000Y-52425000D01*
X45875000Y-45175000D02*
X45550000Y-45175000D01*
X38625000Y-45175000D02*
X38950000Y-45175000D01*
X38625000Y-52425000D02*
X38850000Y-52425000D01*
D11*
X62930000Y-51030000D02*
X61600000Y-51030000D01*
X62930000Y-49700000D02*
X62930000Y-51030000D01*
X62930000Y-48430000D02*
X60270000Y-48430000D01*
X60270000Y-48430000D02*
X60270000Y-40750000D01*
X62930000Y-48430000D02*
X62930000Y-40750000D01*
X62930000Y-40750000D02*
X60270000Y-40750000D01*
X50475000Y-49390000D02*
G75*
G03X55525000Y-49390000I2525000J0D01*
G01*
X50475000Y-42990000D02*
G75*
G02X55525000Y-42990000I2525000J0D01*
G01*
X50475000Y-42990000D02*
X50475000Y-49390000D01*
X55525000Y-42990000D02*
X55525000Y-49390000D01*
X67630000Y-61270000D02*
X61170000Y-61270000D01*
X67630000Y-65800000D02*
X67630000Y-63200000D01*
X67630000Y-67730000D02*
X61170000Y-67730000D01*
X61170000Y-65800000D02*
X61170000Y-63200000D01*
X67630000Y-67700000D02*
X67630000Y-67730000D01*
X67630000Y-61270000D02*
X67630000Y-61300000D01*
X61170000Y-61270000D02*
X61170000Y-61300000D01*
X61170000Y-67730000D02*
X61170000Y-67700000D01*
X56738748Y-55960000D02*
X57261252Y-55960000D01*
X56738748Y-54540000D02*
X57261252Y-54540000D01*
X36310000Y-62336252D02*
X36310000Y-61813748D01*
X34890000Y-62336252D02*
X34890000Y-61813748D01*
X32710000Y-62186252D02*
X32710000Y-61663748D01*
X31290000Y-62186252D02*
X31290000Y-61663748D01*
X32840000Y-66260000D02*
X35700000Y-66260000D01*
X32840000Y-64340000D02*
X32840000Y-66260000D01*
X35700000Y-64340000D02*
X32840000Y-64340000D01*
X28115000Y-66260000D02*
X30975000Y-66260000D01*
X28115000Y-64340000D02*
X28115000Y-66260000D01*
X30975000Y-64340000D02*
X28115000Y-64340000D01*
X29930000Y-61170000D02*
X28600000Y-61170000D01*
X29930000Y-59840000D02*
X29930000Y-61170000D01*
X29930000Y-58570000D02*
X27270000Y-58570000D01*
X27270000Y-58570000D02*
X27270000Y-40730000D01*
X29930000Y-58570000D02*
X29930000Y-40730000D01*
X29930000Y-40730000D02*
X27270000Y-40730000D01*
X67630000Y-56070000D02*
X66300000Y-56070000D01*
X67630000Y-54740000D02*
X67630000Y-56070000D01*
X67630000Y-53470000D02*
X64970000Y-53470000D01*
X64970000Y-53470000D02*
X64970000Y-40710000D01*
X67630000Y-53470000D02*
X67630000Y-40710000D01*
X67630000Y-40710000D02*
X64970000Y-40710000D01*
X51790000Y-56613748D02*
X51790000Y-57136252D01*
X53210000Y-56613748D02*
X53210000Y-57136252D01*
X34013748Y-43710000D02*
X34536252Y-43710000D01*
X34013748Y-42290000D02*
X34536252Y-42290000D01*
X58036252Y-43390000D02*
X57513748Y-43390000D01*
X58036252Y-44810000D02*
X57513748Y-44810000D01*
X58011252Y-45790000D02*
X57488748Y-45790000D01*
X58011252Y-47210000D02*
X57488748Y-47210000D01*
D10*
X59072380Y-65103333D02*
X59786666Y-65103333D01*
X59929523Y-65150952D01*
X60024761Y-65246190D01*
X60072380Y-65389047D01*
X60072380Y-65484285D01*
X59072380Y-64722380D02*
X59072380Y-64103333D01*
X59453333Y-64436666D01*
X59453333Y-64293809D01*
X59500952Y-64198571D01*
X59548571Y-64150952D01*
X59643809Y-64103333D01*
X59881904Y-64103333D01*
X59977142Y-64150952D01*
X60024761Y-64198571D01*
X60072380Y-64293809D01*
X60072380Y-64579523D01*
X60024761Y-64674761D01*
X59977142Y-64722380D01*
X39490476Y-62452380D02*
X39490476Y-61452380D01*
X39871428Y-61452380D01*
X39966666Y-61500000D01*
X40014285Y-61547619D01*
X40061904Y-61642857D01*
X40061904Y-61785714D01*
X40014285Y-61880952D01*
X39966666Y-61928571D01*
X39871428Y-61976190D01*
X39490476Y-61976190D01*
X40395238Y-61452380D02*
X40633333Y-62452380D01*
X40823809Y-61738095D01*
X41014285Y-62452380D01*
X41252380Y-61452380D01*
X42204761Y-62452380D02*
X41871428Y-61976190D01*
X41633333Y-62452380D02*
X41633333Y-61452380D01*
X42014285Y-61452380D01*
X42109523Y-61500000D01*
X42157142Y-61547619D01*
X42204761Y-61642857D01*
X42204761Y-61785714D01*
X42157142Y-61880952D01*
X42109523Y-61928571D01*
X42014285Y-61976190D01*
X41633333Y-61976190D01*
X43157142Y-62452380D02*
X42585714Y-62452380D01*
X42871428Y-62452380D02*
X42871428Y-61452380D01*
X42776190Y-61595238D01*
X42680952Y-61690476D01*
X42585714Y-61738095D01*
X61083333Y-53957142D02*
X61035714Y-54004761D01*
X60892857Y-54052380D01*
X60797619Y-54052380D01*
X60654761Y-54004761D01*
X60559523Y-53909523D01*
X60511904Y-53814285D01*
X60464285Y-53623809D01*
X60464285Y-53480952D01*
X60511904Y-53290476D01*
X60559523Y-53195238D01*
X60654761Y-53100000D01*
X60797619Y-53052380D01*
X60892857Y-53052380D01*
X61035714Y-53100000D01*
X61083333Y-53147619D01*
X61940476Y-53385714D02*
X61940476Y-54052380D01*
X61702380Y-53004761D02*
X61464285Y-53719047D01*
X62083333Y-53719047D01*
X35652380Y-49561904D02*
X36461904Y-49561904D01*
X36557142Y-49514285D01*
X36604761Y-49466666D01*
X36652380Y-49371428D01*
X36652380Y-49180952D01*
X36604761Y-49085714D01*
X36557142Y-49038095D01*
X36461904Y-48990476D01*
X35652380Y-48990476D01*
X36652380Y-47990476D02*
X36652380Y-48561904D01*
X36652380Y-48276190D02*
X35652380Y-48276190D01*
X35795238Y-48371428D01*
X35890476Y-48466666D01*
X35938095Y-48561904D01*
X54576190Y-46676190D02*
X55052380Y-46676190D01*
X54052380Y-47009523D02*
X54576190Y-46676190D01*
X54052380Y-46342857D01*
X55052380Y-45485714D02*
X55052380Y-46057142D01*
X55052380Y-45771428D02*
X54052380Y-45771428D01*
X54195238Y-45866666D01*
X54290476Y-45961904D01*
X54338095Y-46057142D01*
X63166666Y-64904761D02*
X63309523Y-64952380D01*
X63547619Y-64952380D01*
X63642857Y-64904761D01*
X63690476Y-64857142D01*
X63738095Y-64761904D01*
X63738095Y-64666666D01*
X63690476Y-64571428D01*
X63642857Y-64523809D01*
X63547619Y-64476190D01*
X63357142Y-64428571D01*
X63261904Y-64380952D01*
X63214285Y-64333333D01*
X63166666Y-64238095D01*
X63166666Y-64142857D01*
X63214285Y-64047619D01*
X63261904Y-64000000D01*
X63357142Y-63952380D01*
X63595238Y-63952380D01*
X63738095Y-64000000D01*
X64071428Y-63952380D02*
X64309523Y-64952380D01*
X64500000Y-64238095D01*
X64690476Y-64952380D01*
X64928571Y-63952380D01*
X65833333Y-64952380D02*
X65261904Y-64952380D01*
X65547619Y-64952380D02*
X65547619Y-63952380D01*
X65452380Y-64095238D01*
X65357142Y-64190476D01*
X65261904Y-64238095D01*
X56833333Y-54052380D02*
X56500000Y-53576190D01*
X56261904Y-54052380D02*
X56261904Y-53052380D01*
X56642857Y-53052380D01*
X56738095Y-53100000D01*
X56785714Y-53147619D01*
X56833333Y-53242857D01*
X56833333Y-53385714D01*
X56785714Y-53480952D01*
X56738095Y-53528571D01*
X56642857Y-53576190D01*
X56261904Y-53576190D01*
X57166666Y-53052380D02*
X57785714Y-53052380D01*
X57452380Y-53433333D01*
X57595238Y-53433333D01*
X57690476Y-53480952D01*
X57738095Y-53528571D01*
X57785714Y-53623809D01*
X57785714Y-53861904D01*
X57738095Y-53957142D01*
X57690476Y-54004761D01*
X57595238Y-54052380D01*
X57309523Y-54052380D01*
X57214285Y-54004761D01*
X57166666Y-53957142D01*
X37752380Y-62141666D02*
X37276190Y-62475000D01*
X37752380Y-62713095D02*
X36752380Y-62713095D01*
X36752380Y-62332142D01*
X36800000Y-62236904D01*
X36847619Y-62189285D01*
X36942857Y-62141666D01*
X37085714Y-62141666D01*
X37180952Y-62189285D01*
X37228571Y-62236904D01*
X37276190Y-62332142D01*
X37276190Y-62713095D01*
X36847619Y-61760714D02*
X36800000Y-61713095D01*
X36752380Y-61617857D01*
X36752380Y-61379761D01*
X36800000Y-61284523D01*
X36847619Y-61236904D01*
X36942857Y-61189285D01*
X37038095Y-61189285D01*
X37180952Y-61236904D01*
X37752380Y-61808333D01*
X37752380Y-61189285D01*
X34152380Y-62166666D02*
X33676190Y-62500000D01*
X34152380Y-62738095D02*
X33152380Y-62738095D01*
X33152380Y-62357142D01*
X33200000Y-62261904D01*
X33247619Y-62214285D01*
X33342857Y-62166666D01*
X33485714Y-62166666D01*
X33580952Y-62214285D01*
X33628571Y-62261904D01*
X33676190Y-62357142D01*
X33676190Y-62738095D01*
X34152380Y-61214285D02*
X34152380Y-61785714D01*
X34152380Y-61500000D02*
X33152380Y-61500000D01*
X33295238Y-61595238D01*
X33390476Y-61690476D01*
X33438095Y-61785714D01*
X33580952Y-67552380D02*
X33104761Y-67552380D01*
X33104761Y-66552380D01*
X33914285Y-67028571D02*
X34247619Y-67028571D01*
X34390476Y-67552380D02*
X33914285Y-67552380D01*
X33914285Y-66552380D01*
X34390476Y-66552380D01*
X34819047Y-67552380D02*
X34819047Y-66552380D01*
X35057142Y-66552380D01*
X35200000Y-66600000D01*
X35295238Y-66695238D01*
X35342857Y-66790476D01*
X35390476Y-66980952D01*
X35390476Y-67123809D01*
X35342857Y-67314285D01*
X35295238Y-67409523D01*
X35200000Y-67504761D01*
X35057142Y-67552380D01*
X34819047Y-67552380D01*
X35771428Y-66647619D02*
X35819047Y-66600000D01*
X35914285Y-66552380D01*
X36152380Y-66552380D01*
X36247619Y-66600000D01*
X36295238Y-66647619D01*
X36342857Y-66742857D01*
X36342857Y-66838095D01*
X36295238Y-66980952D01*
X35723809Y-67552380D01*
X36342857Y-67552380D01*
X28855952Y-67502380D02*
X28379761Y-67502380D01*
X28379761Y-66502380D01*
X29189285Y-66978571D02*
X29522619Y-66978571D01*
X29665476Y-67502380D02*
X29189285Y-67502380D01*
X29189285Y-66502380D01*
X29665476Y-66502380D01*
X30094047Y-67502380D02*
X30094047Y-66502380D01*
X30332142Y-66502380D01*
X30475000Y-66550000D01*
X30570238Y-66645238D01*
X30617857Y-66740476D01*
X30665476Y-66930952D01*
X30665476Y-67073809D01*
X30617857Y-67264285D01*
X30570238Y-67359523D01*
X30475000Y-67454761D01*
X30332142Y-67502380D01*
X30094047Y-67502380D01*
X31617857Y-67502380D02*
X31046428Y-67502380D01*
X31332142Y-67502380D02*
X31332142Y-66502380D01*
X31236904Y-66645238D01*
X31141666Y-66740476D01*
X31046428Y-66788095D01*
X69204761Y-56376190D02*
X69252380Y-56233333D01*
X69252380Y-55995238D01*
X69204761Y-55900000D01*
X69157142Y-55852380D01*
X69061904Y-55804761D01*
X68966666Y-55804761D01*
X68871428Y-55852380D01*
X68823809Y-55900000D01*
X68776190Y-55995238D01*
X68728571Y-56185714D01*
X68680952Y-56280952D01*
X68633333Y-56328571D01*
X68538095Y-56376190D01*
X68442857Y-56376190D01*
X68347619Y-56328571D01*
X68300000Y-56280952D01*
X68252380Y-56185714D01*
X68252380Y-55947619D01*
X68300000Y-55804761D01*
X69204761Y-54995238D02*
X69252380Y-55090476D01*
X69252380Y-55280952D01*
X69204761Y-55376190D01*
X69109523Y-55423809D01*
X68728571Y-55423809D01*
X68633333Y-55376190D01*
X68585714Y-55280952D01*
X68585714Y-55090476D01*
X68633333Y-54995238D01*
X68728571Y-54947619D01*
X68823809Y-54947619D01*
X68919047Y-55423809D01*
X69252380Y-54519047D02*
X68585714Y-54519047D01*
X68776190Y-54519047D02*
X68680952Y-54471428D01*
X68633333Y-54423809D01*
X68585714Y-54328571D01*
X68585714Y-54233333D01*
X69252380Y-53900000D02*
X68585714Y-53900000D01*
X68252380Y-53900000D02*
X68300000Y-53947619D01*
X68347619Y-53900000D01*
X68300000Y-53852380D01*
X68252380Y-53900000D01*
X68347619Y-53900000D01*
X69252380Y-52995238D02*
X68728571Y-52995238D01*
X68633333Y-53042857D01*
X68585714Y-53138095D01*
X68585714Y-53328571D01*
X68633333Y-53423809D01*
X69204761Y-52995238D02*
X69252380Y-53090476D01*
X69252380Y-53328571D01*
X69204761Y-53423809D01*
X69109523Y-53471428D01*
X69014285Y-53471428D01*
X68919047Y-53423809D01*
X68871428Y-53328571D01*
X68871428Y-53090476D01*
X68823809Y-52995238D01*
X69252380Y-52376190D02*
X69204761Y-52471428D01*
X69109523Y-52519047D01*
X68252380Y-52519047D01*
X54507142Y-57041666D02*
X54554761Y-57089285D01*
X54602380Y-57232142D01*
X54602380Y-57327380D01*
X54554761Y-57470238D01*
X54459523Y-57565476D01*
X54364285Y-57613095D01*
X54173809Y-57660714D01*
X54030952Y-57660714D01*
X53840476Y-57613095D01*
X53745238Y-57565476D01*
X53650000Y-57470238D01*
X53602380Y-57327380D01*
X53602380Y-57232142D01*
X53650000Y-57089285D01*
X53697619Y-57041666D01*
X53602380Y-56136904D02*
X53602380Y-56613095D01*
X54078571Y-56660714D01*
X54030952Y-56613095D01*
X53983333Y-56517857D01*
X53983333Y-56279761D01*
X54030952Y-56184523D01*
X54078571Y-56136904D01*
X54173809Y-56089285D01*
X54411904Y-56089285D01*
X54507142Y-56136904D01*
X54554761Y-56184523D01*
X54602380Y-56279761D01*
X54602380Y-56517857D01*
X54554761Y-56613095D01*
X54507142Y-56660714D01*
X34108333Y-41707142D02*
X34060714Y-41754761D01*
X33917857Y-41802380D01*
X33822619Y-41802380D01*
X33679761Y-41754761D01*
X33584523Y-41659523D01*
X33536904Y-41564285D01*
X33489285Y-41373809D01*
X33489285Y-41230952D01*
X33536904Y-41040476D01*
X33584523Y-40945238D01*
X33679761Y-40850000D01*
X33822619Y-40802380D01*
X33917857Y-40802380D01*
X34060714Y-40850000D01*
X34108333Y-40897619D01*
X34441666Y-40802380D02*
X35060714Y-40802380D01*
X34727380Y-41183333D01*
X34870238Y-41183333D01*
X34965476Y-41230952D01*
X35013095Y-41278571D01*
X35060714Y-41373809D01*
X35060714Y-41611904D01*
X35013095Y-41707142D01*
X34965476Y-41754761D01*
X34870238Y-41802380D01*
X34584523Y-41802380D01*
X34489285Y-41754761D01*
X34441666Y-41707142D01*
X57733333Y-42757142D02*
X57685714Y-42804761D01*
X57542857Y-42852380D01*
X57447619Y-42852380D01*
X57304761Y-42804761D01*
X57209523Y-42709523D01*
X57161904Y-42614285D01*
X57114285Y-42423809D01*
X57114285Y-42280952D01*
X57161904Y-42090476D01*
X57209523Y-41995238D01*
X57304761Y-41900000D01*
X57447619Y-41852380D01*
X57542857Y-41852380D01*
X57685714Y-41900000D01*
X57733333Y-41947619D01*
X58114285Y-41947619D02*
X58161904Y-41900000D01*
X58257142Y-41852380D01*
X58495238Y-41852380D01*
X58590476Y-41900000D01*
X58638095Y-41947619D01*
X58685714Y-42042857D01*
X58685714Y-42138095D01*
X58638095Y-42280952D01*
X58066666Y-42852380D01*
X58685714Y-42852380D01*
X57583333Y-48507142D02*
X57535714Y-48554761D01*
X57392857Y-48602380D01*
X57297619Y-48602380D01*
X57154761Y-48554761D01*
X57059523Y-48459523D01*
X57011904Y-48364285D01*
X56964285Y-48173809D01*
X56964285Y-48030952D01*
X57011904Y-47840476D01*
X57059523Y-47745238D01*
X57154761Y-47650000D01*
X57297619Y-47602380D01*
X57392857Y-47602380D01*
X57535714Y-47650000D01*
X57583333Y-47697619D01*
X58535714Y-48602380D02*
X57964285Y-48602380D01*
X58250000Y-48602380D02*
X58250000Y-47602380D01*
X58154761Y-47745238D01*
X58059523Y-47840476D01*
X57964285Y-47888095D01*
M02*
